<?xml version="1.0"?>
<svg xmlns="http://www.w3.org/2000/svg" xmlns:xlink="http://www.w3.org/1999/xlink" xmlns:svgjs="http://svgjs.com/svgjs" version="1.1" width="512" height="512" x="0" y="0" viewBox="0 0 512 512" style="enable-background:new 0 0 512 512" xml:space="preserve" class=""><g><title xmlns="http://www.w3.org/2000/svg">Scooter</title><path xmlns="http://www.w3.org/2000/svg" d="M257.881,272.354A6.817,6.817,0,0,1,261,278.312V318h3.412c3.866,0,6.588-3.415,6.588-7.281V268.312a6.817,6.817,0,0,0-3.119-5.958,25.871,25.871,0,0,1-8.965-34.532c-.276.156-.561.295-.832.462a25.868,25.868,0,0,0-.2,44.07Z" style="" fill="#d4e1f4" data-original="#d4e1f4"/><path xmlns="http://www.w3.org/2000/svg" d="M475.061,329A79.733,79.733,0,0,0,337.3,300.156,79.717,79.717,0,0,1,465.061,339h13.61a82.063,82.063,0,0,0-1.766-10Z" style="" fill="#d4e1f4" data-original="#d4e1f4"/><path xmlns="http://www.w3.org/2000/svg" d="M159.553,329l-5.158-7.6c-.008-.01-.014-.084-.021-.094l-30.759-44.591-9.3-13.051a17.76,17.76,0,0,1-1.639-2.81l-5.8-8.423a9.925,9.925,0,0,1-.719-10.045l29.578-59.527,5.331-14.523-3.45.612L96.153,252.387a9.925,9.925,0,0,0,.719,10.045l6.273,9.1,41.229,59.771c.007.01.013.084.021.094l5.158,7.6H311.981a79.163,79.163,0,0,1,3.628-10Z" style="" fill="#d4e1f4" data-original="#d4e1f4"/><path xmlns="http://www.w3.org/2000/svg" d="M123.425,343.407a7,7,0,0,0-8.229,5.5A41.5,41.5,0,1,1,46.37,310.233a7,7,0,1,0-9.463-10.317,55.5,55.5,0,1,0,92.022,51.72A7,7,0,0,0,123.425,343.407Z" style="" fill="#e51a1a" data-original="#1ae5be" class=""/><path xmlns="http://www.w3.org/2000/svg" d="M441.8,340.846a7,7,0,0,0-8.158,5.607,43.867,43.867,0,0,1-86.235,0,7,7,0,1,0-13.765,2.552,57.866,57.866,0,0,0,113.765,0A7,7,0,0,0,441.8,340.846Z" style="" fill="#e51a1a" data-original="#1ae5be" class=""/><path xmlns="http://www.w3.org/2000/svg" d="M449.242,252.769a196.665,196.665,0,0,0-28.2-26.305C406.578,215.693,393.677,210,382.7,210H378v14h4.7c15.674,0,39.457,19.24,56.073,37.954C470.3,297.48,477.255,326,478.671,339h-13.61a79.7,79.7,0,0,0-153.08,0H149.553l-5.158-7.6c-.008-.01-.014-.084-.021-.094l-41.229-59.771-6.273-9.1a9.925,9.925,0,0,1-.719-10.045l43.028-86.593-12.537-6.232L83.616,246.149a23.883,23.883,0,0,0-2.389,12.79c-23.047.8-46.154,13.454-56.7,32.09-.018.032-.037.065-.054.1a7.072,7.072,0,0,0,2.212,9.182c.276.215.683.525,1.2.915.958.716,2.332,1.729,3.986,2.939,3.266,2.391,7.639,5.565,12.031,8.742,1.594,1.153,9.575,6.921,14.431,10.408l-1.726,12.059a7,7,0,0,0,3.328,6.993l15.645,9.389a7,7,0,0,0,7.945-.513L93.8,343.119c4.4,1.887,11.389,4.858,16.47,7,5.761,2.433,10.394,4.366,13.77,5.748,1.928.79,3.539,1.436,4.675,1.873.669.258,1.2.451,1.565.575a8.7,8.7,0,0,0,2.782.488,7.12,7.12,0,0,0,6.03-3.554,48.736,48.736,0,0,0,2.331-4.562A11.1,11.1,0,0,0,147.978,353H481.929a11.21,11.21,0,0,0,10.982-11.817C492.21,328.621,486.55,294.805,449.242,252.769ZM129.415,342.945c-10.281-4.213-31.308-13.176-33.743-14.264a7,7,0,0,0-7.281.865l-9.747,7.713-7.509-4.506,1.67-11.668A7,7,0,0,0,69.8,314.3c-1.52-1.06-20.352-14.628-29.626-21.411,9.509-11.758,27.77-21.321,47.006-19.871L131.2,336.806A44.035,44.035,0,0,1,129.415,342.945Zm259.106-47.416A65.562,65.562,0,0,1,450.361,339H326.682A65.553,65.553,0,0,1,388.521,295.529Z" style="" fill="#169410" data-original="#0635c9" class=""/><path xmlns="http://www.w3.org/2000/svg" d="M258.084,228.284a25.533,25.533,0,0,1,8.858-3.4l-2.507-13.773a40.168,40.168,0,0,0-32.873,39.206c0,12.58,6.438,24.148,15.438,31.668V314H167.276l-41.569-58.336a3.86,3.86,0,0,1-.489-3.465l33.364-90.949-13.143-4.841-33.378,90.945a17.73,17.73,0,0,0,2.253,16.311l42.467,59.591A11.157,11.157,0,0,0,165.732,328h88.68c3.866,0,6.588-3.415,6.588-7.281V278.312a6.817,6.817,0,0,0-3.119-5.958,25.869,25.869,0,0,1,.2-44.07Z" style="" fill="#169410" data-original="#0635c9" class=""/><path xmlns="http://www.w3.org/2000/svg" d="M162.387,144.812l38,9a7,7,0,1,0,3.226-13.624l-38-9a7,7,0,1,0-3.226,13.624Z" style="" fill="#169410" data-original="#0635c9" class=""/><path xmlns="http://www.w3.org/2000/svg" d="M396,203a22.025,22.025,0,0,0-22-22H275a37.042,37.042,0,0,0-37,37,7,7,0,0,0,7,7H374A22.025,22.025,0,0,0,396,203Zm-14,0a8.009,8.009,0,0,1-8,8H324V195h50A8.009,8.009,0,0,1,382,203Zm-107-8h35v16H253.089A23.042,23.042,0,0,1,275,195Z" style="" fill="#e51a1a" data-original="#1ae5be" class=""/><path xmlns="http://www.w3.org/2000/svg" d="M161.441,121.561A26.874,26.874,0,0,0,140,116.172l-19.929,3.537a11,11,0,0,0-8.911,12.753l5.162,29.093a11.01,11.01,0,0,0,10.808,9.082,11.13,11.13,0,0,0,1.944-.172L149,166.929a27.04,27.04,0,0,0,15.387-8.531,25.165,25.165,0,0,0-2.946-36.837Zm-7.469,27.482-.01.011a12.982,12.982,0,0,1-7.4,4.089l-16.98,3.013-4.114-23.186,16.974-3.012a12.875,12.875,0,0,1,10.288,2.563,11.151,11.151,0,0,1,4.142,6.838A11.453,11.453,0,0,1,153.972,149.043Z" style="" fill="#e51a1a" data-original="#1ae5be" class=""/></g></svg>
