<?xml version="1.0"?>
<svg xmlns="http://www.w3.org/2000/svg" xmlns:xlink="http://www.w3.org/1999/xlink" xmlns:svgjs="http://svgjs.com/svgjs" version="1.1" width="512" height="512" x="0" y="0" viewBox="0 0 512 512" style="enable-background:new 0 0 512 512" xml:space="preserve" class=""><g><path xmlns="http://www.w3.org/2000/svg" d="m79.493 227.056.007-.005v-118.971h-12a35 35 0 0 1 35-35h-30a35 35 0 0 0 -35 35h12v144.63a137.913 137.913 0 0 0 -34.5 91.37h23.49a114.928 114.928 0 0 1 2.944-25.912 138.8 138.8 0 0 1 124.075-112.068q-5.937-.513-12.009-.52a137.677 137.677 0 0 0 -74.007 21.476z" fill="#d4e1f4" data-original="#d4e1f4" style=""/><path xmlns="http://www.w3.org/2000/svg" d="m431.211 214h-7.211v-43.524c0-3.313-2.664-6.476-5.978-6.476h-1.022v-39.524a5.988 5.988 0 0 0 -1.994-4.476l-20.169-18a5.868 5.868 0 0 0 -6.369-1 5.929 5.929 0 0 0 -3.468 5.476v57.524h-1.152c-3.314 0-5.848 3.163-5.848 6.476v43.524h-79.987c-5.361 0-9.737 4-9.977 10h-24.036v-110h6.5a6 6 0 0 0 6-6 41.047 41.047 0 0 0 -41-41h-163a41.047 41.047 0 0 0 -41 41 6 6 0 0 0 6 6h5.5v136.19c-21 25.21-34.417 57.921-34.466 93.647a6.444 6.444 0 0 0 6.466 6.163h23.491c.172 0 .341-.011.509-.026v.026h17v-12h-11.344c3.105-57 50.736-103.029 108.844-103.029s105.745 46.029 108.845 103.029h-12.345v12h38v3.07a5.952 5.952 0 0 0 6.013 5.93h76.987v-12h-71v-121h131.211a37.159 37.159 0 0 1 37.081 37.456l-.052 5.544h-29.74c-3.313 0-6.5 2.768-6.5 6.082v28.918h12v-23h24.127l-.353 37.932 12 .133.518-55.443a49.152 49.152 0 0 0 -49.081-49.622zm-143.211 22v36h-9.775c-4.039-7-8.225-13.848-14.225-19.982v-16.018zm-215.5-157h163a29.175 29.175 0 0 1 28.376 23h-219.752a29.175 29.175 0 0 1 28.376-23zm97.5 35h59v45h-59zm-92 0h56v45h-56zm196.362 224a121.011 121.011 0 0 0 -241.724 0h-11.5c2.77-61.307 48.318-112.663 106.978-124.046a6.01 6.01 0 0 0 4.888-5.89 6.219 6.219 0 0 0 -7.4-5.9c-26.795 5.148-50.604 17.757-70.604 35.579v-123.743h11v51.082c0 3.318 3.187 5.918 6.5 5.918h68c3.313 0 5.5-2.6 5.5-5.918v-51.082h12v51.082c0 3.313 3.187 5.918 6.5 5.918h71c3.313 0 5.5-2.6 5.5-5.918v-51.082h11v125.231c-22-21.411-51.92-35.623-84.59-38.913a5.815 5.815 0 0 0 -6.41 5.966 6.006 6.006 0 0 0 5.44 5.966 132.232 132.232 0 0 1 119.426 125.75zm10.126-54h3.512v7.9a44.532 44.532 0 0 0 -3.512-7.9zm112.512-164.13 8 7.294v36.836h-8zm-7 56.13h22v38h-22z" fill="#c90606" data-original="#0635c9" style="" class=""/><path xmlns="http://www.w3.org/2000/svg" d="m401.178 252.923a5.814 5.814 0 0 0 -5.271-2.923h-82.2a5.742 5.742 0 0 0 -5.27 8.554l16.772 30.569a5.775 5.775 0 0 0 5.27 2.877h82.2a5.817 5.817 0 0 0 5.158-2.732 5.619 5.619 0 0 0 .113-5.727zm-36.088 9.077h6.794l10.242 18h-6.794zm-3.42 18h-6.8l-10.242-18h6.8zm-37.864-18h7.166l10.242 18h-7.166zm71.982 18-10.242-18h6.8l10.242 18z" fill="#c90606" data-original="#0635c9" style="" class=""/><path xmlns="http://www.w3.org/2000/svg" d="m29 237.362a6 6 0 0 0 6-6v-76.614a6 6 0 0 0 -12 0v76.614a6 6 0 0 0 6 6z" fill="#c90606" data-original="#0635c9" style="" class=""/><path xmlns="http://www.w3.org/2000/svg" d="m29 138.362a6 6 0 0 0 6-6v-5.614a6 6 0 1 0 -12 0v5.614a6 6 0 0 0 6 6z" fill="#c90606" data-original="#0635c9" style="" class=""/><g xmlns="http://www.w3.org/2000/svg" fill="#1ae5be"><path d="m250.623 325.314-11.986-.424a85.832 85.832 0 0 0 -10.063-26.939l8.78-8.179a6 6 0 0 0 .3-8.479l-18.589-19.961a6 6 0 0 0 -8.481-.3l-8.79 8.188a87.343 87.343 0 0 0 -26.159-11.951l.424-11.991a6 6 0 0 0 -5.784-6.209l-27.261-.965a6.006 6.006 0 0 0 -6.209 5.784l-.425 11.991a87.317 87.317 0 0 0 -26.93 10.07l-8.189-8.789a6 6 0 0 0 -8.48-.3l-19.961 18.6a6 6 0 0 0 -.3 8.48l8.177 8.779a85.934 85.934 0 0 0 -11.935 26.161l-12-.425a6 6 0 0 0 -6.209 5.784l-.96 27.261a6 6 0 0 0 5.784 6.208l11.992.424a87.516 87.516 0 0 0 10.061 26.94l-8.783 8.184a6 6 0 0 0 -.3 8.48l18.6 19.955a6 6 0 0 0 8.479.3l8.774-8.175a87.463 87.463 0 0 0 26.164 11.945l-.424 11.979a6 6 0 0 0 5.784 6.208l27.262.967h.213a6 6 0 0 0 6-5.788l.423-11.98a87.412 87.412 0 0 0 26.947-10.071l8.181 8.78a6 6 0 0 0 8.48.3l19.955-18.589a6 6 0 0 0 .3-8.48l-8.18-8.78a87.564 87.564 0 0 0 11.941-26.167l11.992.425a6 6 0 0 0 6.209-5.784l.964-27.262a6 6 0 0 0 -5.788-6.205zm-6.96 27.049-10.912-.387a5.988 5.988 0 0 0 -6.09 4.791 75.21 75.21 0 0 1 -13.867 30.393 6 6 0 0 0 .377 7.735l7.44 7.985-11.174 10.41-7.443-7.99a6 6 0 0 0 -7.692-.919 75.1 75.1 0 0 1 -31.293 11.694 6 6 0 0 0 -5.209 5.737l-.385 10.9-15.269-.541.385-10.9a6 6 0 0 0 -4.791-6.09 75.177 75.177 0 0 1 -30.388-13.87 6 6 0 0 0 -7.735.376l-7.981 7.436-10.418-11.179 7.988-7.442a6 6 0 0 0 .922-7.687 75.242 75.242 0 0 1 -11.684-31.3 6 6 0 0 0 -5.736-5.21l-10.91-.386.54-15.268 10.921.387a5.977 5.977 0 0 0 6.105-4.86c.069-.358.146-.708.227-1.069a74.318 74.318 0 0 1 13.617-29.245 6 6 0 0 0 -.376-7.734l-7.441-7.988 11.181-10.418 7.453 8a6 6 0 0 0 7.693.918 74.99 74.99 0 0 1 31.273-11.693 6 6 0 0 0 5.209-5.736l.386-10.909 15.269.54-.386 10.91a6 6 0 0 0 4.791 6.09 75.054 75.054 0 0 1 30.378 13.877 6 6 0 0 0 7.738-.373l8-7.45 10.411 11.18-7.992 7.444a6 6 0 0 0 -.921 7.69 74.207 74.207 0 0 1 11.525 30.14c.054.357.106.722.15 1.086a6 6 0 0 0 5.744 5.267l10.912.387z" fill="#119649" data-original="#1ae5be" style="" class=""/><path d="m477.637 314.438c-.912-.768-1.87-1.524-2.839-2.242a70.4 70.4 0 1 0 2.839 2.242zm-44.47 111.669a57.837 57.837 0 1 1 34.479-104.274c.779.576 1.541 1.177 2.311 1.825a57.829 57.829 0 0 1 -36.79 102.449z" fill="#119649" data-original="#1ae5be" style="" class=""/><path d="m185.175 297.822c-.767-.576-1.551-1.128-2.315-1.628a54.267 54.267 0 1 0 -29.894 99.58q1.525 0 3.071-.086a54.257 54.257 0 0 0 29.138-97.866zm-.662 71.852a41.992 41.992 0 0 1 -29.148 14.033c-.8.044-1.6.067-2.392.067a42.266 42.266 0 0 1 -31.442-70.481 42.227 42.227 0 0 1 29.1-13.985q1.216-.067 2.424-.068a41.9 41.9 0 0 1 23.211 6.981c.565.37 1.136.772 1.752 1.234a42.253 42.253 0 0 1 6.493 62.219z" fill="#119649" data-original="#1ae5be" style="" class=""/><path d="m455.927 340.764q-.723-.609-1.472-1.163a35.98 35.98 0 1 0 1.472 1.163zm-22.76 51.213a23.706 23.706 0 0 1 -16.73-40.5 23.7 23.7 0 0 1 30.863-2.243c.307.227.607.464.948.75a23.7 23.7 0 0 1 -15.081 41.992z" fill="#119649" data-original="#1ae5be" style="" class=""/><path d="m177.619 340.129a24.539 24.539 0 0 0 -9.973-18.454c-.357-.268-.722-.524-1.077-.757a24.658 24.658 0 1 0 -13.585 45.248q.694 0 1.4-.04a24.658 24.658 0 0 0 23.239-26zm-15.181 9.813a12.658 12.658 0 1 1 -18.859-16.888 12.418 12.418 0 0 1 1.32-1.273 12.545 12.545 0 0 1 7.392-2.911q.364-.021.727-.021a12.559 12.559 0 0 1 6.96 2.1c.158.1.313.213.515.364a12.612 12.612 0 0 1 5.145 9.49 12.576 12.576 0 0 1 -3.2 9.139z" fill="#119649" data-original="#1ae5be" style="" class=""/></g></g></svg>
