<?xml version="1.0"?>
<svg xmlns="http://www.w3.org/2000/svg" xmlns:xlink="http://www.w3.org/1999/xlink" xmlns:svgjs="http://svgjs.com/svgjs" version="1.1" width="512" height="512" x="0" y="0" viewBox="0 0 512 512" style="enable-background:new 0 0 512 512" xml:space="preserve" class=""><g><path xmlns="http://www.w3.org/2000/svg" d="m128.98 178.9v131.46h30v-131.46a39.462 39.462 0 0 1 39.35-39.35h-30a39.462 39.462 0 0 0 -39.35 39.35z" fill="#d4e1f4" data-original="#d4e1f4" style=""/><path xmlns="http://www.w3.org/2000/svg" d="m100.43 314.92a30.939 30.939 0 0 0 -14.79 26.41v51.02h-1.59a12.381 12.381 0 0 0 -12.39 12.39v19.31a12.381 12.381 0 0 0 12.39 12.39h30a12.381 12.381 0 0 1 -12.39-12.39v-19.31a12.381 12.381 0 0 1 12.39-12.39h1.59v-51.02a30.962 30.962 0 0 1 30.94-30.969h-29.97a30.838 30.838 0 0 0 -16.18 4.559z" fill="#d4e1f4" data-original="#d4e1f4" style=""/><path xmlns="http://www.w3.org/2000/svg" d="m400 346a6 6 0 0 0 -6-6h-44a6 6 0 0 0 -6 6v27a6 6 0 0 0 6 6h44a6 6 0 0 0 6-6zm-44 6h32v15h-32z" fill="#c90606" data-original="#0635c9" style="" class=""/><path xmlns="http://www.w3.org/2000/svg" d="m168 346a6 6 0 0 0 -6-6h-44a6 6 0 0 0 -6 6v27a6 6 0 0 0 6 6h44a6 6 0 0 0 6-6zm-44 6h32v15h-32z" fill="#c90606" data-original="#0635c9" style="" class=""/><g xmlns="http://www.w3.org/2000/svg" fill="#1ae5be"><path d="m154 474.275c0 3.523-2.745 6.725-6.269 6.725h-24.841a7.136 7.136 0 0 1 -6.89-6.725v-38.275h-12v38.275c0 10.14 8.749 18.725 18.89 18.725h24.841c10.141 0 18.269-8.585 18.269-18.725v-38.275h-12z" fill="#159634" data-original="#1ae5be" style="" class=""/><path d="m395 474.275c0 3.523-2.366 6.725-5.89 6.725h-24.837c-3.523 0-6.273-3.2-6.273-6.725v-38.275h-12v38.275c0 10.14 8.134 18.725 18.273 18.725h24.837c10.141 0 17.89-8.585 17.89-18.725v-38.275h-12z" fill="#159634" data-original="#1ae5be" style="" class=""/><path d="m406 271h12v44h-12z" fill="#159634" data-original="#1ae5be" style="" class=""/><path d="m370.67 19h-229.34c-26.082 0-47.33 21.554-47.33 47.635v152.365h12v-152.365c0-19.465 15.865-35.635 35.33-35.635h229.34c19.465 0 35.33 16.17 35.33 35.635v152.365h12v-152.365c0-26.081-21.248-47.635-47.33-47.635z" fill="#159634" data-original="#1ae5be" style="" class=""/><path d="m94 272h12v42h-12z" fill="#159634" data-original="#1ae5be" style="" class=""/><path d="m121 139.321a6 6 0 1 0 12 0v-49.228a6 6 0 0 0 -12 0z" fill="#159634" data-original="#1ae5be" style="" class=""/><path d="m127 72.817a6 6 0 0 0 6-6v-3.837a6 6 0 1 0 -12 0v3.837a6 6 0 0 0 6 6z" fill="#159634" data-original="#1ae5be" style="" class=""/></g><path xmlns="http://www.w3.org/2000/svg" d="m405.312 212c-5.806 0-10.312 5.014-10.312 10.821v44.159c0 5.808 4.506 11.02 10.312 11.02h29.944c5.806 0 10.744-5.212 10.744-11.02v-44.159a10.979 10.979 0 0 0 -10.744-10.821h-7.256v-6.416c0-10.484-11.316-18.584-25.233-18.584h-12.767v-8.1c0-25.009-20.738-44.9-45.747-44.9h-27.253v-12.311a5.4 5.4 0 0 0 -5.589-5.689h-110.822a5.4 5.4 0 0 0 -5.589 5.689v12.311h-26.673a45 45 0 0 0 -45.327 44.9v8.1h-13.458c-14.091 0-25.542 8.1-25.542 18.584v6.416h-7.256a10.979 10.979 0 0 0 -10.744 10.821v44.159c0 5.808 4.938 11.02 10.744 11.02h29.943c5.806 0 10.313-5.212 10.313-11.02v-44.159c0-5.807-4.507-10.821-10.313-10.821h-10.687v-6.416c0-2.734 5.528-6.584 13.542-6.584h13.458v105h-6.473a36.362 36.362 0 0 0 -25.566 10.659 37.47 37.47 0 0 0 -10.961 26.757v45.392a18.112 18.112 0 0 0 -14 17.927v19.32a17.743 17.743 0 0 0 18.045 17.945h343.91a17.743 17.743 0 0 0 18.045-17.945v-19.32a18.112 18.112 0 0 0 -14-17.927v-45.465c0-20.387-16.441-37.343-36.828-37.343h-5.172v-105h12.767c7.825 0 13.233 3.85 13.233 6.584v6.416zm-300.312 12v42h-27v-42zm102-96h98v23h-98zm-72 50.9a32.987 32.987 0 0 1 33.327-32.9h26.673v11.139a5.545 5.545 0 0 0 5.589 5.861h110.822a5.545 5.545 0 0 0 5.589-5.861v-11.139h27.253c18.393 0 33.747 14.509 33.747 32.9v.1h-243zm243 12.1v78h-116v-78zm-243 0h115v78h-115zm293.61 207a6.389 6.389 0 0 1 6.39 6.39v19.22a6.389 6.389 0 0 1 -6.39 6.39h-344.22a6.389 6.389 0 0 1 -6.39-6.39v-19.22a6.389 6.389 0 0 1 6.39-6.39zm-33.369-81.632a24.819 24.819 0 0 1 24.759 24.975v44.657h-328v-44.665a24.872 24.872 0 0 1 6.6-17.115 24.566 24.566 0 0 1 18.063-7.861h45.334a6.183 6.183 0 0 0 .003-12.359h-27v-23h243v23.367h-175.8a6.084 6.084 0 0 0 -6.1 6 5.958 5.958 0 0 0 5.951 6zm38.759-92.368v42h-27v-42z" fill="#c90606" data-original="#0635c9" style="" class=""/></g></svg>
