<?xml version="1.0" encoding="UTF-8"?>
<svg xmlns="http://www.w3.org/2000/svg" xmlns:xlink="http://www.w3.org/1999/xlink" viewBox="0 0 128 128" width="128px" height="128px">
<g id="surface53718081">
<path style=" stroke:none;fill-rule:nonzero;fill:rgb(100%,100%,100%);fill-opacity:1;" d="M 64 128 C 28.652344 128 0 99.347656 0 64 C 0 28.652344 28.652344 0 64 0 C 99.347656 0 128 28.652344 128 64 C 128 99.347656 99.347656 128 64 128 Z M 64 128 "/>
<path style=" stroke:none;fill-rule:nonzero;fill:rgb(100%,100%,100%);fill-opacity:1;" d="M 89.601562 108.003906 L 30.398438 108.003906 L 30.398438 28.003906 C 30.398438 23.605469 34 20.003906 38.398438 20.003906 L 81.601562 20.003906 C 90.398438 20.003906 97.601562 27.207031 97.601562 36.003906 L 97.601562 100.003906 C 97.601562 104.40625 94 108.003906 89.601562 108.003906 Z M 89.601562 108.003906 "/>
<path style=" stroke:none;fill-rule:nonzero;fill:rgb(44.313726%,76.078433%,100%);fill-opacity:1;" d="M 78.398438 110.40625 C 77.761719 110.40625 77.039062 110.085938 76.558594 109.605469 L 54.398438 83.6875 L 32.238281 109.605469 C 31.359375 110.644531 29.839844 110.726562 28.878906 109.84375 C 27.839844 108.964844 27.761719 107.445312 28.640625 106.484375 L 52.640625 78.484375 C 53.121094 77.925781 53.761719 77.6875 54.480469 77.6875 C 55.199219 77.6875 55.839844 78.003906 56.320312 78.484375 L 80.320312 106.484375 C 81.199219 107.527344 81.039062 109.046875 80.078125 109.84375 C 79.519531 110.246094 78.960938 110.40625 78.398438 110.40625 Z M 84 100.003906 C 83.28125 100.003906 82.558594 99.6875 82.078125 99.046875 L 70.398438 84.003906 L 69.921875 84.644531 C 69.121094 85.6875 67.601562 85.925781 66.558594 85.125 C 65.519531 84.324219 65.28125 82.804688 66.078125 81.765625 L 68.480469 78.566406 C 68.960938 78.003906 69.601562 77.605469 70.398438 77.605469 C 71.121094 77.605469 71.839844 77.925781 72.320312 78.566406 L 85.921875 96.164062 C 86.71875 97.207031 86.558594 98.726562 85.519531 99.527344 C 85.039062 99.84375 84.480469 100.003906 84 100.003906 Z M 73.601562 66.40625 C 67.839844 66.40625 63.199219 61.765625 63.199219 56.003906 C 63.199219 50.246094 67.839844 45.605469 73.601562 45.605469 C 79.359375 45.605469 84 50.246094 84 56.003906 C 84 61.765625 79.359375 66.40625 73.601562 66.40625 Z M 73.601562 50.40625 C 70.480469 50.40625 68 52.886719 68 56.003906 C 68 59.125 70.480469 61.605469 73.601562 61.605469 C 76.71875 61.605469 79.199219 59.125 79.199219 56.003906 C 79.199219 52.886719 76.71875 50.40625 73.601562 50.40625 Z M 73.601562 50.40625 "/>
<path style=" stroke:none;fill-rule:nonzero;fill:rgb(26.666668%,29.411766%,32.941177%);fill-opacity:1;" d="M 30.398438 86.40625 C 31.761719 86.40625 32.800781 85.367188 32.800781 84.003906 L 32.800781 28.003906 C 32.800781 24.886719 35.28125 22.40625 38.398438 22.40625 L 79.199219 22.40625 L 79.199219 28.003906 C 79.199219 33.765625 83.839844 38.40625 89.601562 38.40625 L 95.199219 38.40625 L 95.199219 100.003906 C 95.199219 103.125 92.71875 105.605469 89.601562 105.605469 C 88.238281 105.605469 87.199219 106.644531 87.199219 108.003906 C 87.199219 109.367188 88.238281 110.40625 89.601562 110.40625 C 95.359375 110.40625 100 105.765625 100 100.003906 L 100 36.003906 C 100 25.84375 91.761719 17.605469 81.601562 17.605469 L 38.398438 17.605469 C 32.640625 17.605469 28 22.246094 28 28.003906 L 28 84.003906 C 28 85.367188 29.039062 86.40625 30.398438 86.40625 Z M 94.960938 33.605469 L 89.601562 33.605469 C 86.480469 33.605469 84 31.125 84 28.003906 L 84 22.644531 C 89.601562 23.605469 94 28.003906 94.960938 33.605469 Z M 94.960938 33.605469 "/>
</g>
</svg>
