<svg xmlns="http://www.w3.org/2000/svg" xmlns:xlink="http://www.w3.org/1999/xlink" xmlns:fi="http://pattern.flaticon.com/" x="0" y="0" width="700" height="350" viewBox="0 0 700 350"><rect x="0px" y="0px" width="100%" height="100%" opacity="1" fill="#ff5b69"/><defs><g transform="matrix(0.1697916491523753 0.04549553527192747 -0.04549553527192747 0.1697916491523753 314.49201296283064 294.77600871512914)" id="L1_366"><path d="M480,289.376V264a8,8,0,0,0-8-8H457.775a29.742,29.742,0,0,0,3.064-9.055l25.34-10.136A8,8,0,0,0,491,231.191l4.792-20.635a8,8,0,0,0-.333-4.7l-8-20.634a8,8,0,0,0-5.71-4.915L430.33,168.786l-19.4-23.153a23.942,23.942,0,0,0-18.395-8.586H309.468a24.125,24.125,0,0,0-14.688,5.019l-33.945,26.267-61.827,7.729a8,8,0,0,0-4.665,2.281l-16,16A8,8,0,0,0,176,200v24.223a8,8,0,0,0,1.344,4.437l10.317,15.476a8,8,0,0,0,6.656,3.563h6.295a29.732,29.732,0,0,0,2.929,8.3H160V208a24.027,24.027,0,0,0-24-24H120v-8a24,24,0,0,0-48,0v8H67.088a24.111,24.111,0,0,0-22.472,15.573S24,255.744,24,256v38.131A23.986,23.986,0,0,0,40,336h8.805a40,40,0,0,0,78.39,0h21.492l13.656,13.657A8,8,0,0,0,168,352h96a8,8,0,0,0,7.155-4.422L284.944,320h3.861a40,40,0,1,0,78.39,0h9.61a40,40,0,0,0,78.39,16H472a24,24,0,0,0,8-46.624ZM259.512,247.7H401.8a29.762,29.762,0,0,0,2.928,8.3H256.583A29.732,29.732,0,0,0,259.512,247.7ZM417.254,242a14,14,0,1,1,14,14A14.015,14.015,0,0,1,417.254,242Zm62.395-32.661L476.36,223.5l-17.414,6.966a30,30,0,0,0-55.87,1.229H368V184h57.052l49.032,10.984Zm-80.985-53.43L408.8,168H368V153.047h24.533A7.978,7.978,0,0,1,398.664,155.909Zm-94.093-1.188a8.045,8.045,0,0,1,4.9-1.674H352V168H287.411ZM192,221.8V203.314L203.716,191.6,264.5,184H352v47.7H258.24a30,30,0,0,0-56.356,0H198.6ZM216.062,242a14,14,0,1,1,14,14A14.015,14.015,0,0,1,216.062,242ZM144,208v40H104V200h32A8.009,8.009,0,0,1,144,208ZM88,176a8,8,0,0,1,16,0v8H88ZM59.6,205.191A8.036,8.036,0,0,1,67.088,200H88v48H43.544ZM40,264H144v56H127.2A40.067,40.067,0,0,0,88,288H40Zm-8,48a8.009,8.009,0,0,1,8-8H56.022a39.835,39.835,0,0,0-7.217,16H40A8.009,8.009,0,0,1,32,312Zm56,40a24,24,0,1,1,24-24A24.028,24.028,0,0,1,88,352Zm171.056-16H171.313L160,324.687V320H267.056ZM328,352a24,24,0,1,1,24-24A24.028,24.028,0,0,1,328,352Zm31.978-48a39.956,39.956,0,0,0-63.956,0H160V272H464v16H416a39.962,39.962,0,0,0-31.978,16ZM416,352a24,24,0,1,1,24-24A24.028,24.028,0,0,1,416,352Zm56-32H455.2a39.835,39.835,0,0,0-7.217-16H472a8,8,0,0,1,0,16Z"/><circle cx="328" cy="328" r="8"/><circle cx="416" cy="328" r="8"/><circle cx="88" cy="328" r="8"/><path d="M312,216h16a8,8,0,0,0,0-16H312a8,8,0,0,0,0,16Z"/><path d="M96,136a8,8,0,0,0,8-8V112a8,8,0,0,0-16,0v16A8,8,0,0,0,96,136Z"/><path d="M58.343,149.657a8,8,0,0,0,11.314-11.314l-16-16a8,8,0,1,0-11.314,11.314Z"/><path d="M128,152a7.976,7.976,0,0,0,5.657-2.343l16-16a8,8,0,1,0-11.314-11.314l-16,16A8,8,0,0,0,128,152Z"/></g><path d="m466 192h-420a30.034 30.034 0 0 0 -30 30v74a8 8 0 0 0 2.343 5.657l16 16a8 8 0 0 0 5.657 2.343h66.707a27.992 27.992 0 0 0 50.586 0h205.414a27.992 27.992 0 0 0 50.586 0h74.707a8 8 0 0 0 8-8v-90a30.034 30.034 0 0 0 -30-30zm-418 72h-16v-24h16zm-16 28.687v-12.687h16v24h-4.687zm32-36.687h16v48h-16zm32 0h16v32.431a27.93 27.93 0 0 0 -7.71 15.569h-8.29zm112-16v16h-32v-16zm48 0v16h-32v-16zm48 0v16h-32v-16zm48 0v16h-32v-16zm48 0v16h-32v-16zm48 0v16h-32v-16zm-288 16h-32v-16h32zm-28 64a12 12 0 1 1 12-12 12.013 12.013 0 0 1 -12 12zm256 0a12 12 0 1 1 12-12 12.013 12.013 0 0 1 -12 12zm92-16h-64.29a28 28 0 0 0 -55.42 0h-200.58a27.976 27.976 0 0 0 -31.71-23.71v-8.29h328a8 8 0 0 0 8-8v-32a8 8 0 0 0 -8-8h-336a8 8 0 0 0 -8 8v8h-48v-8a8 8 0 0 0 -8-8h-24v-2a14.015 14.015 0 0 1 14-14h420a14.015 14.015 0 0 1 14 14z" transform="matrix(0.078125 0 0 0.078125 155 330)" id="L1_368"/><g transform="matrix(0.0390625 0 0 0.0390625 77.5 340)" id="L1_370"><path d="M24,368H43.056l13.789,27.578A8,8,0,0,0,64,400H168a8,8,0,0,0,8-8h36.325A37.989,37.989,0,1,0,278,418c0-.671-.019-1.338-.053-2H418.053c-.034.662-.053,1.329-.053,2a38,38,0,1,0,73.533-13.451A26.055,26.055,0,0,0,496,390V378a26.038,26.038,0,0,0-16-24V338a34.038,34.038,0,0,0-34-34H416V180a28.032,28.032,0,0,0-28-28H281.055a27.881,27.881,0,0,0-27.649,23.576L225.173,352.031c-.391.009-.783.021-1.173.044V160a8,8,0,0,0-8-8h-8V64a8,8,0,0,0-8-8H168a8,8,0,0,0-8,8V80H40a8,8,0,0,0-8,8V208H24a8,8,0,0,0-8,8V360A8,8,0,0,0,24,368Zm44.944,16-8-16H160v16ZM208,376H176V168h32Zm32,64a22,22,0,1,1,22-22A22.025,22.025,0,0,1,240,440Zm0-60a37.765,37.765,0,0,0-16,3.545V368.122a18.228,18.228,0,0,1,2-.122h62v32H273.457A38.031,38.031,0,0,0,240,380Zm10.342-84h33.377L296,314.422V351.3l-1.643.7H241.382Zm6.4-40H280v24H252.9Zm8.96-56H400v72H368a8,8,0,0,0-5.657,2.343L332.687,304H308.281L296,285.578V260.944l20.422-10.211,4.423,8.845a8,8,0,1,0,14.31-7.156l-16-32a8,8,0,0,0-14.31,7.156l4.422,8.844-14.535,7.267A7.988,7.988,0,0,0,288,240H259.3ZM400,306.725l-88,37.714V320h24a8,8,0,0,0,5.657-2.343L371.313,288H400Zm-96,58.55L409.643,320h3.043L432,339.313V352a8,8,0,0,0-5.657,2.343l-24,24A8,8,0,0,0,400,384v16H304ZM416,400V387.313L435.313,368H470a10.011,10.011,0,0,1,10,10v10.564A37.957,37.957,0,0,0,422.543,400Zm40,40a22,22,0,1,1,22-22A22.025,22.025,0,0,1,456,440Zm8-102v14H448V336a8,8,0,0,0-2.343-5.657L435.314,320H446A18.021,18.021,0,0,1,464,338ZM281.055,168H388a12.013,12.013,0,0,1,12,12v4H268.262l.943-5.9A11.951,11.951,0,0,1,281.055,168ZM176,72h16v80H176V72ZM112,96v16H96V96ZM48,96H80v24a8,8,0,0,0,8,8h32a8,8,0,0,0,8-8V96h32V208H48ZM80,224h32v28.9l-13.47-4.489a7.992,7.992,0,0,0-5.06,0L80,252.9Zm-48,0H64v40a8,8,0,0,0,10.53,7.589L96,264.433l21.47,7.156A8,8,0,0,0,128,264V224h32V352H32Z"/><path d="M92,184h24a20,20,0,0,0,0-40H92a20,20,0,0,0,0,40Zm0-24h24a4,4,0,0,1,0,8H92a4,4,0,0,1,0-8Z"/><path d="M72,304h48a8,8,0,0,0,0-16H72a8,8,0,0,0,0,16Z"/></g><g transform="matrix(0.0390625 0 0 0.0390625 252.5 340)" id="L1_372"><path d="M452,408H362.246l4-16H444.11a26,26,0,0,0,25.871-28.587l-4.4-44A25.92,25.92,0,0,0,439.71,296H344V268a20.023,20.023,0,0,0-20-20H275.471l-2.607-78.223a73.753,73.753,0,0,0-21.634-49.86L189.657,58.343c-.023-.022-.05-.038-.073-.061a7.918,7.918,0,0,0-.942-.795c-.027-.02-.057-.036-.085-.056a7.925,7.925,0,0,0-.975-.575c-.053-.027-.1-.057-.159-.083a8.081,8.081,0,0,0-.845-.346l-70.494-24c-.176-.06-.352-.1-.529-.151-.075-.02-.149-.046-.225-.064A7.887,7.887,0,0,0,113.613,32c-.049,0-.1,0-.145,0-.235,0-.468.011-.7.032-.072.007-.143.018-.214.026-.2.025-.409.056-.611.1-.086.017-.17.037-.255.057q-.278.064-.547.149c-.092.028-.184.057-.276.089-.172.061-.341.129-.509.2-.09.038-.18.075-.268.116-.178.085-.351.179-.523.276-.069.039-.141.074-.21.116a7.988,7.988,0,0,0-1.342,1.023c-.01.01-.022.018-.033.028l-33.505,32a8,8,0,0,0-2.452,5.171L48.161,381.593l-26.11,45.693A45.928,45.928,0,0,0,61.928,496H152a8,8,0,0,0,0-16H140.529L96.753,407.039l6.836-20.509c.015-.044.022-.089.036-.133.067-.214.126-.432.175-.654.02-.088.039-.175.055-.263.013-.067.031-.132.042-.2l45.46-280.335,33.587,34.428a57.892,57.892,0,0,1,16.445,38.35l4.647,125.147L189.83,359.694A26,26,0,0,0,215.054,392h10.7l4,16H204a44,44,0,0,0,0,88H452a44,44,0,0,0,0-88ZM240,424h53.084a43.915,43.915,0,0,0,0,56H237.916a43.915,43.915,0,0,0,0-56Zm59,28a28,28,0,1,1,28,28A28.032,28.032,0,0,1,299,452Zm61.916-28h57.168a43.915,43.915,0,0,0,0,56H360.916a43.915,43.915,0,0,0,0-56Zm88.745-102.995,4.4,44a10,10,0,0,1-9.951,11H344V352h56a8,8,0,0,0,7.428-5.029L421.416,312H439.71A9.97,9.97,0,0,1,449.661,321.005Zm-45.477-9-9.6,24H344V312Zm-184.391-6.186.009-.035,8.551-34.2a9.984,9.984,0,0,1,9.7-7.575H296v56H216.246ZM146.571,77.128,132.45,54.9l32.644,11.113ZM121.871,480H61.928a29.928,29.928,0,0,1-25.985-44.776L60.643,392H84.9l-4.489,13.47a8,8,0,0,0,.729,6.646ZM89.193,376H64.639l23.1-300.331,24.24-23.15,23.635,37.2ZM194.4,128.2l-37.6-38.546L182.76,74.074l57.157,57.156a57.811,57.811,0,0,1,16.956,39.081L259.462,248H238.054a25.942,25.942,0,0,0-19.708,9.059l-2.968-79.929A73.86,73.86,0,0,0,194.4,128.2Zm12.776,243.953a9.938,9.938,0,0,1-1.819-8.579L212.246,336H304a8,8,0,0,0,8-8V264h12a4,4,0,0,1,4,4V376H215.054A9.939,9.939,0,0,1,207.172,372.154ZM242.246,392H349.754l-4,16H246.246ZM176,452a28,28,0,1,1,28,28A28.032,28.032,0,0,1,176,452Zm276,28a28,28,0,1,1,28-28A28.032,28.032,0,0,1,452,480Z"/><circle cx="204" cy="452" r="12"/><circle cx="327" cy="452" r="12"/><circle cx="448" cy="452" r="12"/></g><g transform="matrix(0.078125 0 0 0.078125 67.5 67.5)" id="L1_374"><path d="M488,282.165s-.014-74.675-.039-74.929c-.01-.109-.029-.216-.044-.324-.019-.139-.037-.278-.063-.416s-.058-.261-.089-.391c-.027-.11-.053-.22-.085-.33-.04-.138-.086-.273-.133-.408-.02-.058-16.757-44.71-16.757-44.71A38.174,38.174,0,0,0,435.21,136H128.985A38.194,38.194,0,0,0,96.4,154.449L57.946,218.54,37.6,233.8A34.162,34.162,0,0,0,24,261v21.147A16.011,16.011,0,0,0,16,296v16a16.019,16.019,0,0,0,16,16H61.758a42.991,42.991,0,0,0,84.484,0H362.758a42.991,42.991,0,0,0,84.484,0H480a16.019,16.019,0,0,0,16-16V296A16,16,0,0,0,488,282.165ZM421,280c-.075,0-.148.009-.224.011A42.962,42.962,0,0,0,362.758,312H352V264H472v16Zm-232.562,6.656A8,8,0,0,0,192,280V152h16V312H168V300.281ZM224,216H336v32H224Zm128,0H472v32H352ZM224,200V152H336v48Zm0,64H336v48H224Zm231.81-97.726L468.456,200H352V152h83.21A22.1,22.1,0,0,1,455.81,166.274Zm-345.689-3.592A22.111,22.111,0,0,1,128.985,152H176v64H78.13ZM47.2,246.6,66.667,232H176v43.719l-20.438,13.625A8,8,0,0,0,152,296v16h-5.758a42.962,42.962,0,0,0-58.018-31.989c-.076,0-.149-.011-.224-.011H40V261A18.081,18.081,0,0,1,47.2,246.6ZM32,296H68.338a42.762,42.762,0,0,0-6.58,16H32Zm72,51a27,27,0,1,1,27-27A27.03,27.03,0,0,1,104,347Zm301,0a27,27,0,1,1,27-27A27.03,27.03,0,0,1,405,347Zm75-35H447.242a42.762,42.762,0,0,0-6.58-16H480Z"/><path d="M128,264h24a8,8,0,0,0,0-16H128a8,8,0,0,0,0,16Z"/></g><g transform="matrix(0.078125 0 0 0.078125 242.5 67.5)" id="L1_376"><path d="M488,354.165V280c0-.778-20.062-68.046-20.062-68.046A27.827,27.827,0,0,0,441.119,192H421.767l-6.177-18.53A8,8,0,0,0,408,168H344a8,8,0,0,0-7.59,5.47L330.233,192H296V168a8,8,0,0,0-5.421-7.573L274.649,155A70,70,0,0,0,280,128.7c-.029-18.378-7.918-34.585-22.812-46.868a8,8,0,0,0-11.262,1.082l-36.795,44.618-10.748-4.34a23.962,23.962,0,1,0-5.447,16.353c.267-.324.523-.653.771-.986l4.75,1.918-33.968,41.19A8,8,0,0,0,164.633,192H124.36a27.853,27.853,0,0,0-25.044,15.478L57.689,290.733,37.6,305.8A34.162,34.162,0,0,0,24,333v21.147A16.011,16.011,0,0,0,16,368v16a16.019,16.019,0,0,0,16,16H61.758a42.991,42.991,0,0,0,84.484,0H362.758a42.991,42.991,0,0,0,84.484,0H480a16.019,16.019,0,0,0,16-16V368A16,16,0,0,0,488,354.165Zm-307.408-224.8A8,8,0,1,1,179.51,118.1,8.009,8.009,0,0,1,180.592,129.361ZM420.748,352a42.962,42.962,0,0,0-57.99,32H320V256H464c.149,0,.294-.014.441-.022l7.559,25.2V352Zm-327.8-96H176v32H76.944ZM304,276.686,283.314,256H304ZM260.686,256,304,299.314V304H291.314L256,268.686V256ZM256,291.314,268.686,304H256Zm-16-14.628L219.314,256H240ZM196.686,256,240,299.314V304H227.314L192,268.686V256ZM192,291.314,204.686,304H192Zm-2.343,66.343A8,8,0,0,0,192,352V320h48v64H176V371.313ZM256,320h48v64H256Zm93.766-136h52.468l2.666,8H347.1ZM252.8,99.723a42.842,42.842,0,0,1,11.2,29c.021,13.058-5.516,26.977-15.588,39.192-21.854,26.5-47.658,27.911-66.071,17.249Zm7.956,78.372a94.278,94.278,0,0,0,6.407-8.739L280,173.727V192H246.626A92.707,92.707,0,0,0,260.756,178.1ZM113.627,214.634A11.935,11.935,0,0,1,124.36,208H441.119a11.925,11.925,0,0,1,11.494,8.552L459.648,240h-358.7ZM47.2,318.6,66.667,304H176v44.687l-13.657,13.656A8,8,0,0,0,160,368v16H146.242a42.962,42.962,0,0,0-58.018-31.989c-.076,0-.149-.011-.224-.011H40V336h8a8,8,0,0,0,0-16H45.556A17.636,17.636,0,0,1,47.2,318.6ZM32,368H68.338a42.762,42.762,0,0,0-6.58,16H32Zm72,51a27,27,0,1,1,27-27A27.03,27.03,0,0,1,104,419Zm301,0a27,27,0,1,1,27-27A27.03,27.03,0,0,1,405,419Zm75-35H447.242a42.762,42.762,0,0,0-6.58-16H480Z"/><path d="M128,336h24a8,8,0,0,0,0-16H128a8,8,0,0,0,0,16Z"/><path d="M424,272a56.063,56.063,0,0,0-56,56,8,8,0,0,0,16,0,40.045,40.045,0,0,1,40-40,8,8,0,0,0,0-16Z"/><path d="M424,304a24.028,24.028,0,0,0-24,24,8,8,0,0,0,16,0,8.009,8.009,0,0,1,8-8,8,8,0,0,0,0-16Z"/></g><g transform="matrix(0.13671875 0 0 0.13671875 315 140)" id="L1_378"><circle cx="328" cy="416" r="8"/><path d="M416,456A40.068,40.068,0,0,0,455.2,424H472a24,24,0,0,0,8-46.624V352a8,8,0,0,0-8-8H390.246l-4-16H432a24.027,24.027,0,0,0,24-24V224a8,8,0,0,0-8-8H431.347c-.051-.038-.1-.081-.149-.118,0,0-214.172-151.807-214.4-151.831-.1-.01-186.164,32.067-186.164,32.067a8,8,0,0,0-6.39,5.942l-8,32a8,8,0,0,0,1.883,7.367c1.527,1.654,13.878,1.35,13.878,1.35V184a8,8,0,0,0,8,8,8,8,0,1,1-6.935,11.994,8,8,0,1,0-13.849,8.012A24,24,0,1,0,48,177.371V140.11l165.468-27.578L378.345,263.669l-.111.331H320V224a8,8,0,0,0-8-8H249.889a23.868,23.868,0,0,0-21.466,13.267l-19.578,39.155A7.994,7.994,0,0,0,208,272v38a18.021,18.021,0,0,0,18,18h27.754l-4,16H184V296a24.027,24.027,0,0,0-24-24H91.088a24.111,24.111,0,0,0-22.472,15.573s-20.567,55.554-20.577,55.663c-.025.254-.039,38.895-.039,38.895A23.986,23.986,0,0,0,64,424h8.805a40,40,0,0,0,78.39,0H176a8,8,0,0,0,8-8v-8h24v16a8,8,0,0,0,8,8h8v8h-8a8,8,0,0,0,0,16h32a8,8,0,0,0,0-16h-8v-8h8a8,8,0,0,0,8-8V408h32.805a40,40,0,1,0,78.39,0h9.61A40.014,40.014,0,0,0,416,456Zm0-16a24,24,0,1,1,24-24A24.028,24.028,0,0,1,416,440Zm56-32H455.2a39.841,39.841,0,0,0-7.217-16H472a8,8,0,0,1,0,16ZM38.5,110.99,208,81.511V97.223L34.721,126.1ZM224,100.481V87.545L403.835,216H400a8,8,0,0,0-7.59,5.47l-8.523,25.573ZM384,280a8,8,0,0,0,7.59-5.47L405.766,232H440v72a8.009,8.009,0,0,1-8,8H320V280ZM242.733,236.422A7.958,7.958,0,0,1,249.889,232H272v48H224v-6.111ZM224,310V296h56a8,8,0,0,0,8-8V232h16v80H226A2,2,0,0,1,224,310Zm46.246,18h99.508l4,16H266.246ZM168,296v40H128V288h32A8.009,8.009,0,0,1,168,296Zm-84.4-2.809A8.037,8.037,0,0,1,91.088,288H112v48H67.544ZM56,400a8.009,8.009,0,0,1,8-8H80.022a39.841,39.841,0,0,0-7.217,16H64A8.009,8.009,0,0,1,56,400Zm56,40a24,24,0,1,1,24-24A24.028,24.028,0,0,1,112,440Zm56-32H151.2A40.067,40.067,0,0,0,112,376H64V352H168v56Zm72,8H224V384h16Zm88,24a24,24,0,1,1,24-24A24.028,24.028,0,0,1,328,440Zm31.978-48a39.956,39.956,0,0,0-63.956,0H256V376a8,8,0,0,0-8-8H216a8,8,0,0,0-8,8v16H184V360H464v16H416a39.962,39.962,0,0,0-31.978,16Z"/><circle cx="416" cy="416" r="8"/><circle cx="112" cy="416" r="8"/></g><path d="M24,392H88a8,8,0,0,0,4.8-1.6l32-24A8,8,0,0,0,128,360h85.4A56.114,56.114,0,0,0,264,392H440a56,56,0,0,0,8-111.419s-.014-24.878-.022-25.027c-.006-.09-.006-.18-.014-.27-.028-.315-16.809-34.862-16.809-34.862A8,8,0,0,0,424,216h-8V148a28.032,28.032,0,0,0-28-28H310.415a27.966,27.966,0,0,0-26.563,19.146L258.233,216H200a8,8,0,0,0-5.657,2.343L164.686,248H128v-6.111a23.87,23.87,0,0,0-13.267-21.467,24.117,24.117,0,0,0-21.466,0l-2.721,1.361A24.112,24.112,0,0,0,78.34,236.19h0l-29.4,95.557-30.6,30.6A8,8,0,0,0,16,368v16A8,8,0,0,0,24,392ZM432,280H264a55.926,55.926,0,0,0-31.32,9.506L194.422,264H432ZM309.687,344a7.859,7.859,0,0,0-.908,0H264a8,8,0,0,1,0-16H368a8,8,0,0,1,0,16Zm-95.034-34.513L176,283.719V270.948l44.528,29.685A56.12,56.12,0,0,0,214.653,309.487ZM189.578,312H176v-9.052Zm44.353-2.431L237.578,312h-5.616Q232.9,310.742,233.931,309.569ZM264,296a40.087,40.087,0,0,1,32,16H266.422l-18.8-12.531A40.144,40.144,0,0,1,264,296Zm126.624,48a23.944,23.944,0,0,0,0-16H440a8,8,0,0,1,0,16ZM314.6,312a55.866,55.866,0,0,0-11.427-16h97.654A55.828,55.828,0,0,0,389.4,312ZM160,312H128V296h32Zm-32,16H241.376a23.944,23.944,0,0,0,0,16H128Zm104,32h64a40,40,0,0,1-64,0Zm71.175,16A55.825,55.825,0,0,0,314.6,360h74.8a55.786,55.786,0,0,0,11.481,16ZM480,336a39.987,39.987,0,0,1-71.98,24H440a24,24,0,0,0,0-48H408a40,40,0,0,1,72,24ZM400,168v48H384V168Zm-89.585-32H388a12.013,12.013,0,0,1,12,12v4H296.432l2.6-7.794A11.986,11.986,0,0,1,310.415,136ZM291.1,168H368v48H275.1Zm-87.786,64H419.056l8,16H187.313ZM160,264v16H128V264ZM32,371.313l29.657-29.656a8,8,0,0,0,1.989-3.3L93.633,240.9a8.036,8.036,0,0,1,4.069-4.8l2.721-1.36a8.036,8.036,0,0,1,7.154,0A7.956,7.956,0,0,1,112,241.889V356L85.333,376H32Z" transform="matrix(0.13206017156295854 -0.03538541632261026 0.03538541632261026 0.13206017156295854 134.18251722565833 149.4055812910866)" id="L1_380"/><path d="M458,136H197.767l-6.177-18.53A8,8,0,0,0,184,112H136a8,8,0,0,0-7.59,5.47L122.233,136H70.415a27.966,27.966,0,0,0-26.563,19.146L16.41,237.47A8.032,8.032,0,0,0,16,240V346a14.015,14.015,0,0,0,14,14H46.083a35.97,35.97,0,0,0,59.834,0H334.083a35.97,35.97,0,0,0,59.834,0H472a8,8,0,0,0,5.657-2.343l16-16A8,8,0,0,0,496,336V174A38.043,38.043,0,0,0,458,136Zm22,38v58H136a8,8,0,0,0-8,8v40a8,8,0,0,0,8,8H384v22.083A35.911,35.911,0,0,0,341.407,312H98.593a36.075,36.075,0,0,0-7.347-4.6l3.909-7.82A7.994,7.994,0,0,0,96,296V224a8,8,0,0,0-8-8H40.433l8-24H456a8,8,0,0,0,8-8V152.838A22.036,22.036,0,0,1,480,174ZM272,272V248h48v24Zm-64,0V248h48v24Zm-64,0V248h48v24Zm192-24h48v24H336ZM32,241.3l3.1-9.3H80v40H32ZM136,152h56v24H136Zm312,0v24H400V152Zm-64,0v24H336V152Zm-64,0v24H272V152Zm-64,0v24H208V152ZM141.766,128h36.468l2.666,8H139.1ZM70.415,152H120v24H53.767l5.264-15.794A11.985,11.985,0,0,1,70.415,152ZM32,344V288H80v6.111l-4.957,9.913A35.945,35.945,0,0,0,40.228,344Zm44,16a20,20,0,1,1,20-20A20.023,20.023,0,0,1,76,360Zm35.772-16a35.738,35.738,0,0,0-1.836-16H330.064a35.738,35.738,0,0,0-1.836,16ZM364,360a20,20,0,1,1,20-20A20.023,20.023,0,0,1,364,360Zm36-112h32v96H400Zm80,84.687L468.687,344H448V248h32Z" transform="matrix(0.17578125 0 0 0.17578125 217.5 217.5)" id="L1_384"/><g transform="matrix(0.1171875 0 0 0.1171875 53 225)" id="L1_385"><path d="M491.9,278.283A97.658,97.658,0,0,0,455.608,231.9,34.722,34.722,0,0,0,423.484,184H360a8.032,8.032,0,0,0-2.53.41L334.7,192H271.6a26.336,26.336,0,0,0-21.912,40.946l1.649,2.473a37.8,37.8,0,0,0-5.585,41.964l12.671,25.342A11.937,11.937,0,0,1,247.742,320H202.833a7.963,7.963,0,0,1-7.429-5.028L169.76,250.858a7.975,7.975,0,0,1-.04-5.844L196.264,176H231.9a24.1,24.1,0,0,0,.3-48.2l-29.859-.377a33.858,33.858,0,0,0-16.574-15l.583-2.186,5.7-14.526L215.567,96l.843,2.53a8,8,0,0,0,15.18-5.06l-8-24a8,8,0,0,0-15.18,5.06L210.233,80H184a8,8,0,0,0-7.73,5.939l-6.2,23.257-41.079-5.134a8,8,0,0,0-8.753,6l-8,32a8,8,0,0,0,2.1,7.6l19.583,19.583L89.383,243.478l-19.591,1.781a57.74,57.74,0,0,0-48.6,36.22l-4.62,11.549A8,8,0,0,0,24,304H80a64.051,64.051,0,1,0,63.492,56h13.074l12.65,20.24A8,8,0,0,0,176,384H362.039a64,64,0,1,0,107.494-61.01l27.351-3.039a8,8,0,0,0,6.606-10.76ZM264.287,211.027A10.265,10.265,0,0,1,271.6,208H336a8.032,8.032,0,0,0,2.53-.41L361.3,200h62.186a18.73,18.73,0,0,1,18.023,23.809l-13.929-6.964a7.985,7.985,0,0,0-3.959-.836l-146,6.952a37.9,37.9,0,0,0-13.31,3.078l-1.313-1.969A10.365,10.365,0,0,1,264.287,211.027ZM240,151.9a8.11,8.11,0,0,1-8.1,8.1H202.418l1.755-4.563a33.614,33.614,0,0,0,2.225-11.961l25.6.323A8.13,8.13,0,0,1,240,151.9ZM134.042,120.817l40.93,5.117.016,0,.023,0a17.581,17.581,0,0,1,14.228,23.755L180.044,173.6l-31.565-12.435-19.62-19.62ZM106.259,329.594,95.993,350.125a23.939,23.939,0,0,0-11.283-5.658L97.346,319.2ZM80,360a8,8,0,1,1-8,8A8.009,8.009,0,0,1,80,360Zm0,56a47.993,47.993,0,0,1-.957-95.976L63.982,350.146A23.993,23.993,0,1,0,103.9,370.081l13.652-27.306,7.554,8.812A48.008,48.008,0,0,1,80,416Zm59.68-72L94.074,290.794A8,8,0,0,0,88,288H35.816l.232-.578a41.814,41.814,0,0,1,35.193-26.23l22.3-2.027L146.566,344Zm215.138-8.264,65.226-7.247.3.448A25.125,25.125,0,0,1,399.438,368H306.422ZM432,368a8.009,8.009,0,0,1-8,8c-.069,0-.136-.012-.2-.014a40.911,40.911,0,0,0,8.2-8.01Zm40,0a48,48,0,0,1-93.252,16h20.69a40.707,40.707,0,0,0,6.254-.5,23.991,23.991,0,1,0,34.225-33.453,41.231,41.231,0,0,0-2.728-23.462l9.243-1.027A47.876,47.876,0,0,1,472,368ZM351.116,320.049a8,8,0,0,0-3.554,1.3L277.578,368H180.434L105.381,247.915l41.992-69.988L174.3,188.535,154.786,239.27A23.931,23.931,0,0,0,154.9,256.8l25.646,64.114A23.886,23.886,0,0,0,202.833,336h44.909a27.936,27.936,0,0,0,24.987-40.431l-12.671-25.341a21.634,21.634,0,0,1,18.321-31.285l143.913-6.852,14.52,7.259a81.755,81.755,0,0,1,40.107,44.55l7.981,21.285Z"/><path d="M392,248H352a8,8,0,0,0,0,16h40a8,8,0,0,0,0-16Z"/><path d="M392,280H352a8,8,0,0,0,0,16h40a8,8,0,0,0,0-16Z"/></g></defs><g fi:class="KUsePattern"><pattern id="pattern_L1_366" width="350" height="350" patternUnits="userSpaceOnUse"><use xlink:href="#L1_366" x="-350" y="-350"/><use xlink:href="#L1_366" x="0" y="-350"/><use xlink:href="#L1_366" x="350" y="-350"/><use xlink:href="#L1_366" x="-350" y="0"/><use xlink:href="#L1_366" x="0" y="0"/><use xlink:href="#L1_366" x="350" y="0"/><use xlink:href="#L1_366" x="-350" y="350"/><use xlink:href="#L1_366" x="0" y="350"/><use xlink:href="#L1_366" x="350" y="350"/></pattern><rect x="0" y="0" width="100%" height="100%" fill="url(#pattern_L1_366)"/></g><g fi:class="KUsePattern"><pattern id="pattern_L1_368" width="350" height="350" patternUnits="userSpaceOnUse"><use xlink:href="#L1_368" x="-350" y="-350"/><use xlink:href="#L1_368" x="0" y="-350"/><use xlink:href="#L1_368" x="350" y="-350"/><use xlink:href="#L1_368" x="-350" y="0"/><use xlink:href="#L1_368" x="0" y="0"/><use xlink:href="#L1_368" x="350" y="0"/><use xlink:href="#L1_368" x="-350" y="350"/><use xlink:href="#L1_368" x="0" y="350"/><use xlink:href="#L1_368" x="350" y="350"/></pattern><rect x="0" y="0" width="100%" height="100%" fill="url(#pattern_L1_368)"/></g><g fi:class="KUsePattern"><pattern id="pattern_L1_370" width="350" height="350" patternUnits="userSpaceOnUse"><use xlink:href="#L1_370" x="-350" y="-350"/><use xlink:href="#L1_370" x="0" y="-350"/><use xlink:href="#L1_370" x="350" y="-350"/><use xlink:href="#L1_370" x="-350" y="0"/><use xlink:href="#L1_370" x="0" y="0"/><use xlink:href="#L1_370" x="350" y="0"/><use xlink:href="#L1_370" x="-350" y="350"/><use xlink:href="#L1_370" x="0" y="350"/><use xlink:href="#L1_370" x="350" y="350"/></pattern><rect x="0" y="0" width="100%" height="100%" fill="url(#pattern_L1_370)"/></g><g fi:class="KUsePattern"><pattern id="pattern_L1_372" width="350" height="350" patternUnits="userSpaceOnUse"><use xlink:href="#L1_372" x="-350" y="-350"/><use xlink:href="#L1_372" x="0" y="-350"/><use xlink:href="#L1_372" x="350" y="-350"/><use xlink:href="#L1_372" x="-350" y="0"/><use xlink:href="#L1_372" x="0" y="0"/><use xlink:href="#L1_372" x="350" y="0"/><use xlink:href="#L1_372" x="-350" y="350"/><use xlink:href="#L1_372" x="0" y="350"/><use xlink:href="#L1_372" x="350" y="350"/></pattern><rect x="0" y="0" width="100%" height="100%" fill="url(#pattern_L1_372)"/></g><g fi:class="KUsePattern"><pattern id="pattern_L1_374" width="350" height="350" patternUnits="userSpaceOnUse"><use xlink:href="#L1_374" x="-350" y="-350"/><use xlink:href="#L1_374" x="0" y="-350"/><use xlink:href="#L1_374" x="350" y="-350"/><use xlink:href="#L1_374" x="-350" y="0"/><use xlink:href="#L1_374" x="0" y="0"/><use xlink:href="#L1_374" x="350" y="0"/><use xlink:href="#L1_374" x="-350" y="350"/><use xlink:href="#L1_374" x="0" y="350"/><use xlink:href="#L1_374" x="350" y="350"/></pattern><rect x="0" y="0" width="100%" height="100%" fill="url(#pattern_L1_374)"/></g><g fi:class="KUsePattern"><pattern id="pattern_L1_376" width="350" height="350" patternUnits="userSpaceOnUse"><use xlink:href="#L1_376" x="-350" y="-350"/><use xlink:href="#L1_376" x="0" y="-350"/><use xlink:href="#L1_376" x="350" y="-350"/><use xlink:href="#L1_376" x="-350" y="0"/><use xlink:href="#L1_376" x="0" y="0"/><use xlink:href="#L1_376" x="350" y="0"/><use xlink:href="#L1_376" x="-350" y="350"/><use xlink:href="#L1_376" x="0" y="350"/><use xlink:href="#L1_376" x="350" y="350"/></pattern><rect x="0" y="0" width="100%" height="100%" fill="url(#pattern_L1_376)"/></g><g fi:class="KUsePattern"><pattern id="pattern_L1_378" width="350" height="350" patternUnits="userSpaceOnUse"><use xlink:href="#L1_378" x="-350" y="-350"/><use xlink:href="#L1_378" x="0" y="-350"/><use xlink:href="#L1_378" x="350" y="-350"/><use xlink:href="#L1_378" x="-350" y="0"/><use xlink:href="#L1_378" x="0" y="0"/><use xlink:href="#L1_378" x="350" y="0"/><use xlink:href="#L1_378" x="-350" y="350"/><use xlink:href="#L1_378" x="0" y="350"/><use xlink:href="#L1_378" x="350" y="350"/></pattern><rect x="0" y="0" width="100%" height="100%" fill="url(#pattern_L1_378)"/></g><g fi:class="KUsePattern"><pattern id="pattern_L1_380" width="350" height="350" patternUnits="userSpaceOnUse"><use xlink:href="#L1_380" x="-350" y="-350"/><use xlink:href="#L1_380" x="0" y="-350"/><use xlink:href="#L1_380" x="350" y="-350"/><use xlink:href="#L1_380" x="-350" y="0"/><use xlink:href="#L1_380" x="0" y="0"/><use xlink:href="#L1_380" x="350" y="0"/><use xlink:href="#L1_380" x="-350" y="350"/><use xlink:href="#L1_380" x="0" y="350"/><use xlink:href="#L1_380" x="350" y="350"/></pattern><rect x="0" y="0" width="100%" height="100%" fill="url(#pattern_L1_380)"/></g><g fi:class="KUsePattern"><pattern id="pattern_L1_384" width="350" height="350" patternUnits="userSpaceOnUse"><use xlink:href="#L1_384" x="-350" y="-350"/><use xlink:href="#L1_384" x="0" y="-350"/><use xlink:href="#L1_384" x="350" y="-350"/><use xlink:href="#L1_384" x="-350" y="0"/><use xlink:href="#L1_384" x="0" y="0"/><use xlink:href="#L1_384" x="350" y="0"/><use xlink:href="#L1_384" x="-350" y="350"/><use xlink:href="#L1_384" x="0" y="350"/><use xlink:href="#L1_384" x="350" y="350"/></pattern><rect x="0" y="0" width="100%" height="100%" fill="url(#pattern_L1_384)"/></g><g fi:class="KUsePattern"><pattern id="pattern_L1_385" width="350" height="350" patternUnits="userSpaceOnUse"><use xlink:href="#L1_385" x="-350" y="-350"/><use xlink:href="#L1_385" x="0" y="-350"/><use xlink:href="#L1_385" x="350" y="-350"/><use xlink:href="#L1_385" x="-350" y="0"/><use xlink:href="#L1_385" x="0" y="0"/><use xlink:href="#L1_385" x="350" y="0"/><use xlink:href="#L1_385" x="-350" y="350"/><use xlink:href="#L1_385" x="0" y="350"/><use xlink:href="#L1_385" x="350" y="350"/></pattern><rect x="0" y="0" width="100%" height="100%" fill="url(#pattern_L1_385)"/></g></svg>