<svg xmlns="http://www.w3.org/2000/svg" xmlns:xlink="http://www.w3.org/1999/xlink" xmlns:fi="http://pattern.flaticon.com/" x="0" y="0" width="700" height="350" viewBox="0 0 700 350"><rect x="0px" y="0px" width="100%" height="100%" opacity="0.64" fill="#c60000"/><defs><g transform="matrix(0.4684639641763707 0.12552454088414092 -0.12552454088414092 0.4684639641763707 318.0968987276563 294.9119727243758)" id="L1_184"><path d="M143.779,45.684c1.969-1.456,1.44-5.217-1.67-5.315c-17.688-0.558-35.392,0.036-53.083-0.008   c-15.029-0.038-30.467-1.071-45.413,0.887c-0.625-1.129-2.387-1.664-3.384-0.565c-10.819,11.931-5.996,38.988-6.9,53.87   c-1.122,18.451,28.199,10.165,38.117,9.38c14.217-1.125,28.725-0.923,42.977-0.846c7.343,0.04,21.404,4.008,28.2,0.027   C156.234,95.142,145.028,58.052,143.779,45.684z M140.046,94.566c-0.794,4.021-50.269,2.372-56.321,2.679   c-9.022,0.457-46,8.559-44.244-5.958c1.835-15.173-1.03-31.933,3.651-46.713c15.092,2.077,30.698,1.162,45.893,1.296   c16.412,0.145,32.831,0.793,49.241,0.465C139.454,62.54,143.264,78.274,140.046,94.566z"/><path d="M111.889,19.651c-7.083-1.44-14.129-1.154-21.314-0.771c-6.449,0.343-12.705-1.789-19.13-1.453   c-2.259,0.118-3.054,2.359-2.394,3.934c-0.922,3.397-0.862,6.8-0.552,10.381c0.106,1.229,0.911,2.111,2.175,2.175   c13.017,0.658,25.948,2.358,39,2.272c1.114-0.007,2.135-0.762,2.426-1.847c1.09-4.068,1.562-8.042,1.647-12.253   C113.766,21.025,112.965,19.87,111.889,19.651z M72.637,29.639c-0.235-2.239-0.419-4.482-0.555-6.728   c5.249,0.045,10.375,0.915,15.581,1.522c6.869,0.801,13.884-0.362,20.849-0.024c-0.154,2.274-0.456,4.527-0.92,6.767   C95.917,31.305,84.299,30.042,72.637,29.639z"/><path d="M183.846,54.138c-0.031-1.288-1.046-2.342-2.351-2.351c-3.309-0.022-6.555,0.019-9.82-0.619   c-1.196-0.234-2.266,0.548-2.715,1.521c-0.614-0.283-1.496-0.044-1.769,0.74c-3.099,8.869-4.869,27.286,6.027,31.135   c0.063,0.875,0.177,1.754,0.173,2.539c-0.008,2.122-0.255,4.335-1.187,6.265c-0.97,2.008-2.752,2.387-4.794,2.36   c-1.534-0.021-4.708-0.325-5.839-1.588c-0.319-0.356-0.729-0.257-1.008,0.006c-0.292-2.814-0.567-5.602-0.745-8.335   c-0.966-14.839,0.671-29.533-1.287-44.364c-4.134-31.311-25.037-37.328-53.609-37.417c-28.326-0.088-61.591-2.622-74.23,27.588   c-7.159,17.111-8.132,36.872-7.582,55.148c0.052,1.721,0.105,3.457,0.158,5.19c-2.887,0.502-5.94,1.694-8.816,1.144   c-2.355-0.452-2.563-2.12-2.939-3.97c3.648-0.699,6.112-3.382,6.699-8.517c0.919-8.045,3.022-18.525-0.052-26.238   c-2.287-5.737-12.748-5.178-16.016-0.649c-3.131,4.338-1.884,9.946-1.973,15.002c-0.107,6.032-0.476,12.38,1.712,18.114   c0.49,1.284,1.648,1.746,2.714,1.635c0.127,0.093,0.271,0.172,0.444,0.219c1.402,0.382,2.698,0.551,3.928,0.6   c-0.14,2.604-0.644,4.985,2.064,6.667c3.528,2.191,8.378,1.546,12.379,0.522c0.56,17.131,1.392,34.689,4.038,51.411   c0.101,0.638,0.747,0.873,1.331,0.787c0.137,0.229,0.306,0.441,0.521,0.595c1.692,1.208,3.692,1.823,5.807,2.143   c-6.377,8.504-2.127,25.167,8.488,28.085c6.861,1.887,12.744-2.43,15.605-8.361c2.328-4.827,4.362-13.52,2.557-19   c10.06,0.358,20.123,0.791,30.149,1.414c10.099,0.627,20.224,0.623,30.333,0.981c-2.511,10.365-0.475,25.881,12.035,27.002   c15.271,1.369,16.097-14.085,13.449-25.42c3.293-0.206,6.398-1.127,9.332-3.628c0.402-0.343,0.563-0.818,0.573-1.307   c1.348-0.56,2.47-1.868,2.218-3.678c-1.305-9.355,0.604-18.506,1.685-27.768c0.857-7.364,0.123-15.114-0.672-22.734   c2.19,2.976,9.645,2.761,12.146,1.433c2.792-1.482,3.888-5.112,4.341-7.987c0.228-1.437,0.507-3.381,0.48-5.232   C190.279,84.553,184.016,61.07,183.846,54.138z M6.669,85.937c-0.02-0.138,0.004-0.257-0.039-0.403   C4.638,78.785,5.133,71.898,5.205,64.95c0.035-3.403-1.155-8.355,3.403-9.494c4.296-1.073,5.935,0.619,6.308,4.765   c0.43,4.779-0.695,9.644-1.14,14.382C13.17,81.043,13.89,85.681,6.669,85.937z M46.752,173.729   c-9.258,0.372-10.805-15.046-8.045-22.02c2.799,0.067,5.636-0.125,8.144-0.061c2.976,0.075,5.96,0.203,8.94,0.296   C54.93,158.855,56.973,173.319,46.752,173.729z M134.148,174.317c-7.168-1.338-6.229-12.677-7.112-19.575   c3.404,0.169,6.805,0.389,10.202,0.718c1.416,0.138,2.794,0.289,4.15,0.422C142.482,162.917,144.869,176.319,134.148,174.317z    M153.708,149.148c-22.031,1.692-46.13-0.95-68.064-2.606c-12.908-0.975-25.875-0.894-38.793-1.704   c-5.339-0.335-11.854-0.929-16.909,1.272c4.116-30.16-4.167-61.087,0.269-91.638c2.518-17.34,8.398-35.838,26.827-41.078   c15.009-4.268,32.469-2.695,47.884-2.412c16.089,0.296,32.85-0.702,42.159,14.845c6.671,11.14,6.554,25.7,6.676,38.229   c0.147,15.102,1.839,30.065,2.278,45.157C156.433,122.827,151.683,135.461,153.708,149.148z M177.661,80.159   c-0.565,0.208-1.085,0.312-1.578,0.358c-0.361-0.144-0.752-0.159-1.13-0.072c-6.786-1.156-5.719-19.182-5.421-25.379   c0.127,0.091,0.224,0.197,0.388,0.268c3.088,1.352,6.193,1.349,9.442,1.232C180.248,63.554,183.295,78.087,177.661,80.159z"/><path d="M60.279,120.461c-0.96-2.446-3.512-5.466-6.328-5.77c-3.698-3.757-10.25,0.341-12.689,4.199   c-3.818,6.037-2.301,14.02,4.54,16.885c6.275,2.628,12.176-0.916,14.547-6.896C61.392,126.247,61.304,123.075,60.279,120.461z    M56.406,126.025c-0.694,3.467-3.684,6.371-7.342,5.492c-4.179-1.004-5.145-5.151-3.54-8.688c1.488-3.279,3.955-4.979,7.324-4.623   c1.019,0.911,2.176,1.623,2.935,2.894C56.656,122.562,56.732,124.398,56.406,126.025z"/><path d="M135.955,116.28c-0.121-0.379-0.355-0.726-0.829-0.872c-14.488-4.49-21.562,24.631-4.133,26.124   C145.646,142.786,148.704,118.75,135.955,116.28z M131.819,136.241c-5.299-0.035-6.44-4.996-5.479-9.22   c0.795-3.493,3.122-6.17,6.114-7.852c0.186,0.176,0.402,0.327,0.68,0.423c4.262,1.472,6.18,4.281,5.908,8.807   C138.799,132.453,136.084,136.269,131.819,136.241z"/></g><g transform="matrix(0.10443155467510223 0 0 0.10443155467510223 77.5 340)" id="L1_185"><path d="M191.457,52.232c-0.321-12.499-9.562-16.106-20.413-16.315c-26.955-0.518-53.962-0.237-80.881-2.13   c-23.78-1.672-49.303-2.56-72.906,1.252C1.879,37.522,5.466,61.61,5.291,71.935C5.074,84.766,4.932,98.081,2.5,110.718   c-1.205,6.262-3.802,15.045-1.712,21.292c2.611,7.806,9.925,10.751,17.346,9.191c-1.761,5.402-0.93,11.46,4.504,15.312   c12.917,9.157,26.678-7.546,22.828-18.423c1.123,0.189,2.253,0.347,3.376,0.509c1.306,0.188,2.677,0.587,4.027,0.745   c-0.634,1.651-1.046,3.29-1.139,4.699c-0.606,9.145,9.013,14.662,17.17,12.438c6.8-1.854,9.851-9.363,9.436-16.322   c4.503,0.872,9.26,1.034,13.741,1.536c6.198,0.694,12.889,1.784,19.161,0.993c-0.1,0.427-0.213,0.861-0.263,1.266   c-1.124,9.151,9.24,14.913,17.256,12.002c6.479-2.353,9.726-9.64,9.2-16.21c0.396,0.119,0.798,0.224,1.151,0.34   c1.484,0.491,3.024,0.752,4.575,0.91c-1.497,6.891,1.043,14.576,8.47,16.683c8.797,2.494,16.696-4.172,18.699-12.306   c0.158,0.013,0.291,0.071,0.461,0.056c12.901-1.226,19.599-4.363,20.108-19.227c0.353-10.27-1.085-20.428-0.909-30.696   C190.235,81.047,191.83,66.722,191.457,52.232z M27.342,150.064c-3.335-2.087-1.76-6.655-0.092-9.206   c1.688-2.582,4.488-3.918,7.41-3.87c0.237,0.272,0.462,0.548,0.809,0.783C42.334,142.41,34.499,154.541,27.342,150.064z    M68.465,146.869c-1.79,2.833-7.17,1.965-8.17-1.073c-1.458-4.432,1.716-8.329,5.283-10.479c0.345,0.062,0.699,0.095,1.057,0.09   c1.554-0.025,1.929,0.251,2.714,1.66C70.978,139.992,70.163,144.181,68.465,146.869z M126.061,147.807   c-2.543,1.622-7.541-0.069-7.04-3.518c0.507-3.488,2.757-6.021,5.186-8.362c2.541,0.429,4.554,0.176,4.985,3.491   C129.577,142.373,128.718,146.112,126.061,147.807z M163.044,141.993c-0.647,4.783-4.721,8.955-9.829,7.562   c-3.415-0.932-2.496-6.63-1.768-8.98c0.524-1.685,1.722-3.514,3.133-4.594c1.015-0.775,2.103-1.101,3.22-1.314   c1.517,0.153,3.14,0.364,4.017,1.519C163.007,137.748,163.301,140.095,163.044,141.993z M183.863,101.692   c0.394,14.526,5.55,33.422-13.33,37.45c-1.179-6.247-6.149-12.82-12.409-10.933c-5.432-0.717-11.228,4.205-13.649,9.008   c-0.037-0.015-0.061-0.042-0.098-0.056c-1.582-0.519-3.225-0.87-4.887-1.022c-0.766-0.07-1.533-0.137-2.299-0.21   c-0.2-0.02-0.403,0.029-0.604,0.066c-2.117-5.6-7.772-10.281-13.906-6.929c-0.586,0.32-0.994,0.798-1.289,1.333   c-3.195,1.036-6.028,3.883-7.95,7.052c-6.072-1.36-12.554-0.902-18.754-1.174c-5.504-0.241-11.472-0.936-17.051-0.277   c-1.622-5.67-5.872-9.945-12.678-8.596c-1.292,0.256-2.285,1.386-2.734,2.583c-2.7,0.206-5.101,2.222-6.937,4.819   c-1.508-0.703-3.074-0.571-4.952-0.472c-2.215,0.118-4.44,0.376-6.651,0.612c-1.11-1.347-2.608-2.513-4.587-3.386   c-0.563-0.248-1.105-0.347-1.622-0.358c-6.22-3.698-12.758-0.574-16.661,4.773c-17.44,1.275-14.212-15.561-12.051-26.663   c2.665-13.69,2.284-28.364,2.782-42.254c0.261-7.284-1.284-22.126,7.521-25.447c7.623-2.876,19.51-1.26,27.615-1.582   c16.571-0.658,32.904-0.148,49.437,1.004c14.498,1.01,28.949,1.033,43.475,1.034c13.491,0.001,44.694-5.106,45.271,16.347   C185.252,72.844,183.472,87.238,183.863,101.692z"/><path d="M52.962,61.618c0.599-3.95,1.448-8.55-1.674-11.638c-2.976-2.944-8.722-2.291-12.432-1.97   c-5.241,0.453-10.403,0.927-15.645,1.188c-1.343,0.067-2.248,0.997-2.509,2.075c-3.825,5.913-2.659,12.918-3.505,19.638   c-0.507,4.026-2.23,12.571,2.266,15.19c8.428,4.909,22.645,0.126,31.499-1.575c1.368-0.263,2.168-1.659,2.238-2.939   C53.564,74.853,51.941,68.341,52.962,61.618z M25.208,82.201c-4.862-0.256-2.573-9.337-2.285-12.689   c0.426-4.946-0.003-9.881,0.28-14.828c6.012,2.528,15.029-0.569,21.113-0.685c5.385-0.103,2.564,6.02,2.064,9.479   c-0.755,5.218,0.377,10.485,0.661,15.725C39.898,80.925,32.568,82.587,25.208,82.201z"/><path d="M116.835,50.67c-0.179-1.28-1.603-2.027-2.746-2.091c-14.353-0.802-28.521-2.557-42.737,0.439   c-1.137-0.706-2.959-0.177-3.093,1.604c-0.859,11.418-2.457,22.714-1.591,34.18c0.091,1.206,0.778,2.395,2.045,2.686   c15.054,3.447,32.005,2.224,47.386,2.297c1.213,0.006,2.657-0.9,2.866-2.182C120.965,75.304,118.526,62.874,116.835,50.67z    M72.099,82.459c-0.53-9.322,0.33-18.632,0.247-27.959c12.501-3.107,26.337-0.885,39.218-0.332   c1.191,9.829,2.987,19.833,1.906,29.706C100.019,84.038,85.235,84.964,72.099,82.459z"/><path d="M173.204,68.606c-1.172-7.028,2.256-17.48-7.351-19.404c-10.7-2.143-22.059,1.868-32.865,0.637   c-3.157-0.36-4.108,4.161-1.943,5.785c0.206,10.801,0.561,21.585,0.355,32.396c-0.03,1.602,1.298,2.69,2.794,2.794   c6.083,0.423,12.144-0.485,18.23-0.062c5.334,0.371,10.793,1.189,15.974-0.531C177.017,87.359,174.28,75.057,173.204,68.606z    M160.538,85.172c-7.759,0.21-15.804,0.236-23.624,0.084c-0.266-9.654-0.758-19.32-2.65-28.786   c6.423,0.882,12.983-0.291,19.43-0.747c3.287-0.233,6.555-0.417,9.852-0.276c4.454,0.19,3.049,6.089,2.857,9.212   C165.922,72.451,173.157,84.831,160.538,85.172z"/></g><path d="M172.891,68.573c0.02-1.753-0.874-3.504-2.853-3.922c-7.523-1.59-15.181-1.843-22.867-1.655   c4.042-7.774,6.3-18.114,8.454-26.025c0.761-2.796-1.382-5.489-4.229-5.55c-10.681-0.227-21.358-0.093-32.036,0.147   c0.006-0.055,0.031-0.097,0.034-0.154c0.221-4.338,0.156-8.683,0.428-13.026c0.204-3.269,0.826-6.794,0.673-10.16   c3.614,0.88,7.76,1.856,10.37,0.358c2.216-1.272,2.123-3.882,0.731-5.681c-2.493-3.224-10.409-2.416-14.091-2.578   c-3.587-0.159-10.2-1.309-12.675,1.942c-0.64,0.839-0.267,2.071,0.357,2.772c1.442,1.623,4.744,1.933,7.659,2.089   c-0.489,3.674,0.01,7.672,0.157,11.258c0.181,4.42,0.458,9.027,1.72,13.291c-1.189,0.03-2.381,0.055-3.57,0.086   c-6.909,0.181-18.459-2.16-25.055,0.248c-13.599,4.965-2.965,21.783,2.598,32.112C80.6,64.295,72.539,64.8,64.621,66.187   c-0.6,0.105-0.992,0.496-1.221,0.979c-0.824,0.352-1.456,1.292-1.259,2.279c1.244,6.245,3.597,12.365,5.542,18.425   c1.746,5.439,3.623,10.776,7.165,15.303c1.543,1.972,3.57,1.545,4.899,0.181c4.317,1.636,8.816,2.235,13.393,2.403   c4.031,7.894,9.042,15.181,12.901,23.184c0.65,1.35,2.354,1.497,3.548,0.93c0.89,0.754,1.78,1.508,2.67,2.263   c-1.332,0.304-2.649,0.615-3.866,1.016c-2.018,0.663-4.493,1.368-6.387,2.64c-4.769-3.614-10.426-6.782-15.842-9.784   c5.478-1.656,12.243-4.519,10.199-9.029c-1.374-3.032-5.979-3.654-8.844-3.91c-8.056-0.717-16.779-0.601-24.549,1.933   c-0.084-0.049-0.128-0.118-0.224-0.16c-9.793-4.286-20.499-6.396-30.538-10.17c-4.728-1.776-15.577-5.741-19.442-0.002   c-3.563,5.291,3.43,9.209,7.291,11.508c7.665,4.563,15.4,12.352,24.335,14.086c4.472,10.612,11.187,30.86,24.309,30.86   c7.789,0,5.574-11.818,4.244-18.668c10.356,3.943,20.863,7.465,31.589,10.283c5.474,1.438,9.146,2.952,12.439-1.886   c0.354-0.521,0.334-1.343,0-1.865c-0.98-1.532-1.328-2.078-1.962-2.558c1.727-2.456,3.814-4.781,5.525-7.284   c1.322,1.12,2.646,2.241,3.969,3.36c-1.183,0.697-1.774,2.438-0.954,3.641c8.505,12.463-17.602,11.274-23.754,9.699   c-1.373-0.353-2.864,0.432-3.232,1.835c-2.099,8.018-0.917,16.101-0.174,24.254c0.132,1.447,1.132,2.734,2.707,2.707   c13.461-0.239,26.869,0.892,40.324,0.108c1.137-0.065,2.532-0.8,2.716-2.067c3.592-24.765,1.366-51.56,0.879-76.629   c2.274-0.109,4.54-0.267,6.785-0.539c0.159-0.02,0.292-0.102,0.443-0.143c-0.014,0.072-0.013,0.126-0.027,0.199   c-0.068,0.339,0.264,0.623,0.583,0.448c3.336-1.827,4.576-1.82,7.289-4.812c2.822-3.112,4.943-6.953,7.062-10.552   c3.397-5.772,8.15-13.639,8.088-20.511C173.232,69.542,173.091,69.035,172.891,68.573z M98.883,40.224   c15.188,1.397,31.055,0.071,46.476-0.052c-2.844,7.423-7.161,15.886-6.771,23.165c-5.546,0.293-11.088,0.65-16.586,0.755   c-9.29,0.177-18.717-0.1-28.121-0.05c-0.742-4.967-2.192-9.524-3.979-14.401C86.157,39.419,89.756,39.384,98.883,40.224z    M111.383,144.686c-1.487,0.114-2.426,2.311-0.794,3.223c-1.205,2.115-2.839,2.327-4.902,0.635   c-3.926-1.278-7.953-2.32-11.896-3.553c-7.866-2.457-15.571-5.378-23.213-8.451c-1.34-0.539-3.138,0.844-2.983,2.272   c0.325,2.981,4.549,19.584-2.038,16.321c-9.149-4.532-12.479-16.738-18.539-24.989c0.443-0.598,0.36-1.638-0.338-2.083   c-5.697-3.642-10.953-7.873-16.566-11.632c-1.93-1.293-4.019-2.297-6.083-3.35c-0.186-0.095-11.06-6.79-3.091-6.995   c5.994-0.153,12.782,3.691,18.245,5.804c6.97,2.694,14.382,3.837,21.204,6.98c0.485,0.224,0.944,0.234,1.379,0.167   c0.347,0.287,0.802,0.471,1.396,0.436c8.793-0.525,17.313-2.245,26.161-0.953c3.75,0.548-0.726,1.303-2.54,2.063   c-2.405,1.009-4.939,1.806-7.482,2.37c-2.108,0.468-2.196,3.283-0.566,4.334c5.949,3.835,13.489,10.68,21.02,11.899   c0.186,0.803,0.831,1.498,1.736,1.471c2.855-0.085,5.493-1.989,8.151-2.965c1.969-0.722,4.243-1.596,6.521-2.249l0.011,0.009   C114.292,138.423,112.315,141.381,111.383,144.686z M128.039,179.621c-2.382,0.053-26.38,0.493-26.52-1.265   c-0.135-1.696-0.425-16.73-1.648-17.056c3.105,0.826,6.45,1.033,9.638,1.258c5.52,0.388,14.228,0.152,18.436-4.23   c3.475-3.62,3.448-6.847,1.998-11.503c-1.012-3.251,5.853-8.306,4.012-13.863c-1.923-5.805-6.123-11.763-13.257-11.314   c-3.268,0.205-10.719,3.608-12.636-0.199c-2.848-5.655-7.163-10.76-11.334-15.635c2.723-0.014,5.462-0.118,8.203-0.217   c10.71-0.389,21.713,0.658,32.526,0.603c0.389,15.44,0.003,30.879,0.501,46.324C138.272,162.268,141.185,179.334,128.039,179.621z    M156.718,88.481c-1.771,3.452-3.709,6.8-5.32,10.335c-0.027,0.062-0.031,0.109-0.058,0.17c-0.21-0.071-0.376-0.178-0.627-0.214   c-23.329-3.33-46.775,1.438-70.025-0.502c-2.404-5.521-5.324-10.789-7.646-16.37c-1.626-3.909-3.201-7.851-5.524-11.353   c31.827,4.978,64.376-1.259,96.257,1.515C161.13,77.299,159.349,83.355,156.718,88.481z" transform="matrix(0.21618583798408508 0 0 0.21618583798408508 155 330)" id="L1_186"/><g transform="matrix(0.10572557151317596 0 0 0.10572557151317596 252.5 340)" id="L1_187"><path d="M128.588,115.152c-2.827-6.775-13.494-7.609-19.599-7.771c-11.006-0.292-23.23,4.529-32.294,10.649   c-13.165-3.177-26.013-7.192-39.443-9.215c-5.063-0.764-17.62-3.471-22.112,1.062c-8.425,8.504,11.857,19.668,21.89,23.477   c-5.216,1.058-10.8,4.132-14.895,7.374c-4.248-5.678-14.613-8.618-20.82-6.883c-1.02,0.285-1.722,1.642-1.051,2.584   c3.047,4.28,6.015,8.238,10.454,11.081c-9.225-0.701-11.191,13.529-2.294,16.227c5.914,1.793,12.275,1.732,18.341,0.62   c14.925-2.739,30.042-4.977,44.541-9.556c4.593,10.107,13.608,27.456,26.03,23.634c10.917-3.358,9.974-23.436,9.381-33.445   c0.393-0.021,0.781-0.132,1.109-0.407C114.723,138.804,133.159,126.102,128.588,115.152z M125.043,119.829   c-1.767,9.333-13.861,14.844-19.543,21.849c-0.714-0.124-1.506,0.259-1.478,1.201c0.156,5.128-0.506,10.484-1.315,15.531   c-0.781,4.868-1.905,12.455-6.2,15.538c-6.919,4.967-17.706-12.959-22.967-20.465c0.572-1.267-0.391-3.085-2.153-2.638   c-0.012,0.003-0.025,0.006-0.037,0.009c-0.3-0.097-0.603-0.008-0.835,0.202c-11.883,2.995-23.806,5.439-35.847,7.73   c-5.111,0.972-10.106,2.01-15.304,2.374c-6.977,0.489-15.843-4.961-8.142-12.513c0.229-0.226,0.238-0.508,0.121-0.736   c0.497,0.19,1.106-0.372,0.757-0.863c-2.42-3.413-4.86-6.82-7.271-10.244c5.914-0.434,11.218,3.132,15.665,6.799   c0.044,0.031,0.073,0.079,0.122,0.101c0.205,0.17,0.419,0.338,0.62,0.508c1.112,0.938,2.506-0.114,2.111-1.392   c2.212-0.934,4.381-1.978,6.548-3.001c3.661-1.73,7.705-2.517,11.305-4.308c0.487-0.242,0.624-0.687,0.615-1.136   c0.272-0.3,0.306-0.789-0.124-1.104c-4.296-3.134-8.952-5.648-13.379-8.594c-2.986-2.038-5.802-4.291-8.45-6.76   c-7.093-6.609,12.939-5.64,12.723-5.655c14.618,1.033,29.112,5.675,43.443,8.618c0.233,0.173,0.53,0.238,0.878,0.166   c0.554,0.074,0.995-0.138,1.293-0.48c6.679-2.713,13.104-5.794,20.095-7.724C103.684,111.357,127.096,108.984,125.043,119.829z"/><path d="M146.868,22.985c-28.764-17.527-63.414-16.307-92.59-0.826C30.591,34.728,4.042,71.952,23.066,98.539   c1.351,1.888,4.029,0.298,3.086-1.804c-7.04-15.683-4.015-31.25,4.093-44.446c0.025,0.085,0.017,0.166,0.055,0.252   c1.437,3.3,3.411,5.017,6.258,7.233c4.019,3.127,4.857,11.44,6.723,16.029C48,87.408,36.784,89.722,35.166,99.326   c-0.275,1.634,2.068,2.354,2.527,0.697c1.387-5.014,6.412-7.636,9.313-11.636c2.442-3.367,2.128-7.636,1.036-11.343   c-1.475-5.007-3.422-10.137-5.131-15.085c-1.715-4.964-7.214-6.506-9.32-11.341c-0.352-0.807-1.001-1.059-1.643-0.967   c7.408-10.864,18.202-19.929,29.407-25.824c7.47-3.93,15.296-6.439,23.247-7.764c3.232,2.822,6.36,4.509,10.299,6.433   c15.243,7.446,8.799,18.882-1.112,25.434c-3.961,2.618-8.42,4.453-12.494,6.89c-5.339,3.194-7.173,9.47-13.051,12.767   c-3.981,2.233-10.849,4.911-9.638,10.999c0.667,3.352,1.923,5.347,4.042,8.128c0.68,0.893,13.762,18.535,10.584,17.319   c-0.504-0.193-1.209,0.025-1.563,0.413l-2.287,2.501c-0.909,0.994,0.302,2.79,1.501,1.945c1.389-0.106,2.778-0.214,4.167-0.321   c0.796,0.418,2.065,0.281,2.477-0.65c3.359-7.593-1.614-12.798-6.725-18.312c-3.239-3.494-13.268-11.327-3.84-17.269   c2.126-1.34,4.714-1.873,6.665-3.537c6.432-5.487,11.189-11.627,18.968-15.594c6.41-3.269,18.286-10.818,17.302-19.688   c-1.171-10.53-10.356-13.896-18.818-18.278c18.246-1.526,36.844,3.102,53.16,12.24c7.727,4.328,14.501,9.786,20.176,16.094   c-10.05,1.783-8.716,15.283-15.312,22.038c-1.256,1.286-0.345,3.476,1.45,3.5c7.758,0.1-1.602,10.96,5.587,15.892   c5.326,3.654,8.993,1.578,10.127-2.807c0.638,0.282,1.409,0.44,2.508,0.44c1.19,0,10.49-2.651,1.154,1.013   c-1.558,0.611-2.53,3.232-0.535,4.095c1.843,0.796-8.204,2.955-6.607,2.312c-5.407,2.18-4.153,1.448-8.747,5.33   c-5.426,4.587,0.791,17.947-0.076,22.686c-2.239,12.227-14.302,26.707-2.398,36.771c-7.153,4.659-15.315,7.97-24.336,9.445   c-2.154,0.353-1.553,3.665,0.5,3.697c34.544,0.527,56.878-36.411,60.811-66.659C192.868,68.008,174.488,39.815,146.868,22.985z    M154.833,152.535c-0.014-0.017-0.017-0.035-0.032-0.05c-9.081-9.527,2.363-26.197,4-36.325c0.457-2.83-0.774-6.286-1.534-8.944   c-3.86-13.504,13.34-12.933,19.941-14.839c1.656-0.478,1.972-2.376,0.95-3.599c-1.253-1.499-1.812-2.24-2.316-2.729   c3.394-1.618,6.621-4.01,5.585-7.776c-2.603-9.463-12.164,1.723-15.517-2.517c-1.131-1.43-3.783-0.263-3.626,1.502   c-4.486-1.705-5.079-3.939-1.781-6.703c0.617-0.956,0.202-3.366,0.186-3.894c-0.035-1.099-0.878-1.963-1.986-1.986   c-0.124-0.002-0.261,0.009-0.387,0.009c0.054-0.075,0.128-0.138,0.174-0.217c3.627-6.192-2.327-15.127,7.477-18.598   c0.115-0.041,0.206-0.109,0.298-0.174c10.377,12.428,16.578,27.923,17.211,44.795C184.392,114.925,173.56,138.605,154.833,152.535z   "/></g><g transform="matrix(0.21093931794166565 0 0 0.21093931794166565 67.5 67.5)" id="L1_188"><path d="M134.716,115.517c-5.952-2.723-13.462-1.906-19.774-1.731c-14.078,0.392-28.104,0.165-42.149,1.39   c-19.598,1.709-42.943,2.485-62.624-0.289c-0.889-0.125-1.598,0.211-2.097,0.721c-0.22,0.072-0.442,0.129-0.654,0.283   c-6.366,4.648-9.626,15.638-3.194,22.103c11.356,11.414,33.29,7.851,47.759,7.909c24.601,0.102,49.535,3.511,73.942-1.151   C142.065,141.667,156.363,125.421,134.716,115.517z M132.904,121.347c-0.148-0.147-0.303-0.262-0.455-0.39   c0.564,0.214,1.113,0.445,1.654,0.691c-0.418,0.565-0.5,1.379,0.069,1.942c2.329,2.311,2.899,3.993,1.239,7.01   c-1.309,2.381-4.26,4.772-7.142,4.265c-3.459-0.61-3.549-4.478-2.767-7.147c0.901-3.08,3.52-4.656,6.61-4.463   C133.107,123.317,133.568,122.001,132.904,121.347z M122.223,119.081c1.509-0.09,3.417,0.091,5.433,0.498   c-2.974,0.513-5.748,3.175-7.033,6.081c-0.268,0.605-0.457,1.225-0.621,1.844c-1.843-4.44-6.429-7.757-11.243-7.559   c-0.017-0.129-0.059-0.25-0.106-0.373C113.176,119.48,117.7,119.351,122.223,119.081z M10.707,120.154   c0.162-0.125,0.237-0.282,0.351-0.425c2.161,0.418,4.422,0.573,6.693,0.651c-2.809,1.973-4.608,5.633-4.367,9.395   c0.29,4.516,2.885,7.801,6.387,9.602C11.725,138.668,8.669,132.3,10.707,120.154z M28.256,134.974   c-4.236,1.47-8.387-1.211-9.249-5.4c-0.685-3.331,1.366-5.143,3.875-6.283c0.38,0.358,0.934,0.561,1.569,0.452   c3.445-0.581,5.41,0.188,6.533,3.748C31.856,130.257,31.318,133.913,28.256,134.974z M35.137,140.099   c-1.403,0.011-2.803-0.019-4.203-0.071c5.215-2.228,6.741-8.698,4.974-13.894c-0.697-2.05-2.273-4.16-4.2-5.582   c6.966,0.125,13.912,0.211,20.857,0.217c-4.254,1.017-7.248,6.17-7.439,10.555c-0.158,3.618,1.354,6.8,3.791,8.911   C44.323,140.183,39.728,140.158,35.137,140.099z M57.572,137.208c-3.699,1.148-6.647-1.81-6.909-5.286   c-0.285-3.791,1.451-5.787,4.245-7.188c0.116,0.033,0.189,0.113,0.321,0.125c3.627,0.308,5.213,0.938,5.969,4.773   C61.761,132.493,60.548,136.284,57.572,137.208z M77.78,141.421c-5.115-0.279-10.222-0.572-15.337-0.809   c3.108-2.616,4.464-7.089,3.852-11.285c-0.555-3.803-3.901-8.232-7.789-8.587c5.568-0.043,11.141-0.174,16.723-0.396   c-3.557,2.531-4.199,7.785-2.992,12.175c1.246,4.53,4.683,7.866,8.85,9.083C79.983,141.542,78.874,141.481,77.78,141.421z    M77.176,123.983c0.233,0.067,0.475,0.104,0.718,0.062c4.72-0.799,9.31-1.287,12.256,3.276c2.823,4.373-0.359,8.261-4.719,9.489   C78.826,138.673,74.445,129.386,77.176,123.983z M86.648,141.894c0.312-0.055,0.621-0.061,0.934-0.141   c7.5-1.921,10.875-9.717,7.274-16.414c-1.364-2.535-3.634-4.386-6.219-5.449c4.312-0.094,8.625-0.142,12.938-0.196   c-2.304,1.927-3.811,5.317-4.357,8.04c-1.147,5.709,0.742,11.924,5.965,14.582C97.66,142.366,92.122,142.171,86.648,141.894z    M105.646,137.446c-5.159-1.603-4.476-13.125,0.326-15.245c0.152,0.521,0.528,0.982,1.111,1.152   c4.339,1.259,8.341,3.238,8.435,8.363C115.609,136.654,109.658,138.693,105.646,137.446z M114.906,141.735   c2.631-1.601,4.666-4.12,5.513-7.116c0.998,2.385,2.889,4.365,5.652,5.408C122.403,140.82,118.676,141.378,114.906,141.735z"/><path d="M140.375,73.438c-4.631-4.631-12.658-2.489-18.921-1.93c0.09-6.162-0.924-15.694-8.073-15.874   c-7.85-0.198-8.595,7.769-7.314,14.04c-6.441,1.221-12.924,2.302-19.467,2.1c1.229-7.364,4.175-19.559-2.643-23.443   c-4.912-2.798-16.582-1.918-23.287,0.683c-0.027-1.117-0.132-2.218-0.225-3.37c-0.112-1.381-1.046-2.438-2.482-2.482   c-6.22-0.189-18.35-3.248-21.171,4.725c-2.2,6.217-1.24,14.677,0.433,21.494c-5.327-1.552-12.426-1.097-17.696-1.313   c-4.11-0.169-12.16-0.926-15.319,2.659c-7.262,8.241-3.332,24.109-1.399,34.18c-0.563,0.661-0.485,1.865,0.564,2.071   c43.938,8.632,89.539,2.242,133.813,2.66c0.76,0.008,1.227-0.442,1.41-1.002c1.439,0.729,3.691,0.035,3.831-2.11   C142.995,97.79,147.559,80.621,140.375,73.438z M137.41,106.526c-0.001,0.021,0.009,0.034,0.008,0.055   c-0.079-0.01-0.143-0.046-0.23-0.045c-43.873,0.585-87.953-2.569-131.827-2.073C6.2,95.106,3,83.91,7.15,75.391   c1.824-3.744,12.459-1.818,15.691-1.573c4.702,0.357,11.305,2.301,15.86,0.695c1.044-0.368,1.573-1.152,1.677-1.985   c0.003-0.011,0.014-0.014,0.017-0.025c1.542-6.03-0.057-12.754,0.365-18.926c0.299-4.365,1.773-5.752,6.173-5.951   c2.944-0.133,5.889,0.222,8.831,0.4c0.093,0.766,0.217,1.528,0.261,2.3c-0.017,0.88,0.364,1.466,0.892,1.827   c0.104,0.655,0.585,1.229,1.434,1.262c6.622,0.26,13.272-0.733,19.909-0.606c7.725,0.147,3.434,16.322,2.924,21.323   c-0.102,1.003,0.841,2.301,1.861,2.443c8.488,1.185,16.506,0.12,24.799-1.821c1.191-0.279,1.756-1.087,1.874-1.98   c0.002-0.004,0.002-0.009,0.003-0.013c0.008-0.064,0.033-0.122,0.036-0.187c0.032-0.126,0.073-0.247,0.075-0.393   c0.021-1.074,0.03-2.148,0.03-3.222c0.003-0.631,1.303-12.264,5.433-6.444c2.014,2.839,1.324,8.301,1.039,11.617   c-0.12,1.413,1.235,2.443,2.508,2.507c5.309,0.269,10.836-1.205,16.079-0.272C141.447,77.531,137.639,101.794,137.41,106.526z"/><path d="M187.142,118.871c-15.296-0.809-20.058-18.471-17.996-31.225c0.186-1.152-0.283-2.729-1.665-2.932   c-4.844-0.713-9.793-0.76-14.683-0.875c-1.969-0.046-2.785,1.418-2.624,2.861c-0.186,0.106-0.377,0.203-0.51,0.403   c-8.147,12.403-4.773,34.425,9.495,40.917c7.987,3.633,29.931,7.277,30.467-6.662C189.682,119.95,188.454,118.941,187.142,118.871z    M159.994,121.667c-11.239-5.811-8.113-21.973-7.809-32.46c0.202,0.069,0.382,0.168,0.613,0.197   c3.786,0.478,7.702,0.232,11.554,0.077c-0.48,14.638,3.604,29.048,18.285,33.386C176.782,127.63,166.23,124.892,159.994,121.667z"/><path d="M76.763,85.675c-1.036-6.773-1.687-14.741-0.395-21.523c0.16-0.84-0.067-1.975-0.96-2.36   c-8.171-3.522-17.478-2.042-26.05-3.693c-1.799-0.347-3.644,0.789-3.631,2.766c0.027,3.872-1.287,8.812,0.683,12.359   c0.151,0.683,0.62,1.3,1.573,1.571c6.663,1.896,11.867,6.173,12.979,13.288c0.229,1.467,1.899,2.003,3.143,1.784   c3.732-0.655,7.519-0.676,11.196-1.614C76.501,87.946,76.933,86.786,76.763,85.675z M50.643,70.689   c0.48-2.125,0.641-4.764,0.718-6.872c7.04,0.187,14.004,1.258,21.012,1.72c0.287,6.222-0.423,12.44,0.087,18.702   c-2.376,0.09-4.75,0.155-7.112,0.38C63.358,77.842,57.558,72.29,50.643,70.689z"/></g><g transform="matrix(0.25655630230903625 0 0 0.25655630230903625 62.5 237.5)" id="L1_189"><path d="M190.85,81.476c0.741-4.424,1.228-9.58-1.156-13.65c-2.197-3.75-9.565-5.858-12.817-8.163   c-9.337-6.616-18.693-13.2-28.126-19.679c-18.248-12.532-36.434-23.933-53.089-38.621c-0.401-0.354-0.818-0.514-1.226-0.586   c-1.011-0.798-2.368-1.114-3.623-0.303C74.792,10.833,59.43,22.345,44.495,34.208C32.633,43.629,12.809,55.777,6.181,69.83   c-0.302,0.641-0.347,1.238-0.295,1.801c-0.563,0.501-0.915,1.203-0.798,2.115c2.502,19.413-0.948,40.349-1.516,59.887   c-0.535,18.383,0.631,36.529,0.637,54.832c0,0.831,0.72,1.428,1.466,1.539c0.416,0.437,0.986,0.728,1.696,0.724   c9.124-0.048,19.733,2.541,28.475-0.011c0.909-0.265,1.387-1.161,1.372-2.014c0.592-0.422,0.759-1.27,0.181-1.916   c-14.31-16.014-4.195-36.656-4.187-55.876c0.001-1.449-0.996-2.221-2.103-2.391c-0.226-0.225-0.498-0.401-0.832-0.416   c-2.066-0.081-4.189-0.148-5.661-1.758c-1.298-1.419-1.382-3.983-1.288-5.771c0.106-2,0.908-3.945,2.417-5.269   c1.856-1.627,4.475,0.646,6.296,0.943c1.45,0.236,3.005-0.972,2.71-2.409c0.3,0.186,0.626,0.34,1.02,0.41   c0.741,0.131,1.294-0.195,1.566-0.89c2.191-5.585,3.492-11.992,5.249-17.941c4.619-15.636,15.146-19.592,30.813-20.93   c16.873-1.441,33.928-2.03,50.744,0.253c21.625,2.936,26.153,18.096,28.376,37.113c0.33,2.824,3.363,3.784,5.244,2.82   c0.886-0.222,1.766-0.518,2.67-0.566c3.688-0.194,6.858,1.41,8.843,4.58c1.331,2.127,0.89,4.809-0.386,6.813   c-1.637,2.575-4.76,0.704-7.024,1.573c-1.367,0.524-2.291,2.078-1.413,3.473c0.139,0.221,0.33,0.369,0.493,0.558   c0.236,18.116,5.541,42.466-4.641,58.511c-1.318,2.079,0.429,4.591,2.688,4.684c7.922,0.329,15.868-1.83,23.629,0.432   c1.571,0.458,2.754-0.149,3.412-1.149c1.989-0.341,3.748-2.055,3.019-4.56c-6.381-21.939-0.357-49.907-0.275-72.501   C188.824,104.679,188.889,93.184,190.85,81.476z M164.136,187.86c3.023-7.357,3.489-15.53,3.681-23.503   c0.242-10.143,1.365-21.802-2.688-31.355c2.56,0.131,5.381-0.892,7.105-2.468c3.423-3.133,4.353-7.812,3.431-12.229   c-1.029-4.933-5.884-8.966-10.671-9.867c-1.584-0.298-3.886-0.229-6.009,0.324c-1.399-14.589-5.082-28.76-18.683-36.488   c-19.087-10.845-49.939-5.329-70.615-3.478c-14.073,1.26-25.842,5.398-30.871,19.273c-0.991,2.735-7.247,17.853-5.429,23.808   c-2.578-2.343-6.908-2.64-9.958-1.28c-3.428,1.527-5.013,5.716-5.435,9.167c-0.45,3.687,0.396,7.48,2.953,10.256   c1.929,2.095,4.647,2.603,7.12,1.889c-0.58,9.756-8.765,43.2,0.095,53.821c-6.561-0.855-13.465-1.137-19.802-0.17   c0.752-3.39,0.593-6.832,0.455-10.517c-0.445-11.911,0.323-23.829,0.653-35.739c0.586-21.093,5.261-44.95,1.644-65.812   c0.163-0.164,0.341-0.282,0.486-0.494c9.013-13.187,25.556-23.922,37.884-33.801C63.704,27.796,78.986,17.896,93.413,6.805   c6.096,11.15,18.782,18.71,28.949,25.511c18.271,12.222,36.476,24.443,54.434,37.132c9.491,6.706,6.154,12.43,4.915,22.187   c-1.524,12-0.299,24.77-0.646,36.869c-0.531,18.499-4.333,40.519-0.148,58.99C175.432,186.46,169.773,187.404,164.136,187.86z"/><path d="M140.749,187.269c-11.123-9.507,2.248-22.979-16.501-23.014c-9.118-0.018-18.423,2.225-27.581,2.62   c-12.151,0.523-23.918,1.08-35.666,4.384c-1.655,0.465-2.297,2.016-2.041,3.594c-2.73,3.794-5.46,7.588-8.19,11.382   c-1.899,0.67-1.748,4.052,0.508,3.75c0.115-0.015,0.237-0.037,0.354-0.054c0.068,0.046,0.108,0.113,0.194,0.145   c11.264,4.061,25.097,1.543,36.923,1.368c16.686-0.245,33.066,0.967,49.637,2.767c1.923,0.209,2.952-1.518,2.912-3.171   C141.949,189.826,141.988,188.328,140.749,187.269z M94.346,185.526c-10.1,0.048-22.015-1.017-32.684,0.497   c0.927-0.901,1.68-2.004,2.156-3.376c4.516-13.009,26.985-8.634,38.76-8.984c7.843-0.234,27.126-6.689,26.237,5.207   c-0.236,3.162,0.645,5.834,2.177,8.124C118.859,185.453,106.592,185.47,94.346,185.526z"/><path d="M135.061,89.175c-15.609-11.512-44.184-9.123-62.481-7.761c-20.54,1.529-25.362,19.551-26.706,37.442   c-0.038,0.511,0.072,0.921,0.244,1.279c0.039,0.852,0.606,1.665,1.661,1.615c30.555-1.448,61.278,4.024,91.679-1.292   C155.989,117.565,142.715,94.819,135.061,89.175z M129.669,114.755c-8.912,1.017-18.014,1.443-26.972,1.84   c-17.221,0.762-34.382-2.802-51.311,0.773c0.768-7.771,2.641-14.92,6.404-21.871c4.93-9.106,18.689-8.153,27.137-8.095   c13.954,0.096,31.868-1.3,44.296,5.678c3.243,2.218,5.776,5.076,7.6,8.572C142.611,110.903,138.991,113.69,129.669,114.755z"/><path d="M64.366,143.928c-7.418-7.818-29.06-12.929-30.974,0.069c-1.173,7.968,5.515,11.579,12.463,11.315   c5.866-0.222,16.334-2.405,20.476-7.014C67.942,146.507,66.611,143.852,64.366,143.928z M38.95,145.688   c-0.477-6.347,12.655-3.16,20.132,0.039C51.646,148.788,39.561,153.821,38.95,145.688z"/><path d="M127.105,146.264c-0.168,0.737,0.086,1.646,0.814,2.004c0.257,0.126,0.456,0.196,0.743,0.227   c0.002,0,0.005,0.001,0.005,0.001c0.66,5.392,11.482,5.397,15.206,5.109c5.627-0.435,12.508-3.257,12.495-9.816   C156.34,127.696,129.63,135.162,127.105,146.264z M150.922,144.992c-1.431,3.221-7.864,3.093-10.678,3.025   c-2.616-0.062-5.733-1.752-8.42-1.995c2.648-2.699,6.189-4.489,9.71-5.719c2.224-0.777,4.559-1.11,6.844-0.451   C150.131,140.358,151.691,143.261,150.922,144.992z"/></g><g transform="matrix(0.45946967601776123 0 0 0.45946967601776123 217.5 217.5)" id="L1_190"><path d="M44.973,116.234c-2.552-0.022-3.855,1.546-4.132,3.357c-1.623,1.014-3.073,2.32-4.18,3.674   c-6.431,7.865-2.738,19.074,7.398,21.32c7.731,1.714,14.567-4.875,15.757-12.168C61.342,123.052,54.093,116.313,44.973,116.234z    M46.602,136.117c0.117-0.024-0.695-0.125-1.266-0.293c-1.088-0.319-2.027-1.233-2.788-2.034c-1.137-1.195-0.43-2.947,0.26-4.153   c1.019-1.778,2.84-2.845,4.615-3.737c0.172-0.087,0.367-0.111,0.551-0.164c2.092,0.747,3.307,2.075,3.267,4.477   C51.195,132.931,49.091,135.603,46.602,136.117z"/><path d="M158.554,129.899c-0.409-4.063-2.262-7.697-5.568-10.147c-2.182-1.617-5.889-3.019-8.956-2.615   c-6.771-1.066-12.939,7.247-13.439,13.688c-0.727,9.368,7.408,16.999,16.786,15.354   C154.78,144.878,159.271,137.039,158.554,129.899z M146.15,137.062c-3.87,1.307-6.069-2.267-5.846-5.55   c0.176-2.596,1.787-4.298,3.766-5.57c2.266,0.548,4.491,0.746,5.285,3.978C149.962,132.393,148.772,136.176,146.15,137.062z"/><path d="M188.794,90.179c-6.36-6.546-18.812-6.284-27.06-6.158c-6.487,0.099-12.979,0.346-19.473,0.634   c-0.152-0.317-0.309-0.635-0.591-0.933c-6.487-6.858-13.179-20.46-23.197-22.771c-3.134-0.723-6.278-1.056-9.432-1.176   c0.269-0.384,0.442-0.852,0.381-1.457c-0.212-2.129-0.119-4.786-0.916-6.779c-1.304-3.266-5.929-2.397-5.872,0.802h-0.057   c0.019,0.177,0.064,0.351,0.09,0.527c0.018,0.097-0.007,0.175,0.019,0.275c0.294,1.182,0.487,2.356,0.571,3.572   c0.075,1.082,0.044,2.078,0.444,3.035c-8.101,0.216-16.251,1.335-24.403,0.787c-22.337-1.502-39.803,0.569-43.917,25.418   c-0.335-0.008-0.668-0.017-1.004-0.025C23.38,85.665,8.196,84.664,2.294,95.9c-4.012,7.638-1.909,21.373-0.101,29.411   c2.328,10.351,14.687,7.722,21.475,5.16c0.859-0.323,1.231-0.994,1.233-1.661c0.015-0.046,0.059-0.053,0.071-0.103   c2.542-10.696,10.545-16.038,21.421-15.847c9.93,0.174,14.396,9.393,20.022,15.804c0.772,0.88,2.1,0.476,2.632-0.383   c15.636,4.323,35.141,6.128,50.833,3.597c0.708-0.114,1.17-0.438,1.433-0.865c0.707,0.941,2.553,0.838,2.947-0.531   c3.38-11.71,9.939-17.054,22.296-16.978c12.062,0.074,14.929,8.714,21.011,16.896c0.252,0.339,0.546,0.567,0.853,0.749   c0.562,1.098,1.716,1.942,3.272,1.711C191.958,129.835,204.519,106.361,188.794,90.179z M175.493,97.596   c-0.071-1.032,0.042-1.462,0.607-2.316c0.641-0.968,0.637-2.146,0.251-3.193c5.71,1.073,9.812,4.472,12.283,10.234   c0.104,0.258,0.158,0.497,0.249,0.751c-2.055-0.153-4.115-0.196-6.18-0.196c3.304-3.952-3.666-8.622-5.857-4.154   c-0.717,1.46-1.153,2.814-1.104,4.36c-2.281,0.127-4.564,0.282-6.848,0.471c1.017-1.118,1.215-2.626,0.786-3.946   C171.522,101.684,175.725,100.955,175.493,97.596z M97.523,67.121c8.476-0.924,16.838-2.05,24.555,4.307   c4.573,3.768,7.909,9.02,11.796,13.621c-11.526,0.575-23.056,1.219-34.573,1.545c-0.642,0.018-1.28,0.013-1.922,0.029   c0.159-3.385,0.172-6.783,0.301-10.168C97.792,73.443,98.197,70.109,97.523,67.121z M64.876,65.93   c7.609,0.065,15.188,1.383,22.789,1.727c1.509,0.068,3.021,0.034,4.532-0.055c-0.521,2.864-0.121,6.014,0.056,8.854   c0.213,3.41,0.464,6.838,0.913,10.232c-17.944,0.307-35.766-0.174-53.698-0.628C44.105,74.748,50.035,65.802,64.876,65.93z    M81.255,97.315c-1.092-0.3-2.298-0.03-3.245,0.601c0.76-1.887,0.889-3.683-0.052-5.344c2.374,0.076,4.749,0.12,7.125,0.17   c-0.472,1.108-0.463,2.437,0.085,3.648c0.119,0.262,0.236,0.525,0.354,0.788c0.062,0.131,0.122,0.264,0.182,0.396   c0.009,0.028,0.002,0.01,0.019,0.057c0.011,0.033,0.036,0.057,0.049,0.089c0.01,0.022,0.02,0.043,0.029,0.065   c-0.01-0.025-0.009-0.02-0.017-0.042c0.692,1.792,2.855,2.631,4.492,2.102c-0.16,0.487-0.267,0.984-0.21,1.551   c0.052,0.528,0.265,2.222,0.211,1.558c0.055,0.34,0.178,0.659,0.33,0.963c-2.464-0.067-4.93-0.13-7.394-0.197   c0.093-0.241,0.201-0.474,0.354-0.724C84.869,100.854,83.632,97.969,81.255,97.315z M66.746,97.815   c-2.617,0-4.137,2.417-3.67,4.818c0.036,0.188,0.073,0.375,0.109,0.563c-1.756-0.041-3.512-0.097-5.268-0.133   c0.126-0.426,0.207-0.872,0.27-1.341c0.272-0.714,0.48-1.441,0.44-2.241c-0.026-0.539-0.159-1.051-0.35-1.53   c0.26,0.845,1.227,1.452,2.062,1.439c-0.559-0.097-0.385-0.077,0.522,0.058c0.455,0,0.921-0.104,1.339-0.279   c0.95-0.4,1.739-0.849,2.402-1.663c1.313-1.613,1.488-3.83,0.481-5.405c1.973,0.08,3.945,0.156,5.918,0.232   c-1.533,2.507-0.698,5.765,1.082,8.092c0.767,1.001,1.859,1.406,3.039,0.797c0.484-0.25,0.893-0.625,1.291-1.004   c-0.049,0.266-0.076,0.539-0.054,0.825c0.067,0.86,0.263,1.679,0.456,2.505c-2.183-0.059-4.364-0.117-6.546-0.174   c0.048-0.247,0.096-0.494,0.144-0.741C70.882,100.232,69.364,97.815,66.746,97.815z M52.565,91.613   c1.934,0.068,3.868,0.15,5.801,0.226c-0.813,1.013-1.216,2.377-0.88,3.787c0.078,0.329,0.125,0.657,0.213,0.985   c0.021,0.078,0.155,0.477,0.281,0.813c-0.722-1.28-1.983-2.196-3.604-2.196c-0.98,0-1.811,0.324-2.48,0.833   c0.297-0.573,0.559-1.165,0.767-1.765C52.975,93.398,52.897,92.462,52.565,91.613z M37.06,100.197   c-0.123,1.065,0.104,2.128,0.725,3.028c-0.979,0.067-1.96,0.113-2.938,0.191c0.244-1.018,0.075-2.027-0.302-2.941   C35.323,100.846,36.297,100.788,37.06,100.197z M32.389,91.272c-0.389,0.856-0.498,1.824-0.141,2.782   c0.521,1.399,1.011,2.891,1.012,4.396c0,0.079,0.026,0.142,0.033,0.217c-0.496-0.424-1.069-0.766-1.739-0.95   c-0.961-0.264-2.042-0.158-3.017,0.219c0.246-0.881,0.419-1.768,0.575-2.512c0.293-1.401-0.043-2.777-0.814-3.854   C29.644,91.422,31.011,91.33,32.389,91.272z M23.062,102.023c0.697,0.351,1.552,0.378,2.579-0.037   c-0.074,0.767-0.023,1.516,0.184,2.225c-1.028,0.094-2.057,0.191-3.085,0.279C22.922,103.643,23.072,102.828,23.062,102.023z    M16.548,94.694c1.209-0.6,2.5-1.102,3.841-1.535c-0.175,1.223-0.125,3.136,0.282,4.906c-1.471-0.667-3.279-0.389-4.472,0.568   C16.505,97.321,16.751,96.036,16.548,94.694z M10.663,99.077c0.04,0.173,0.081,0.342,0.118,0.517   c0.413,1.911,2.753,2.398,4.169,1.48c-0.016,0.439,0.032,0.905,0.208,1.406c0.188,0.535,0.195,1.172,0.244,1.766   c0.023,0.282,0.13,0.493,0.196,0.74c-2.812,0.151-5.626,0.252-8.448,0.209C7.905,102.777,9.14,100.785,10.663,99.077z    M22.211,126.866c-8.754-1.104-15.703-2.378-16.022-14.327c-0.033-1.23,0.037-2.375,0.157-3.479   c11.599,1.913,23.053,0.054,34.76-0.429C31.735,109.919,22.354,117.14,22.211,126.866z M41.557,95.943   c-0.701,0-1.311,0.183-1.869,0.444c0.329-0.757,0.632-1.534,0.933-2.334c0.36-0.957,0.251-1.926-0.139-2.782   c1.257,0.019,2.511,0.077,3.767,0.106c-0.23,0.531-0.367,1.108-0.319,1.735c0.018,0.238,0.075,0.771,0.115,1.117   c0.028,0.303,0.05,0.607,0.071,0.91c0.05,0.763,0.172,1.386,0.408,1.98C43.766,96.42,42.778,95.943,41.557,95.943z M45.684,98.806   c0.771,0.617,2.064,0.905,2.913,0.566c0.742-0.297,1.339-0.785,1.877-1.337c-0.283,0.797-0.375,1.684-0.197,2.578   c0.154,0.768,0.606,1.531,1.119,2.179c0.017,0.043,0.036,0.086,0.053,0.129c-1.02-0.015-2.04-0.056-3.06-0.068   c-0.952-0.011-1.899,0.039-2.849,0.055C46.238,101.651,46.223,100.12,45.684,98.806z M121.18,128.637   c-0.401-0.694-1.074-1.261-1.922-1.367c-8.611-1.073-17.516-0.516-26.202-0.995c-8.283-0.458-16.539-1.473-24.838-1.565   c-4.039-9.135-12.38-15.443-22.324-16.16c15.792-0.294,31.729,0.792,47.485,1.312c12.966,0.428,25.94,0.725,38.915,0.889   C126.019,114.172,122.117,120.456,121.18,128.637z M141.151,104.939c0.21-1.5,0.252-2.886-0.453-4.447   c-1.054-2.336-5.108-2.336-6.162,0c-0.701,1.552-0.661,2.93-0.455,4.419c-2.248-0.021-4.497-0.029-6.746-0.069   c2.171-2.785-0.312-7.216-3.806-7.216c-3.426,0-5.891,4.266-3.938,7.059c-2.372-0.058-4.743-0.116-7.114-0.182   c-0.002-0.025,0.012-0.049,0.009-0.075c-0.022-0.201,0.044-1.141-0.045-0.985c1.494-2.605-0.4-5.971-3.426-5.971   c-3.007,0-4.947,3.371-3.427,5.971c0.112,0.19,0.249,0.524,0.398,0.886c-2.044-0.056-4.089-0.115-6.131-0.165   c-0.974-0.024-1.946-0.053-2.919-0.078c0.844-0.953,1.38-2.157,1.236-3.295c-0.227-1.804-1.061-3.351-2.945-3.87   c-0.934-0.257-2.076-0.088-3.022,0.395c0.162-0.96,0.25-1.938,0.293-2.908c0.025-0.57-0.105-1.097-0.324-1.579   c2.028,0.011,4.057,0.018,6.086,0c-0.589,1.369-0.443,3.063,0.749,4.295c-0.249-0.415-0.249-0.35,0,0.195   c0.171,0.441,0.341,0.882,0.51,1.323c0.848,2.201,3.628,2.201,4.476,0c0.112-0.292,0.224-0.583,0.337-0.874   c0.078-0.201,0.754-1.244,0.173-0.644c1.226-1.265,1.336-3.009,0.692-4.396c2.837-0.048,5.678-0.125,8.517-0.179   c-1.468,0.925-2.248,2.754-1.841,4.591c0.103,0.462,0.562,1.96,0.222,0.707c0.122,0.45,0.243,0.899,0.365,1.35   c0.273,1.008,0.5,1.884,1.234,2.689c1.08,1.187,3.225,1.187,4.305,0c0.734-0.806,0.962-1.682,1.234-2.689   c0.093-0.345,0.186-0.689,0.279-1.034c0.151-0.473,0.103-0.426-0.146,0.142c0.223-0.365,0.375-0.754,0.453-1.165   c0.419-1.891-0.414-3.784-1.969-4.678c3.386-0.07,6.771-0.168,10.156-0.253c-0.866,0.735-1.447,1.808-1.441,3.041   c0.009,1.697,0.401,3.457,1.441,4.827c1.984,2.611,5.64,1.682,5.999-1.625c0.084-0.768,0.247-1.393,0.502-2.127   c0.542-1.556-0.177-3.252-1.416-4.242c3.195-0.09,6.385-0.243,9.577-0.356c-1.25,0.709-2.165,1.984-2.07,3.524   c0.146,2.422,0.76,4.534,2.371,6.388c1.375,1.582,3.966,0.644,4.505-1.188c0.031-0.109,0.061-0.217,0.092-0.326   c-0.224,1.657-0.187,3.137,0.235,4.74C145.584,104.896,143.369,104.932,141.151,104.939z M153.218,97.694   c-1.684-0.986-4.445-0.413-5.364,1.409c0.258-0.927,0.521-1.85,0.871-2.755c0.708-1.825-0.477-3.891-2.111-4.77   c2.58-0.102,5.165-0.161,7.741-0.288c0.833-0.041,1.656-0.066,2.484-0.102c-1.964,2.26-2.133,5.295-1.335,8.098   c0.878,3.085,5.109,2.911,6.064,0c0.514-1.567,1.028-3.127,1.57-4.684c0.494-1.422-0.042-2.693-0.993-3.554   c2.507-0.029,5.006,0.024,7.509,0.199c-0.23,0.328-0.436,0.679-0.573,1.074c-0.683,1.955-0.709,4.062-0.088,6.034   c-0.272-0.324-0.535-0.659-0.931-0.891c-2.09-1.224-5.217-0.155-5.753,2.341c-0.293,1.364-0.647,2.98-0.038,4.304   c-2.767,0.23-5.53,0.444-8.288,0.581c0.16-0.634,0.32-1.315,0.613-1.739C155.792,101.227,154.92,98.691,153.218,97.694z    M171.561,126.83c-1.951-7.943-7.527-13.446-14.469-16.404c11.02-0.714,22.121-1.825,32.946-0.604   C189.572,119.309,179.666,124.475,171.561,126.83z"/></g><g transform="matrix(0.21409378945827484 0 0 0.21409378945827484 242.5 67.5)" id="L1_191"><path d="M176.591,178.176c-2.9-5.792-8.729-10.007-13.446-14.297c-3.058-2.779-5.519-6.05-8.184-9.187   c-1.883-2.215-4.85-6.299-8.144-8.912c1.217,0.188,2.438,0.353,3.651,0.568c1.711,1.346,4.671,0.325,4.769-1.983   c0.483-1.215,0.335-2.634-0.742-3.518c-4.758-19.371,0.742-42.855,1.748-62.342c0.649-12.577,3.196-24.875,3.234-37.54   c0.091-29.881-24.693-26.06-47.842-26.375c-0.066-0.001-0.131,0-0.197-0.001c0.254-4.932,0.871-10.855-4.8-12.897   c-10.748-3.87-23.807,0.046-34.873,0.495c-1.53,0.062-2.483,1.152-2.62,2.62c-0.32,3.439,0.068,6.806,0.57,10.193   c-8.975,0.255-17.952,0.572-26.946,0.965c-8.584,0.375-15.352,2.978-18.059,11.842c-5.581,18.274-4.951,37.018-5.188,55.933   c-0.148,11.833,2.465,23.645,3.2,35.439c0.531,8.519-0.574,15.711,2.524,23.859c0.43,1.131,1.474,1.477,2.342,1.237   c0.33,0.672,0.873,1.229,1.674,1.425c2.04,0.498,4.131,0.852,6.246,1.125c-3.966,4.367-7.634,9.104-11.497,13.504   c-4.679,5.326-9.458,10.55-13.733,16.214c-0.898,1.188,0.958,2.396,1.959,1.512c10.135-8.957,21.483-19.405,29.255-30.708   c3.287,0.158,6.623,0.118,9.965-0.021c-5.289,5.476-9.471,11.858-14.017,17.982c-3.546,4.777-10.099,10.46-10.823,16.697   c-0.1,0.856,1.198,1.131,1.579,0.428c2.599-4.799,7.567-8.928,11.69-13.115c2.363-0.093,7.502,1.243,8.923,1.367   c9.625,0.84,20.571-1.239,30.204-2.021c18.793-1.526,37.536-3.303,56.381-4.13c0.078-0.003,0.132-0.037,0.204-0.048   c6.312,8.179,12.787,16.184,20.947,22.046c1.562,1.122,3.91-1.144,2.704-2.705c-10.733-13.894-23.083-28.303-36.271-40.146   c5.962,0.173,11.905,0.595,17.817,1.286c1.644,0.388,4.354,4.812,5.263,5.885c2.674,3.159,5.158,6.505,7.619,9.832   c5.562,7.521,12.61,14.719,20.173,20.232C175.611,182.194,177.404,179.8,176.591,178.176z M73.914,7.371   c6.732-0.144,13.418-0.884,20.148-1.163c2.276-0.094,11.668-0.904,11.933,2.662c0.138,1.844-0.251,3.831-0.482,5.698   C94.65,14.5,83.81,14.624,72.973,14.904C73.246,12.381,73.456,9.863,73.914,7.371z M128.114,154.854   c1.562,1.948,3.095,3.935,4.627,5.925c-18.114-0.492-35.638,0.598-53.725,2.356c-10.064,0.979-20.142,1.8-30.204,2.804   c-2.093,0.209-4.052,0.023-5.963,0.138c2.506-3.075,4.987-6.163,7.485-9.236c11.446,0.768,22.993,0.13,34.412-0.824   c14.413-1.204,28.625-0.341,42.999-1.075C127.881,154.935,127.995,154.89,128.114,154.854z M125.044,151.18   c-22.146-5.143-48.445-0.883-71.308,1.557c1.221-1.476,2.422-2.966,3.669-4.424c0.379-0.444,0.533-0.912,0.596-1.373   c6.151-0.462,12.236-1.129,17.997-1.542c13.931-1.001,28.041-1.918,42.094-1.78c0.021,0.022,0.024,0.047,0.048,0.068   C120.565,146.02,122.829,148.566,125.044,151.18z M88.681,137.287c-12.566,0.313-25.115,1.84-37.682,2.351   c-7.214,0.293-14.602-0.673-21.734,0.602c-0.249,0.045-0.447,0.151-0.649,0.251c-2.718-14.427-1.129-30.369-2.924-45.055   c-1.806-14.781-0.84-30.428,0.23-45.242c0.547-7.572,1.656-24.208,10.432-27.502c7.02-2.635,17.388-1.242,24.8-1.503   c17.906-0.631,35.781-0.624,53.696-0.338c12.05,0.192,33.003-4.14,37.528,10.711c3.366,11.041,0.814,24.635-0.467,35.833   c-1.36,11.901-1.647,23.859-2.86,35.781c-1.206,11.852-3.008,24.104-0.932,35.899C128.614,135.026,108.503,136.791,88.681,137.287z   "/><path d="M137.553,34.014c-0.017-0.087-0.063-0.14-0.086-0.219c0.127-0.988-0.215-2.055-1.166-2.63   c-9.265-5.592-28.355-0.837-38.621-0.585c-16.835,0.413-34.359-1.931-50.979,1.204c-1.561-0.788-3.93-0.369-4.283,1.659   c-3.029,17.401-3.565,36.134-1.151,53.643c0.001,0.009,0.007,0.014,0.008,0.023c-0.308,0.64-0.057,1.591,0.755,1.885   c13.211,4.781,29.1,1.753,43.046,2.979c17.491,1.537,34.915-0.254,52.334,1.462c2.267,0.223,3.259-2.443,2.523-4.183   C142.183,71.432,140.775,51.557,137.553,34.014z M90.732,86.8c-15.392-1.375-30.329,0.231-45.588-0.225   c0.001-0.006,0.005-0.011,0.006-0.017c2.244-17.014,0.658-34.289,2.804-51.382c28.277,3.993,56.921-0.671,85.176,0.727   c-0.555,16.848,0.688,34.926,3.082,51.713C121.109,85.726,105.932,88.158,90.732,86.8z"/><path d="M53.574,106.604c-0.125-0.107-0.245-0.226-0.416-0.26c-14.491-2.871-15.638,21.51-1.473,23.174   c6.877,0.808,12.378-3.847,12.918-10.638C65.091,112.751,59.547,107.019,53.574,106.604z M52.445,123.997   c-3.883-0.134-5.283-4.307-5.246-7.52c0.031-2.714,1.524-4.853,3.555-6.378c0.256,0.318,0.599,0.588,1.101,0.72   c3.638,0.955,6.701,2.628,7.056,6.781C59.259,121.683,56.41,124.132,52.445,123.997z"/><path d="M136.95,115.821c-0.732-5.314-5.992-10.437-11.536-10.699c-0.15-0.123-0.262-0.275-0.472-0.351   c-6.317-2.257-10.104,4.161-10.324,9.578c-0.236,5.814,3.689,12.19,9.731,13.023C131.312,128.334,137.951,123.077,136.95,115.821z    M124.722,121.544c-3.022-0.702-4.118-4.527-4.249-7.194c-0.102-2.065,0.603-3.666,1.847-4.87c0.133,0.055,0.249,0.127,0.406,0.155   c4.304,0.761,7.286,1.843,8.543,6.476C132.321,119.979,128.081,122.323,124.722,121.544z"/></g><path d="M166.459,93.844c3.751-6.913,7.823-15.802,4.378-23.325c-2.511-5.484-9.077-8.273-14.931-10.289   c2.203-3.275,2.709-7.63,2.015-11.503c-1.045-5.828-6.057-9.167-11.386-10.561c-3.783-0.989-7.561,0.42-7.497,4.772   c0.045,3.108,2.824,7.345,2.705,10.698c-1.483-1.748-4.021-2.862-5.927-3.659c-2.645-1.105-6.17-1.337-8.566,0.462   c-3.036,2.281-3.887,6.775-2.865,10.279c0.52,1.783,1.645,3.265,2.713,4.744c0.256,0.355,0.465,0.653,0.668,0.953   c-2.678-1.458-5.494-1.489-9.215,0.102c-9.933,4.246-17.373-3.338-27.823,0.56c-4.547,1.696-8.992,4.835-13.245,7.174   c-14.228,7.824-26.696-1.931-37.988-8.712c-6.71-4.03-14.303-8.324-22.356-7.278c-15.173,1.971-0.415,16.86,4.884,19.562   c9.316,4.752,15.101,8.863,25.473,12.138c14.857,4.691,20.871,14.74,20.475,26.01c-3.733,0.008-7.547,0.56-11.312,1.163   c-2.185-11.515-9.431-23.298-20.486-24.086c-10.429-7.551-24.713,6.34-30.28,15.628c-8.841,14.751-9.31,37.456,9.623,44.253   c19.058,6.842,36.94-3.135,41.271-22.843c0.348-1.585,0.53-3.309,0.572-5.106c3.122-0.28,6.228-0.639,9.309-1.005   c-1.24,4.429-3.301,8.896-6.113,13.173c-0.657,1,0.43,2.434,1.572,2.044c0.385-0.131,0.724-0.31,1.088-0.463   c0.117,0.067,0.176,0.181,0.321,0.222c17.665,4.982,39.924,5.272,58.187,4.426c2.285-0.106,4.485-2.351,3.627-4.764   c-3.383-9.514,1.574-22.966,10.517-28.458c-6.455,17.392,6.084,34.641,22.772,39.248c16.666,4.604,31.862-7.721,34.053-24.002   C194.969,108.498,181.521,97.048,166.459,93.844z M22.112,144.428c-22.252-4.621-10.225-39.135,5.662-43.767   c0.208,0.181,0.402,0.37,0.666,0.514c5.048,2.761,10.177,3.129,14.371,7.534c2.486,2.611,3.706,6.092,4.221,9.679   c-2.065,0.173-4.135,0.303-6.201,0.349c-2.416,0.055-4.972-0.938-7.279-0.088c-0.84,0.311-1.369,1.084-1.134,1.997   c1.307,5.085,9.719,4.882,13.809,4.896c0.342,0.001,0.692-0.026,1.035-0.029C46.377,139.143,35.092,147.124,22.112,144.428z    M117.071,135.902c-15.415-0.224-32.865-4.342-47.854-1.484c6.439-7.384,6.464-20.207,4.547-29.382   c-4.25-20.344-28.193-19.23-42.123-27.958c-3.478-2.179-6.413-4.385-10.1-6.276c-1.121-7.218,1.249-8.616,7.11-4.195   c1.988,0.945,3.933,1.972,5.833,3.084c8.871,4.954,19.046,13.7,29.921,13.489c11.891-0.231,30.556-15.068,40.877-8.98   c6.175,3.643,17.728-5.09,21.844-0.834c1.894,1.96,4.539,0.37,4.955-1.684c1.56-1.598,1.967-3.844,1.45-6.197   c-0.654-2.98-3.475-5.125-3.432-8.277c0.039-2.964,1.176-3.36,3.816-2.487c2.537,0.838,4.48,3.111,7.211,3.362   c0.383,0.035,0.696-0.1,0.969-0.294c0.605,0.425,1.403,0.482,2.034-0.271c3.765-4.488,0.418-9.47,0.162-14.421   c0.017,0.002,0.022,0.003,0.041,0.005c0.92,0.125,1.824,0.464,2.7,0.753c2.339,0.774,4.174,2.375,5.111,4.671   c1.75,4.285-0.502,7.79-2.527,11.38c-1.126,1.997,1.154,4.618,3.227,3.353c3.53,2.498,7.277,4.692,10.496,7.602   c6.902,6.242-1.123,14.569-2.344,21.533c-6.828-2.903-14.775,2.648-20.061,9.232c-0.478-0.125-0.996-0.168-1.574-0.051   C125.51,104.393,115.379,121.813,117.071,135.902z M164.995,140.368c-12.458,0.314-21.19-11.332-21.14-22.818   c0.033-7.449,7.082-16.725,14.742-17.903c0.485,0.751,1.172,1.382,2.137,1.69c9.918,3.161,19.43,5.931,22.259,17.303   C185.84,130.082,175.655,140.098,164.995,140.368z" transform="matrix(0.3627995550632477 0 0 0.3627995550632477 315 140)" id="L1_192"/><g transform="matrix(0.3518709003449173 -0.09428352358743264 0.09428352358743264 0.3518709003449173 132.1469637604243 150.29270967578663)" id="L1_193"><path d="M185.708,0.007c-26.307-0.333-51.778,11.092-73.732,24.688c-10.955,6.785-20.805,15.06-29.638,24.41   c-6.036,6.389-15.205,14.923-16.731,23.919c-0.003,0.017,0.002,0.03,0,0.047c-11.793-1.911-25.211,2.141-36.856,4.254   c-0.652-0.121-1.316-0.003-1.902,0.42c-0.266,0.115-0.471,0.278-0.589,0.494c-5.653,5.859-10.941,13.784-14.227,21.178   c-0.282,0.635-0.221,1.266,0.017,1.798c-0.459,0.636-0.325,1.776,0.602,1.979c9.117,1.987,18.043,4.815,27.113,6.972   c-7.956,6.628-6.661,16.907-0.074,24.86c7.206,8.699,20.846,13.209,31.292,8.177c-0.11,8.72,3.137,18.45,6.76,26.009   c0.83,1.731,2.92,1.358,3.877,0.123c4.223-0.235,7.573-2.953,10.955-5.448c5.192-3.832,11.879-5.557,16.669-9.879   c1.265-1.142,0.717-3.166-0.527-4.002c-0.001-4.31-0.508-8.613-1.153-12.878c-0.659-4.36-0.698-9.64-2.58-13.754   c50.325-18.601,73.88-66.19,81.742-117.235C189.733,5.055,189.443,0.055,185.708,0.007z M101.851,120.547   c-1.016-0.041-1.99,0.444-2.282,1.569c-0.171,0.335-0.223,0.706-0.158,1.077c-0.469,4.465,1.23,8.891,2.204,13.268   c1.046,4.707,2.05,9.439,3.556,14.019c-3.957,1.771-7.731,4.233-11.406,6.468c-4.152,2.523-7.305,7.807-12.039,9.358   c-2.478-8.657-6.858-16.812-7.517-25.951c-0.099-1.366-1.377-1.763-2.265-1.278c-0.605-0.871-1.6-1.409-2.769-0.934   c-8.433,3.433-17.068,0.634-23.593-5.366c-6.814-6.268-7.069-14.44-1.926-21.689l0.005,0.001c2.565,0.54,3.578-3.101,1.081-3.921   c-9.307-3.054-19.13-4.856-28.877-6.018c5.699-5.761,10.074-13.428,14.84-19.919c0.104-0.141,0.127-0.284,0.195-0.427   c11.843,0.607,25.217-0.25,36.44-3.068c1.296-0.325,1.827-1.689,1.562-2.827c0.115-0.111,0.236-0.206,0.336-0.352   c25.175-36.722,66.731-64.062,111.519-67.784c-3.536,23.957-10.938,46.325-23.271,67.307   C145.214,94.957,122.533,109.423,101.851,120.547z"/><path d="M148.015,45.587c-0.39-3.454-1.938-6.876-4.755-9.01c-2.307-1.747-6.102-2.817-8.94-1.686   c-15.742-2.207-18.466,28.192,0.398,27.416C143.206,61.958,148.926,53.647,148.015,45.587z M134.718,56.34   c-5.336,0.653-7.682-3.426-7.407-8.183c0.201-3.48,2.37-6.973,5.343-9.032c0.215,0.186,0.436,0.37,0.715,0.486   c2.193,0.909,4.419,0.033,6.551,1.378c1.693,1.069,2.155,3.5,2.241,5.321C142.384,51.003,139.665,55.735,134.718,56.34z"/><path d="M45.965,158.614c-0.947,5.458-2.778,10.062-6.927,13.202c-1.39-5.635-3.541-10.526-7.182-15.404   c-1.56-2.09-4.747-1.428-4.921,1.333c-0.724,11.484-3.491,20.662-12.631,27.193c-1.92-10.072,2.128-20.075,1.384-30.355   c-0.112-1.552-1.154-2.612-2.714-2.714c-1.198-0.126-2.398-0.19-3.599-0.209c1.138-11.031,6.411-18.588,15.236-25.758   c1.055-0.858-0.075-2.726-1.326-2.278c-13.65,4.87-19.283,17.157-19.894,30.96c-0.066,1.484,1.355,2.967,2.865,2.865   c1.318-0.154,2.637-0.212,3.957-0.219c-0.5,11.395-4.765,22.539-0.047,33.549c0.584,1.362,2.66,1.752,3.825,1.003   c10.35-6.657,15.049-15.014,17.126-25.749c1.51,3.469,2.557,7.075,3.207,11.053c0.328,2.006,2.693,2.377,4.21,1.713   c7.935-3.473,12.538-10.868,12.695-19.471C51.284,156.36,46.49,155.592,45.965,158.614z"/></g></defs><g fi:class="KUsePattern" opacity="0.31"><pattern id="pattern_L1_184" width="350" height="350" patternUnits="userSpaceOnUse"><use xlink:href="#L1_184" x="-350" y="-350"/><use xlink:href="#L1_184" x="0" y="-350"/><use xlink:href="#L1_184" x="350" y="-350"/><use xlink:href="#L1_184" x="-350" y="0"/><use xlink:href="#L1_184" x="0" y="0"/><use xlink:href="#L1_184" x="350" y="0"/><use xlink:href="#L1_184" x="-350" y="350"/><use xlink:href="#L1_184" x="0" y="350"/><use xlink:href="#L1_184" x="350" y="350"/></pattern><rect x="0" y="0" width="100%" height="100%" fill="url(#pattern_L1_184)"/></g><g fi:class="KUsePattern"><pattern id="pattern_L1_185" width="350" height="350" patternUnits="userSpaceOnUse"><use xlink:href="#L1_185" x="-350" y="-350"/><use xlink:href="#L1_185" x="0" y="-350"/><use xlink:href="#L1_185" x="350" y="-350"/><use xlink:href="#L1_185" x="-350" y="0"/><use xlink:href="#L1_185" x="0" y="0"/><use xlink:href="#L1_185" x="350" y="0"/><use xlink:href="#L1_185" x="-350" y="350"/><use xlink:href="#L1_185" x="0" y="350"/><use xlink:href="#L1_185" x="350" y="350"/></pattern><rect x="0" y="0" width="100%" height="100%" fill="url(#pattern_L1_185)"/></g><g fi:class="KUsePattern"><pattern id="pattern_L1_186" width="350" height="350" patternUnits="userSpaceOnUse"><use xlink:href="#L1_186" x="-350" y="-350"/><use xlink:href="#L1_186" x="0" y="-350"/><use xlink:href="#L1_186" x="350" y="-350"/><use xlink:href="#L1_186" x="-350" y="0"/><use xlink:href="#L1_186" x="0" y="0"/><use xlink:href="#L1_186" x="350" y="0"/><use xlink:href="#L1_186" x="-350" y="350"/><use xlink:href="#L1_186" x="0" y="350"/><use xlink:href="#L1_186" x="350" y="350"/></pattern><rect x="0" y="0" width="100%" height="100%" fill="url(#pattern_L1_186)"/></g><g fi:class="KUsePattern"><pattern id="pattern_L1_187" width="350" height="350" patternUnits="userSpaceOnUse"><use xlink:href="#L1_187" x="-350" y="-350"/><use xlink:href="#L1_187" x="0" y="-350"/><use xlink:href="#L1_187" x="350" y="-350"/><use xlink:href="#L1_187" x="-350" y="0"/><use xlink:href="#L1_187" x="0" y="0"/><use xlink:href="#L1_187" x="350" y="0"/><use xlink:href="#L1_187" x="-350" y="350"/><use xlink:href="#L1_187" x="0" y="350"/><use xlink:href="#L1_187" x="350" y="350"/></pattern><rect x="0" y="0" width="100%" height="100%" fill="url(#pattern_L1_187)"/></g><g fi:class="KUsePattern"><pattern id="pattern_L1_188" width="350" height="350" patternUnits="userSpaceOnUse"><use xlink:href="#L1_188" x="-350" y="-350"/><use xlink:href="#L1_188" x="0" y="-350"/><use xlink:href="#L1_188" x="350" y="-350"/><use xlink:href="#L1_188" x="-350" y="0"/><use xlink:href="#L1_188" x="0" y="0"/><use xlink:href="#L1_188" x="350" y="0"/><use xlink:href="#L1_188" x="-350" y="350"/><use xlink:href="#L1_188" x="0" y="350"/><use xlink:href="#L1_188" x="350" y="350"/></pattern><rect x="0" y="0" width="100%" height="100%" fill="url(#pattern_L1_188)"/></g><g fi:class="KUsePattern"><pattern id="pattern_L1_189" width="350" height="350" patternUnits="userSpaceOnUse"><use xlink:href="#L1_189" x="-350" y="-350"/><use xlink:href="#L1_189" x="0" y="-350"/><use xlink:href="#L1_189" x="350" y="-350"/><use xlink:href="#L1_189" x="-350" y="0"/><use xlink:href="#L1_189" x="0" y="0"/><use xlink:href="#L1_189" x="350" y="0"/><use xlink:href="#L1_189" x="-350" y="350"/><use xlink:href="#L1_189" x="0" y="350"/><use xlink:href="#L1_189" x="350" y="350"/></pattern><rect x="0" y="0" width="100%" height="100%" fill="url(#pattern_L1_189)"/></g><g fi:class="KUsePattern" opacity="0.44"><pattern id="pattern_L1_190" width="350" height="350" patternUnits="userSpaceOnUse"><use xlink:href="#L1_190" x="-350" y="-350"/><use xlink:href="#L1_190" x="0" y="-350"/><use xlink:href="#L1_190" x="350" y="-350"/><use xlink:href="#L1_190" x="-350" y="0"/><use xlink:href="#L1_190" x="0" y="0"/><use xlink:href="#L1_190" x="350" y="0"/><use xlink:href="#L1_190" x="-350" y="350"/><use xlink:href="#L1_190" x="0" y="350"/><use xlink:href="#L1_190" x="350" y="350"/></pattern><rect x="0" y="0" width="100%" height="100%" fill="url(#pattern_L1_190)"/></g><g fi:class="KUsePattern"><pattern id="pattern_L1_191" width="350" height="350" patternUnits="userSpaceOnUse"><use xlink:href="#L1_191" x="-350" y="-350"/><use xlink:href="#L1_191" x="0" y="-350"/><use xlink:href="#L1_191" x="350" y="-350"/><use xlink:href="#L1_191" x="-350" y="0"/><use xlink:href="#L1_191" x="0" y="0"/><use xlink:href="#L1_191" x="350" y="0"/><use xlink:href="#L1_191" x="-350" y="350"/><use xlink:href="#L1_191" x="0" y="350"/><use xlink:href="#L1_191" x="350" y="350"/></pattern><rect x="0" y="0" width="100%" height="100%" fill="url(#pattern_L1_191)"/></g><g fi:class="KUsePattern"><pattern id="pattern_L1_192" width="350" height="350" patternUnits="userSpaceOnUse"><use xlink:href="#L1_192" x="-350" y="-350"/><use xlink:href="#L1_192" x="0" y="-350"/><use xlink:href="#L1_192" x="350" y="-350"/><use xlink:href="#L1_192" x="-350" y="0"/><use xlink:href="#L1_192" x="0" y="0"/><use xlink:href="#L1_192" x="350" y="0"/><use xlink:href="#L1_192" x="-350" y="350"/><use xlink:href="#L1_192" x="0" y="350"/><use xlink:href="#L1_192" x="350" y="350"/></pattern><rect x="0" y="0" width="100%" height="100%" fill="url(#pattern_L1_192)"/></g><g fi:class="KUsePattern"><pattern id="pattern_L1_193" width="350" height="350" patternUnits="userSpaceOnUse"><use xlink:href="#L1_193" x="-350" y="-350"/><use xlink:href="#L1_193" x="0" y="-350"/><use xlink:href="#L1_193" x="350" y="-350"/><use xlink:href="#L1_193" x="-350" y="0"/><use xlink:href="#L1_193" x="0" y="0"/><use xlink:href="#L1_193" x="350" y="0"/><use xlink:href="#L1_193" x="-350" y="350"/><use xlink:href="#L1_193" x="0" y="350"/><use xlink:href="#L1_193" x="350" y="350"/></pattern><rect x="0" y="0" width="100%" height="100%" fill="url(#pattern_L1_193)"/></g></svg>