<svg xmlns="http://www.w3.org/2000/svg" xmlns:xlink="http://www.w3.org/1999/xlink" xmlns:fi="http://pattern.flaticon.com/" x="0" y="0" width="700" height="350" viewBox="0 0 700 350"><rect x="0px" y="0px" width="100%" height="100%" opacity="0.75" fill="#4caf50"/><defs><g transform="matrix(0.04032257944345474 0 0 0.04032257944345474 77.5 340)" id="L1_0"><path d="m441.367188 0c-8.175782 0-15.871094 3.183594-21.65625 8.976562l-143.023438 143.023438h-35.101562l-17.394532 78.265625 15.617188 3.46875 14.605468-65.734375h19.171876l14.605468 65.734375 15.617188-3.46875-3.410156-15.355469 155.601562-155.597656v68.6875h16v-97.367188c0-16.898437-13.734375-30.632812-30.632812-30.632812zm-145.078126 196.398438-7.519531-33.855469 142.253907-142.253907c2.769531-2.769531 6.441406-4.289062 10.34375-4.289062 8.074218 0 14.632812 6.558594 14.632812 14.632812v6.054688zm0 0"/><path d="m208 224h112v56h-112zm0 0" fill="#f0bc5e"/><path d="m181.207031 368h165.578125v16h-165.578125zm0 0"/><path d="m192 272v-104c0-22.054688-17.945312-40-40-40h-77.769531c-19 0-35.496094 13.519531-39.222657 32.152344l-10.207031 51.03125-6.984375 4.65625c-11.152344 7.441406-17.816406 19.878906-17.816406 33.289062v110.871094c0 13.230469 10.769531 24 24 24h66.785156v-16h-66.785156c-4.40625 0-8-3.59375-8-8v-8h74.726562v-16h-26.726562v-104h65.886719l16-8h30.113281v32h-32v16h32v72h5.207031v8h165.578125v-16h-154.785156v-48h288v48h-42.792969v16h42.792969v8c0 4.40625-3.59375 8-8 8h-34.792969v16h34.792969c13.230469 0 24-10.769531 24-24v-88zm-176 64v-86.871094c0-8.039062 4-15.503906 10.6875-19.96875l12.503906-8.335937 11.503906-57.519531c2.242188-11.191407 12.136719-19.304688 23.535157-19.304688h77.769531c10.414062 0 19.214844 6.710938 22.527344 16h-96.496094c-7.101562 0-13.429688 4.777344-15.382812 11.601562l-14.34375 50.199219-.28125 114.199219zm126.113281-128-16 8h-59.503906l11.429687-40h97.960938v32zm0 0"/><path d="m136 416c-30.878906 0-56-25.121094-56-56s25.121094-56 56-56 56 25.121094 56 56-25.121094 56-56 56zm0-72c-8.824219 0-16 7.175781-16 16s7.175781 16 16 16 16-7.175781 16-16-7.175781-16-16-16zm0 0" fill="#f0bc5e"/><path d="m136 384c-13.230469 0-24-10.769531-24-24s10.769531-24 24-24 24 10.769531 24 24-10.769531 24-24 24zm0-32c-4.40625 0-8 3.59375-8 8s3.59375 8 8 8 8-3.59375 8-8-3.59375-8-8-8zm0 0"/><path d="m392 416c-30.878906 0-56-25.121094-56-56s25.121094-56 56-56 56 25.121094 56 56-25.121094 56-56 56zm0-72c-8.824219 0-16 7.175781-16 16s7.175781 16 16 16 16-7.175781 16-16-7.175781-16-16-16zm0 0" fill="#f0bc5e"/><path d="m392 384c-13.230469 0-24-10.769531-24-24s10.769531-24 24-24 24 10.769531 24 24-10.769531 24-24 24zm0-32c-4.40625 0-8 3.59375-8 8s3.59375 8 8 8 8-3.59375 8-8-3.59375-8-8-8zm0 0"/><path d="m457.367188 256h-2.742188c-16.890625 0-30.625-13.734375-30.625-30.632812v-9.367188h16v9.367188c0 8.074218 6.558594 14.632812 14.632812 14.632812h2.742188c8.066406 0 14.625-6.558594 14.625-14.632812 0-3.902344-1.519531-7.574219-4.289062-10.34375l-11.710938-11.710938v-27.3125h16v20.6875l7.023438 7.023438c5.792968 5.792968 8.976562 13.480468 8.976562 21.65625 0 16.898437-13.734375 30.632812-30.632812 30.632812zm0 0"/><path d="m464 184c-17.648438 0-32-14.351562-32-32s14.351562-32 32-32 32 14.351562 32 32-14.351562 32-32 32zm0 0" fill="#f0bc5e"/><path d="m208 304h16v16h-16zm0 0"/><path d="m240 304h16v16h-16zm0 0"/><path d="m272 304h16v16h-16zm0 0"/></g><g transform="matrix(0.17526880469667763 0.04696313467684293 -0.04696313467684293 0.17526880469667763 -34.40027776451282 294.16453780587824)" id="L1_1"><path d="m80 0h400c4.414062 0 8 3.585938 8 8v16c0 4.414062-3.585938 8-8 8h-400c-4.414062 0-8-3.585938-8-8v-16c0-4.414062 3.585938-8 8-8zm0 0" fill="#f0bc5e"/><path d="m128.96875 120c-9.367188 0-16.96875 7.601562-16.96875 16.96875 0 4.503906 1.785156 8.816406 4.96875 12l30.054688 30.054688c3.183593 3.183593 7.496093 4.96875 12 4.96875 9.375.007812 16.976562-7.59375 16.976562-16.960938 0-4.503906-1.785156-8.816406-4.96875-12l-30.054688-30.054688c-3.191406-3.191406-7.503906-4.976562-12.007812-4.976562zm0 0" fill="#f0bc5e"/><path d="m480 241.367188v-153.367188c0-30.878906-25.128906-56-56-56h-292.089844c-24.671875 0-46.757812 16.527344-53.71875 40.199219l-24.367187 82.871093c-3.863281 13.128907-5.824219 26.722657-5.824219 40.394532 0 7.605468.609375 15.183594 1.808594 22.65625-28.695313 6.304687-49.808594 32.117187-49.808594 61.878906v8h315.3125l32-32h124.6875c4.414062 0 8 3.585938 8 8v48c0 4.414062-3.585938 8-8 8h-32v16h32c13.230469 0 24-10.769531 24-24v-48c0-10.433594-6.6875-19.328125-16-22.632812zm-16-153.367188v104h-40v-88c0-13.230469 10.769531-24 24-24h15.191406c.527344 2.585938.808594 5.265625.808594 8zm-371.425781-8h171.425781c10.414062 0 19.214844 6.710938 22.527344 16h-22.527344c-22.054688 0-40 17.945312-40 40v88h-8c-22.054688 0-40 17.945312-40 40v8h-48v-40c0-14.601562-5.664062-27.863281-14.847656-37.839844l24.503906-24.503906-11.3125-11.3125-25.65625 25.65625c-8.398438-5.039062-18.199219-8-28.6875-8h-6.457031c.855469-5.535156 2.042969-11.023438 3.625-16.414062zm195.425781 144h-48v-88c0-13.230469 10.769531-24 24-24h24zm0 16v32h-96v-8c0-13.230469 10.769531-24 24-24zm-271.3125 32c3.25-18.742188 17.710938-34.121094 36.527344-38.246094 3.273437 11.804688 8.066406 23.183594 14.28125 33.839844l2.574218 4.40625zm64.632812-12.472656c-11.335937-19.421875-17.320312-41.574219-17.320312-64.0625 0-1.160156.097656-2.3125.128906-3.464844h7.871094c22.054688 0 40 17.945312 40 40v40h-23.40625zm259.367188-19.527344-32 32h-4.6875v-168c0-22.054688-17.945312-40-40-40h-163.9375c7.433594-9.785156 19.121094-16 31.847656-16h292.089844c13.015625 0 24.488281 6.34375 31.792969 16h-7.792969c-22.054688 0-40 17.945312-40 40v88h-16c-22.054688 0-40 17.945312-40 40v8zm27.3125 0v-8c0-13.230469 10.769531-24 24-24h72v32zm0 0"/><path d="m120 320h224v16h-224zm0 0"/><path d="m392 384c-30.871094 0-56-25.128906-56-56s25.128906-56 56-56 56 25.128906 56 56-25.128906 56-56 56zm0-72c-8.824219 0-16 7.175781-16 16s7.175781 16 16 16 16-7.175781 16-16-7.175781-16-16-16zm0 0" fill="#f0bc5e"/><path d="m72 384c-30.871094 0-56-25.128906-56-56s25.128906-56 56-56 56 25.128906 56 56-25.128906 56-56 56zm0-72c-8.824219 0-16 7.175781-16 16s7.175781 16 16 16 16-7.175781 16-16-7.175781-16-16-16zm0 0" fill="#f0bc5e"/><path d="m392 352c-13.230469 0-24-10.769531-24-24s10.769531-24 24-24 24 10.769531 24 24-10.769531 24-24 24zm0-32c-4.414062 0-8 3.585938-8 8s3.585938 8 8 8 8-3.585938 8-8-3.585938-8-8-8zm0 0"/><path d="m72 352c-13.230469 0-24-10.769531-24-24s10.769531-24 24-24 24 10.769531 24 24-10.769531 24-24 24zm0-32c-4.414062 0-8 3.585938-8 8s3.585938 8 8 8 8-3.585938 8-8-3.585938-8-8-8zm0 0"/></g><g transform="matrix(0.04032257944345474 0 0 0.04032257944345474 252.5 340)" id="L1_2"><g fill="#f0bc5e"><path d="m440 352c-13.230469 0-24-10.769531-24-24s10.769531-24 24-24 24 10.769531 24 24-10.769531 24-24 24zm0 0"/><path d="m376 352c-13.230469 0-24-10.769531-24-24s10.769531-24 24-24 24 10.769531 24 24-10.769531 24-24 24zm0 0"/><path d="m216 56c-9.769531 0-18.128906-5.855469-21.878906-14.222656h-2.121094v302.238281l48-.070313v-302.167968h-2.121094c-3.75 8.367187-12.109375 14.222656-21.878906 14.222656zm0 0"/></g><path d="m464 408v-8h-16v8c0 22.054688-17.945312 40-40 40h-79.878906v16h79.878906c30.871094 0 56-25.128906 56-56zm0 0"/><path d="m314.558594 72.496094-5.125 15.160156c5.085937 1.71875 10.117187 3.832031 14.957031 6.273438l7.203125-14.28125c-5.496094-2.792969-11.234375-5.191407-17.035156-7.152344zm0 0"/><path d="m370.847656 189.328125c8.738282-9.777344 17.183594-20.167969 24.449219-30.054687l2.550781-3.488282-1.511718-4.058594c-10.472657-28.007812-30.441407-51.941406-56.214844-67.40625l-8.234375 13.71875c21.457031 12.863282 38.320312 32.386719 47.882812 55.289063-6.335937 8.40625-13.488281 17.097656-20.847656 25.335937zm0 0"/><path d="m61.613281 235.042969 12.117188-15.28125 12.53125 9.9375-12.121094 15.28125zm0 0"/><path d="m80.644531 211.039062 57.089844-71.980468 12.527344 9.9375-57.089844 71.980468zm0 0"/><path d="m192 286.9375-174.664062-21.839844 171.542968-216.296875c5.65625 9.085938 15.648438 15.199219 27.121094 15.199219 14.34375 0 26.359375-9.535156 30.414062-22.558594l54.984376 11c54.777343 10.957032 99.144531 52.40625 113.945312 106.09375-12.648438 18.367188-85.199219 118.433594-169.679688 128.578125 14.863282-13.800781 42.335938-46.890625 42.335938-103.113281 0-55.710938-31.382812-105.910156-48-128.59375v29.152344c7.289062 12.050781 15.070312 26.898437 21.144531 43.441406h-21.144531v16h26.273438c2.804687 10.296875 4.695312 21.03125 5.351562 32h-31.625v16h31.679688c-.640626 11.945312-2.625 22.59375-5.472657 32h-26.207031v16h20.128906c-6.226562 13.40625-13.816406 23.328125-20.128906 30.121094v33.574218c103.457031-6.375 187.121094-133.785156 190.71875-139.351562l1.882812-2.910156-.839843-3.371094c-15.320313-61.300781-65.257813-108.917969-127.21875-121.308594l-57.269531-11.457031c-3.097657-14.433594-15.929688-25.296875-31.273438-25.296875-16.558594 0-30.046875 12.679688-31.679688 28.808594l-182.585937 230.222656-1.734375 2.175781v17.847657l192 24zm24-270.9375c8.824219 0 16 7.175781 16 16s-7.175781 16-16 16-16-7.175781-16-16 7.175781-16 16-16zm0 0"/><path d="m456 272h-116.441406l-2.34375 3.761719c-23.574219 37.71875-64.207032 60.238281-108.6875 60.238281h-121.085938c-25.167968 0-48.609375-11.265625-64.328125-30.910156-4.625-5.777344-11.511719-9.089844-18.90625-9.089844-13.351562 0-24.207031 10.855469-24.207031 24.207031v1.921875c0 5.65625 1.992188 11.160156 5.609375 15.503906 10.65625 12.78125 23.480469 23.199219 37.71875 30.894532l8.449219 16.914062c34.085937 68.199219 102.636718 110.558594 178.886718 110.558594h177.335938c48.519531 0 88-39.480469 88-88v-96c0-22.054688-17.945312-40-40-40zm-438.105469 55.382812c-1.222656-1.472656-1.894531-3.335937-1.894531-5.246093v-1.921875c0-4.535156 3.679688-8.214844 8.207031-8.214844 2.503907 0 4.839844 1.128906 6.410157 3.089844 5.734374 7.167968 12.40625 13.269531 19.664062 18.46875l-11.136719 13.363281c-7.777343-5.5625-14.976562-12.019531-21.25-19.539063zm462.105469 80.617188c0 39.703125-32.296875 72-72 72h-177.335938c-70.152343 0-133.207031-38.976562-164.574218-101.710938l-.097656-.175781c12.351562 3.863281 25.351562 5.886719 38.625 5.886719h375.382812zm0-40h-375.382812c-18.265626 0-35.875-4.511719-51.65625-12.648438l11.152343-13.382812c13.285157 6.511719 28.03125 10.03125 43.328125 10.03125h121.09375c48.535156 0 93-23.832031 119.824219-64h107.640625c13.230469 0 24 10.769531 24 24zm0 0"/><path d="m296 448h16v16h-16zm0 0"/><path d="m264 448h16v16h-16zm0 0"/></g><g transform="matrix(0.08064515888690948 0 0 0.08064515888690948 155 330)" id="L1_3"><path d="m208 312c21.441406 0 40.441406 14.433594 46.191406 35.105469l1.953125 7.03125 7.175781-1.3125c3.070313-.550781 5.902344-.824219 8.679688-.824219 4.375 0 8.59375.640625 12.617188 1.734375 7.109374-9.382813 11.382812-21.046875 11.382812-33.734375 0-30.929688-25.070312-56-56-56-30.398438 0-55.089844 24.238281-55.921875 54.449219 7.050781-4.082031 15.210937-6.449219 23.921875-6.449219zm0 0" fill="#f0bc5e"/><path d="m116.34375 389.425781c6.886719 7.46875 15 13.542969 24.121094 18.039063l7.078125-14.34375c-7.34375-3.632813-13.878907-8.519532-19.429688-14.546875zm0 0"/><path d="m121.617188 370.320312c-12.648438-18.984374-14.746094-42.792968-5.601563-63.695312l3.242187-7.425781-14.65625-6.398438-3.242187 7.414063c-11.34375 25.914062-8.742187 55.441406 6.960937 79.007812l.878907 1.304688 13.199219-9.046875zm0 0"/><path d="m440 240v-184h-16v184h-16v-184h-16v184h-18.984375c-35.847656 0-69.535156 13.824219-95.105469 38.871094 3.9375 3.632812 7.335938 7.808594 10.105469 12.425781l.144531-.144531c22.671875-22.664063 52.808594-35.152344 84.855469-35.152344h106.417969c-3.890625 27.105469-27.265625 48-55.433594 48h-88v16h88c2.503906 0 4.976562-.128906 7.414062-.382812-3.734374 27.277343-27.125 48.382812-55.414062 48.382812h-58.113281c-10.132813-14.488281-26.910157-24-45.886719-24-3.449219 0-6.808594.359375-10.089844.960938-6.597656-23.882813-28.351562-40.960938-53.910156-40.960938-8.023438 0-15.648438 1.726562-22.550781 4.785156 2.183593-10.695312 7.214843-20.34375 14.550781-27.863281v-224.921875h-16v253.480469c-5.414062 2.582031-10.351562 5.984375-14.640625 10.085937-1.792969-2.765625-3.4375-5.628906-4.917969-8.582031-7.96875-15.9375-10.9375-33.703125-8.585937-51.367187l11.65625-87.402344c.183593-1.398438.199219-2.808594.28125-4.214844h.207031v-112h-16v56.886719c-10.175781-10.40625-24.335938-16.886719-40-16.886719h-16c-39.375 0-71.425781 31.785156-71.953125 71.03125l-6.359375 3.183594c-10.902344 5.449218-17.6875 16.417968-17.6875 28.617187v17.167969h19.648438c10.085937 0 19.589843-4.816406 25.617187-12.878906 5.613281 3.015625 11.925781 4.878906 18.734375 4.878906h40v6.328125l-31.960938 73.054687c-15.726562 35.953126-12.128906 76.90625 9.640626 109.5625 21.3125 31.964844 56.976562 51.054688 95.398437 51.054688h150.921875c38.390625 0 69.777344-30.230469 71.800781-68.128906 26.855469-9.445313 46.40625-34.34375 48-64 28.023438-9.863282 48.199219-36.519532 48.199219-67.871094v-8zm-128 160c0 12.6875-6.023438 24.457031-16.121094 32h-47.757812c-10.097656-7.550781-16.121094-19.335938-16.121094-32 0-22.054688 17.945312-40 40-40s40 17.945312 40 40zm-104-80c18.558594 0 34.214844 12.648438 38.640625 30.136719-17.90625 9.144531-30.257813 27.605469-30.601563 48.96875-2.632812.542969-5.3125.894531-8.039062.894531-22.054688 0-40-17.945312-40-40s17.945312-40 40-40zm-188.351562-120h-3.648438v-1.167969c0-6.097656 3.390625-11.585937 8.839844-14.3125l2.257812-1.128906c1.453125 3.480469 3.519532 6.609375 5.855469 9.511719l-.28125.394531c-3 4.199219-7.863281 6.703125-13.023437 6.703125zm75.34375 188.0625c-18.726563-28.09375-21.832032-63.335938-8.296876-94.269531l33.304688-76.121094v-25.671875h-56c-13.230469 0-24-10.769531-24-24 0-30.878906 25.128906-56 56-56h16c22.054688 0 40 17.945312 40 40v12.816406c0 1.769532-.121094 3.527344-.351562 5.289063l-11.65625 87.40625c-2.785157 20.855469.726562 41.824219 10.136718 60.648437 2.566406 5.121094 5.671875 9.9375 9.023438 14.550782-4.535156 8.074218-7.152344 17.378906-7.152344 27.289062 0 30.878906 25.128906 56 56 56 3.425781 0 6.800781-.34375 10.128906-.953125 1.695313 6.066406 4.335938 11.808594 7.917969 16.953125h-48.96875c-33.0625 0-63.742187-16.425781-82.085937-43.9375zm233.007812 43.9375h-10.046875c6.445313-9.257812 10.046875-20.359375 10.046875-32 0-5.558594-.839844-10.929688-2.359375-16h50.359375c2.503906 0 4.976562-.128906 7.414062-.382812-3.734374 27.277343-27.125 48.382812-55.414062 48.382812zm0 0"/><path d="m88 144c0 4.417969-3.582031 8-8 8s-8-3.582031-8-8 3.582031-8 8-8 8 3.582031 8 8zm0 0"/><g fill="#f0bc5e"><path d="m336 496h-176c-30.871094 0-56-25.121094-56-56v-8h288v8c0 30.878906-25.128906 56-56 56zm0 0"/><path d="m472 64h-352v-24c0-22.054688 17.945312-40 40-40h272c22.054688 0 40 17.945312 40 40zm0 0"/></g></g><g transform="matrix(0.18231336772441864 0 0 0.18231336772441864 217.5 217.5)" id="L1_4"><path d="m430.097656 269.769531 55.765625-37.183593-26.625-21.304688c-15.542969-12.433594-35.070312-19.28125-54.972656-19.28125h-51.9375zm0 0" fill="#f0bc5e"/><path d="m192.328125 352v51.9375c0 19.902344 6.847656 39.429688 19.28125 54.972656l21.300781 26.625 37.1875-55.765625zm0 0" fill="#f0bc5e"/><path d="m466.664062 477.65625 11.316407-11.3125 15.996093 16-11.3125 11.3125zm0 0"/><path d="m378.667969 389.65625 11.3125-11.3125 79.996093 80-11.3125 11.3125zm0 0"/><path d="m466.664062 437.65625 11.316407-11.3125 15.996093 16-11.3125 11.3125zm0 0"/><path d="m402.664062 373.65625 11.3125-11.3125 55.996094 55.996094-11.3125 11.3125zm0 0"/><path d="m426.664062 477.65625 11.316407-11.3125 15.996093 16-11.3125 11.3125zm0 0"/><path d="m362.664062 413.65625 11.3125-11.3125 55.996094 55.996094-11.3125 11.3125zm0 0"/><path d="m159.984375 211.65625-69.328125-77.984375 43.335938-43.335937 77.984374 69.328124zm0 0" fill="#f0bc5e"/><path d="m332.609375 160.96875c-16.105469-16.105469-37.503906-24.96875-60.28125-24.96875h-8v8c0 4.710938.472656 9.34375 1.214844 13.902344l-87.679688-87.679688c-45.289062-45.285156-105.488281-70.222656-169.535156-70.222656h-8v8c0 64.046875 24.9375 124.246094 70.222656 169.535156l87.671875 87.671875c-4.550781-.734375-9.183594-1.207031-13.894531-1.207031h-8v8c0 22.777344 8.863281 44.175781 24.96875 60.28125l127.03125 127.03125 43.3125-43.3125-23.257813-23.257812-11.3125 11.3125 11.945313 11.945312-20.6875 20.6875-100.6875-100.6875 20.6875-20.6875 53.976563 53.976562 11.3125-11.3125-191.753907-191.753906c-2.078125-2.078125-4.085937-4.222656-6.078125-6.367187l84.398438-84.398438c2.152344 1.992188 4.289062 4 6.367187 6.078125l191.761719 191.761719 11.3125-11.3125-53.984375-53.984375 20.6875-20.6875 100.6875 100.6875-20.6875 20.6875-11.945313-11.945312-11.3125 11.3125 23.257813 23.257812 43.3125-43.3125zm-156.28125 163.71875-3.71875-3.71875c-11.050781-11.058594-17.90625-25.175781-19.769531-40.457031 15.273437 1.855469 29.398437 8.71875 40.457031 19.769531l3.71875 3.71875zm-89.449219-294.550781-56.40625 56.40625c-8.351562-22.304688-13.136718-46.007813-14-70.398438 24.390625.863281 48.09375 5.648438 70.40625 13.992188zm-21.558594 117.558593c-11.25-14.015624-20.664062-29.183593-28.144531-45.230468l65.609375-65.609375c16.039063 7.480469 31.214844 16.898437 45.230469 28.144531zm239.007813 48.992188-3.71875-3.71875c-11.050781-11.058594-17.90625-25.175781-19.769531-40.457031 15.273437 1.855469 29.398437 8.71875 40.457031 19.769531l3.71875 3.71875zm0 0"/><path d="m366.097656 333.769531 55.765625-37.183593-26.625-21.304688c-15.542969-12.433594-35.070312-19.28125-54.972656-19.28125h-51.9375zm0 0" fill="#f0bc5e"/><path d="m256.328125 288v51.9375c0 19.902344 6.847656 39.429688 19.28125 54.972656l21.300781 26.625 37.1875-55.765625zm0 0" fill="#f0bc5e"/><path d="m268.609375 224.96875c-16.105469-16.105469-37.503906-24.96875-60.28125-24.96875h-8v8c0 22.777344 8.863281 44.175781 24.96875 60.28125l127.03125 127.03125 43.3125-43.3125zm-51.769531-8.457031c15.273437 1.855469 29.398437 8.71875 40.457031 19.769531l3.71875 3.71875-20.6875 20.6875-3.71875-3.71875c-11.050781-11.058594-17.90625-25.175781-19.769531-40.457031zm34.800781 55.488281 20.6875-20.6875 100.6875 100.6875-20.6875 20.6875zm0 0"/></g><g transform="matrix(0.10080645233392715 0 0 0.10080645233392715 62.5 237.5)" id="L1_5"><path d="m87.511719 488h-47.023438l-9-128h65.03125zm0 0" fill="#f0bc5e"/><path d="m472 208v-168h-16v168h-16v-168h-16v168h-96v-168h-16v168h-16v-168h-16v168h-4.222656c-15.25 0-28.960938 8.472656-35.777344 22.113281l-12.945312 25.886719h-43.054688c-22.054688 0-40 17.945312-40 40v8h-144v64h282.792969v-16h-266.792969v-32h292.96875v-16h-148.96875v-8c0-13.230469 10.769531-24 24-24h52.945312l17.367188-34.734375c4.085938-8.1875 12.3125-13.265625 21.464844-13.265625h196.222656c4.40625 0 8 3.59375 8 8v64c0 4.414062-3.59375 8-8 8h-13.007812v16h13.007812c13.230469 0 24-10.769531 24-24v-64c0-13.230469-10.769531-24-24-24zm0 0"/><path d="m384 496c-61.761719 0-112-50.238281-112-112s50.238281-112 112-112 112 50.238281 112 112-50.238281 112-112 112zm0-184c-39.703125 0-72 32.296875-72 72s32.296875 72 72 72 72-32.296875 72-72-32.296875-72-72-72zm0 0" fill="#f0bc5e"/><path d="m384 304c-44.113281 0-80 35.886719-80 80s35.886719 80 80 80 80-35.886719 80-80-35.886719-80-80-80zm0 96c-8.824219 0-16-7.175781-16-16s7.175781-16 16-16 16 7.175781 16 16-7.175781 16-16 16zm16.152344-43.464844c-2.527344-1.488281-5.25-2.640625-8.152344-3.398437v-32.585938c11.65625 1.464844 22.335938 6.074219 31.175781 12.953125zm-24.152344-3.398437c-2.902344.75-5.632812 1.902343-8.152344 3.398437l-23.023437-23.03125c8.847656-6.878906 19.519531-11.488281 31.175781-12.953125zm-19.464844 14.710937c-1.488281 2.527344-2.640625 5.25-3.398437 8.152344h-32.585938c1.464844-11.664062 6.074219-22.335938 12.953125-31.183594zm-3.398437 24.152344c.75 2.902344 1.902343 5.632812 3.398437 8.152344l-23.023437 23.03125c-6.878907-8.847656-11.488281-19.519532-12.953125-31.183594zm14.710937 19.464844c2.527344 1.488281 5.25 2.640625 8.152344 3.398437v32.585938c-11.65625-1.464844-22.335938-6.074219-31.175781-12.953125zm24.152344 3.398437c2.902344-.75 5.632812-1.902343 8.152344-3.398437l23.023437 23.03125c-8.847656 6.878906-19.519531 11.488281-31.175781 12.953125zm19.464844-14.710937c1.488281-2.527344 2.640625-5.25 3.398437-8.152344h32.585938c-1.464844 11.664062-6.074219 22.335938-12.953125 31.183594zm3.398437-24.152344c-.75-2.902344-1.902343-5.632812-3.398437-8.152344l23.023437-23.03125c6.878907 8.847656 11.488281 19.519532 12.953125 31.183594zm0 0"/><path d="m488 48h-256v-8c0-22.054688 17.945312-40 40-40h176c22.054688 0 40 17.945312 40 40zm0 0" fill="#f0bc5e"/><path d="m448 240h16v16h-16zm0 0"/><path d="m416 240h16v16h-16zm0 0"/><path d="m384 240h16v16h-16zm0 0"/></g><g transform="matrix(0.1411290317773819 0 0 0.1411290317773819 315 140)" id="L1_6"><path d="m282.761719 66.761719c-24.113281 12.269531-43.730469 31.886719-56 56l130.476562 130.476562c24.113281-12.269531 43.730469-31.886719 56-56zm0 0" fill="#f0bc5e"/><path d="m144 256h-104.839844l8.167969-81.59375c.808594-8.214844 7.65625-14.40625 15.910156-14.40625h64.761719c8.824219 0 16 7.175781 16 16zm0 0" fill="#f0bc5e"/><path d="m388.328125 142.433594 15.6875 3.132812 9.9375-49.679687-21.546875-21.542969-11.308594 11.3125 15.476563 15.488281zm0 0"/><path d="m419.320312 56-24.679687-24.679688-80.519531 16.105469c-54.007813 10.796875-95.890625 52.671875-106.6875 106.679688l-5.128906 25.628906c-5.761719-9.703125-15.382813-16.804687-26.839844-18.980469-2.351563-16.449218-15.113282-29.472656-31.457032-32.136718v-64.617188c0-8.824219 7.175782-16 16-16h16v-48h-16c-35.289062 0-64 28.710938-64 64v64h-37.414062c-19.1875 0-35.457031 14.351562-37.832031 33.390625l-20.464844 163.753906c-.191406 1.566407-.296875 3.144531-.296875 4.726563 0 21.023437 17.105469 38.128906 38.128906 38.128906h25.871094v-16h-25.871094c-10.066406 0-18.480468-6.792969-21.152344-16h59.28125v-16h-20.257812v-24c0-13.230469-10.769531-24-24-24h-8.9375l13.578125-108.625c1.382813-11.039062 10.824219-19.375 21.953125-19.375h79.277344c12.207031 0 22.128906 9.929688 22.128906 22.128906v153.871094h-12.265625v16h143.679687c-1.460937 5.160156-2.503906 10.496094-3.007812 16h-128.40625v16h168v-16h-23.527344c3.992188-35.945312 34.527344-64 71.527344-64s67.558594 28.046875 71.550781 64h-23.550781v16h40v-8c0-29.761719-14.886719-56.0625-37.558594-72h13.558594c22.054688 0 40-17.945312 40-40v-142.113281l16-32v-17.886719zm-387.320312 232c4.414062 0 8 3.59375 8 8v24h-22.9375l4-32zm80-224c0-26.472656 21.527344-48 48-48v16c-17.648438 0-32 14.351562-32 32v64h-16zm111.113281 93.246094c9.527344-47.652344 46.488281-84.605469 94.144531-94.132813l72.117188-14.425781 41.945312 41.945312-14.425781 72.128907c-9.527343 47.652343-46.488281 84.605469-94.140625 94.132812l-72.121094 14.425781-41.945312-41.945312zm-15.113281 94.074218 20.679688 20.679688h-20.679688zm-16-51.320312v72h-16v-94.527344c9.289062 3.3125 16 12.113282 16 22.527344zm105.710938 120h-121.710938v-32h149.558594c-11.695313 8.214844-21.277344 19.199219-27.847656 32zm142.289062-48h-8v-8c0-13.230469 10.769531-24 24-24h8v8c0 13.230469-10.769531 24-24 24zm24-169.886719v121.886719h-8c-22.054688 0-40 17.945312-40 40v8h-87.6875c52.824219-11.558594 93.632812-52.921875 104.273438-106.105469l16.109374-80.519531-13.375-13.375h43.734376zm0 0"/><path d="m312.964844 164.289062 11.3125-11.3125 11.316406 11.3125-11.316406 11.3125zm0 0"/><path d="m290.339844 141.65625 11.3125-11.3125 11.3125 11.3125-11.3125 11.3125zm0 0"/><path d="m335.597656 186.894531 11.3125-11.3125 10.742188 10.742188-11.316406 11.3125zm0 0"/><path d="m112 416c-30.871094 0-56-25.121094-56-56s25.128906-56 56-56 56 25.121094 56 56-25.128906 56-56 56zm0-72c-8.824219 0-16 7.175781-16 16s7.175781 16 16 16 16-7.175781 16-16-7.175781-16-16-16zm0 0" fill="#f0bc5e"/><path d="m376 416c-30.871094 0-56-25.121094-56-56s25.128906-56 56-56 56 25.121094 56 56-25.128906 56-56 56zm0-72c-8.824219 0-16 7.175781-16 16s7.175781 16 16 16 16-7.175781 16-16-7.175781-16-16-16zm0 0" fill="#f0bc5e"/><path d="m112 384c-13.230469 0-24-10.769531-24-24s10.769531-24 24-24 24 10.769531 24 24-10.769531 24-24 24zm0-32c-4.414062 0-8 3.59375-8 8s3.585938 8 8 8 8-3.59375 8-8-3.585938-8-8-8zm0 0"/><path d="m376 384c-13.230469 0-24-10.769531-24-24s10.769531-24 24-24 24 10.769531 24 24-10.769531 24-24 24zm0-32c-4.414062 0-8 3.59375-8 8s3.585938 8 8 8 8-3.59375 8-8-3.585938-8-8-8zm0 0"/></g><g transform="matrix(0.08064515888690948 0 0 0.08064515888690948 67.5 67.5)" id="L1_7"><path d="m396.984375 374.144531-46.28125-45.207031c-12.167969-11.890625-15.597656-29.953125-8.535156-44.945312 6.527343-13.855469 9.832031-28.65625 9.832031-43.992188s-3.304688-30.136719-9.832031-43.984375c-7.0625-14.992187-3.640625-33.054687 8.527343-44.945313l46.28125-45.207031 11.175782 11.441407-46.28125 45.207031c-7.296875 7.136719-9.398438 17.855469-5.238282 26.695312 7.542969 15.984375 11.367188 33.082031 11.367188 50.792969s-3.824219 34.808594-11.351562 50.800781c-4.167969 8.832031-2.054688 19.558594 5.238281 26.695313l46.273437 45.207031zm0 0"/><path d="m374.992188 399.609375-48.3125-46.855469c-7.265626-7.042968-17.894532-8.976562-26.457032-4.800781-32.773437 15.984375-71.671875 15.984375-104.453125 0-8.5625-4.167969-19.195312-2.242187-26.457031 4.800781l-48.304688 46.855469-11.144531-11.488281 48.3125-46.855469c12.089844-11.722656 30.015625-14.824219 44.609375-7.691406 28.375 13.832031 62.0625 13.832031 90.429688 0 14.609375-7.117188 32.519531-4.023438 44.609375 7.691406l48.3125 46.855469zm0 0"/><path d="m99.015625 374.144531-11.175781-11.441406 46.28125-45.207031c7.292968-7.136719 9.398437-17.855469 5.238281-26.695313-7.535156-15.992187-11.359375-33.089843-11.359375-50.800781s3.824219-34.808594 11.351562-50.800781c4.167969-8.832031 2.054688-19.558594-5.238281-26.695313l-46.273437-45.207031 11.175781-11.441406 46.28125 45.207031c12.167969 11.890625 15.597656 29.953125 8.535156 44.945312-6.527343 13.855469-9.832031 28.65625-9.832031 43.992188s3.304688 30.136719 9.832031 43.984375c7.0625 14.992187 3.640625 33.054687-8.527343 44.945313zm0 0"/><path d="m309.777344 150.207031c-5.664063 0-11.328125-1.230469-16.554688-3.792969-28.375-13.828124-62.0625-13.828124-90.429687 0-14.59375 7.136719-32.511719 4.035157-44.609375-7.6875l-48.3125-46.855468 11.144531-11.488282 48.3125 46.855469c7.265625 7.042969 17.886719 8.96875 26.457031 4.800781 32.773438-15.984374 71.671875-15.984374 104.453125 0 8.5625 4.175782 19.1875 2.242188 26.457031-4.800781l48.304688-46.855469 11.144531 11.488282-48.3125 46.855468c-7.761719 7.519532-17.921875 11.480469-28.054687 11.480469zm0 0"/><g fill="#f0bc5e"><path d="m64 128c-35.289062 0-64-28.710938-64-64s28.710938-64 64-64 64 28.710938 64 64-28.710938 64-64 64zm0-88c-13.230469 0-24 10.769531-24 24s10.769531 24 24 24 24-10.769531 24-24-10.769531-24-24-24zm0 0"/><path d="m432 128c-35.289062 0-64-28.710938-64-64s28.710938-64 64-64 64 28.710938 64 64-28.710938 64-64 64zm0-88c-13.230469 0-24 10.769531-24 24s10.769531 24 24 24 24-10.769531 24-24-10.769531-24-24-24zm0 0"/><path d="m64 480c-35.289062 0-64-28.710938-64-64s28.710938-64 64-64 64 28.710938 64 64-28.710938 64-64 64zm0-88c-13.230469 0-24 10.769531-24 24s10.769531 24 24 24 24-10.769531 24-24-10.769531-24-24-24zm0 0"/><path d="m432 480c-35.289062 0-64-28.710938-64-64s28.710938-64 64-64 64 28.710938 64 64-28.710938 64-64 64zm0-88c-13.230469 0-24 10.769531-24 24s10.769531 24 24 24 24-10.769531 24-24-10.769531-24-24-24zm0 0"/></g><path d="m64 96c-17.648438 0-32-14.351562-32-32s14.351562-32 32-32 32 14.351562 32 32-14.351562 32-32 32zm0-48c-8.824219 0-16 7.175781-16 16s7.175781 16 16 16 16-7.175781 16-16-7.175781-16-16-16zm0 0"/><path d="m432 96c-17.648438 0-32-14.351562-32-32s14.351562-32 32-32 32 14.351562 32 32-14.351562 32-32 32zm0-48c-8.824219 0-16 7.175781-16 16s7.175781 16 16 16 16-7.175781 16-16-7.175781-16-16-16zm0 0"/><path d="m64 448c-17.648438 0-32-14.351562-32-32s14.351562-32 32-32 32 14.351562 32 32-14.351562 32-32 32zm0-48c-8.824219 0-16 7.175781-16 16s7.175781 16 16 16 16-7.175781 16-16-7.175781-16-16-16zm0 0"/><path d="m432 448c-17.648438 0-32-14.351562-32-32s14.351562-32 32-32 32 14.351562 32 32-14.351562 32-32 32zm0-48c-8.824219 0-16 7.175781-16 16s7.175781 16 16 16 16-7.175781 16-16-7.175781-16-16-16zm0 0"/><path d="m248 328c-48.519531 0-88-39.480469-88-88s39.480469-88 88-88 88 39.480469 88 88-39.480469 88-88 88zm0-160c-39.695312 0-72 32.296875-72 72s32.304688 72 72 72 72-32.296875 72-72-32.304688-72-72-72zm0 0"/><path d="m248 248c-17.648438 0-32-14.351562-32-32s14.351562-32 32-32 32 14.351562 32 32-14.351562 32-32 32zm0 0" fill="#f0bc5e"/><path d="m208 264h16v16h-16zm0 0"/><path d="m240 264h16v16h-16zm0 0"/><path d="m272 264h16v16h-16zm0 0"/></g><g transform="matrix(0.08064515888690948 0 0 0.08064515888690948 242.5 67.5)" id="L1_8"><path d="m120 136v-32h-103.367188c-5.457031 9.425781-8.632812 20.328125-8.632812 32v32h80c17.671875 0 32-14.328125 32-32zm0 0" fill="#f0bc5e"/><path d="m160 256h104v16h-104zm0 0"/><path d="m496 192v-192h-320v192h32v16h-48v-120c0-13.230469-10.769531-24-24-24h-64c-39.695312 0-72 32.304688-72 72v96c0 22.054688 17.945312 40 40 40h24v-16h-24c-13.230469 0-24-10.769531-24-24v-8h456c4.40625 0 8 3.585938 8 8v16c0 4.414062-3.59375 8-8 8h-16v16h16c13.230469 0 24-10.769531 24-24v-16c0-13.230469-10.769531-24-24-24h-8v-16zm-304-176h288v160h-288zm-176 120c0-30.878906 25.121094-56 56-56h64c4.40625 0 8 3.59375 8 8v120h-128zm432 72h-224v-16h224zm0 0"/><path d="m208 144h16v16h-16zm0 0"/><path d="m208 64h16v64h-16zm0 0"/><path d="m208 32h16v16h-16zm0 0"/><path d="m256 144h16v16h-16zm0 0"/><path d="m256 64h16v64h-16zm0 0"/><path d="m256 32h16v16h-16zm0 0"/><path d="m304 144h16v16h-16zm0 0"/><path d="m304 64h16v64h-16zm0 0"/><path d="m304 32h16v16h-16zm0 0"/><path d="m352 144h16v16h-16zm0 0"/><path d="m352 64h16v64h-16zm0 0"/><path d="m352 32h16v16h-16zm0 0"/><path d="m400 144h16v16h-16zm0 0"/><path d="m400 64h16v64h-16zm0 0"/><path d="m400 32h16v16h-16zm0 0"/><path d="m448 144h16v16h-16zm0 0"/><path d="m448 64h16v64h-16zm0 0"/><path d="m448 32h16v16h-16zm0 0"/><g fill="#f0bc5e"><path d="m112 320c-30.878906 0-56-25.128906-56-56s25.121094-56 56-56 56 25.128906 56 56-25.121094 56-56 56zm0-72c-8.824219 0-16 7.175781-16 16s7.175781 16 16 16 16-7.175781 16-16-7.175781-16-16-16zm0 0"/><path d="m312 320c-30.878906 0-56-25.128906-56-56s25.121094-56 56-56 56 25.128906 56 56-25.121094 56-56 56zm0-72c-8.824219 0-16 7.175781-16 16s7.175781 16 16 16 16-7.175781 16-16-7.175781-16-16-16zm0 0"/><path d="m408 320c-30.878906 0-56-25.128906-56-56s25.121094-56 56-56 56 25.128906 56 56-25.121094 56-56 56zm0-72c-8.824219 0-16 7.175781-16 16s7.175781 16 16 16 16-7.175781 16-16-7.175781-16-16-16zm0 0"/></g><path d="m112 288c-13.230469 0-24-10.769531-24-24s10.769531-24 24-24 24 10.769531 24 24-10.769531 24-24 24zm0-32c-4.40625 0-8 3.585938-8 8s3.59375 8 8 8 8-3.585938 8-8-3.59375-8-8-8zm0 0"/><path d="m312 288c-13.230469 0-24-10.769531-24-24s10.769531-24 24-24 24 10.769531 24 24-10.769531 24-24 24zm0-32c-4.40625 0-8 3.585938-8 8s3.59375 8 8 8 8-3.585938 8-8-3.59375-8-8-8zm0 0"/><path d="m408 288c-13.230469 0-24-10.769531-24-24s10.769531-24 24-24 24 10.769531 24 24-10.769531 24-24 24zm0-32c-4.40625 0-8 3.585938-8 8s3.59375 8 8 8 8-3.585938 8-8-3.59375-8-8-8zm0 0"/></g><g transform="matrix(0.1363201766329438 -0.03652688124086529 0.03652688124086529 0.1363201766329438 134.48827251212862 149.9413075071698)" id="L1_9"><path d="m149.207031 320h117.578125v16h-117.578125zm0 0"/><path d="m453.046875 103.214844c-3.152344-4.519532-5.046875-7.246094-5.046875-15.214844v-9.761719l-9.566406 1.914063c-2.570313.511718-5.523438 1.375-8.640625 2.566406-6.640625-19.152344-26.257813-25.984375-27.257813-26.320312l-2.535156-.832032-2.527344.839844c-8.226562 2.746094-22.160156 11.347656-26.9375 26.433594-3.238281-1.265625-6.304687-2.152344-8.960937-2.679688l-9.574219-1.921875v9.761719c0 7.96875-1.894531 10.695312-5.046875 15.214844-4.882813 7.007812-10.953125 15.738281-10.953125 40.785156 0 14.433594 6.230469 48 64 48s64-33.566406 64-48c0-25.046875-6.070312-33.777344-10.953125-40.785156zm0 0" fill="#f0bc5e"/><path d="m40 200c0-14.144531-9.238281-26.015625-21.96875-30.238281-6.230469 5.894531-10.03125 14.191406-10.03125 23.222656v39.015625c17.671875 0 32-14.328125 32-32zm0 0" fill="#f0bc5e"/><path d="m456 0h-240c-22.054688 0-40 17.945312-40 40v24h-59.167969c-30.167969 0-57.359375 19.046875-67.664062 47.390625l-15.222657 41.875-3.632812.910156c-17.847656 4.464844-30.3125 20.417969-30.3125 38.808594v119.015625c0 13.230469 10.769531 24 24 24h34.777344v-16h-34.777344c-4.414062 0-8-3.59375-8-8v-24h19.753906l40-48h64.933594l48 48h55.59375l32-48h203.71875v72c0 4.40625-3.585938 8-8 8h-18.777344v16h18.777344c13.230469 0 24-10.769531 24-24v-272c0-22.054688-17.945312-40-40-40zm-240 16h120.761719c-23.976563 15.089844-41.5625 39.71875-46.9375 69.28125l-12.902344 71.007812c-2.089844 11.421876-12.027344 19.710938-23.625 19.710938h-61.296875v-136c0-13.230469 10.769531-24 24-24zm-40 144h-92.457031l10.21875-27.230469c4.652343-12.425781 16.703125-20.769531 29.957031-20.769531h52.28125zm-147.753906 112h-12.246094v-79.015625c0-11.03125 7.480469-20.609375 18.183594-23.28125l11.871094-2.976563 18.136718-49.863281c8.015625-22.046875 29.175782-36.863281 52.640625-36.863281h59.167969v16h-52.28125c-19.886719 0-37.949219 12.511719-44.941406 31.144531l-14.777344 39.40625v62.554688zm51.753906-48v-48h96v76.6875l-28.6875-28.6875zm187.71875 0-32 48h-40.40625l-3.3125-3.3125v-76.6875h61.296875c19.335937 0 35.878906-13.816406 39.351563-32.847656l12.902343-71.007813c7.609375-41.808593 43.960938-72.144531 86.449219-72.144531h64c13.230469 0 24 10.769531 24 24v184zm0 0"/><path d="m208 128h16v16h-16zm0 0"/><path d="m224 112h-16v-64c0-8.824219 7.175781-16 16-16h32v16h-32zm0 0"/><g fill="#f0bc5e"><path d="m104 368c-30.871094 0-56-25.121094-56-56s25.128906-56 56-56 56 25.121094 56 56-25.128906 56-56 56zm0-72c-8.824219 0-16 7.175781-16 16s7.175781 16 16 16 16-7.175781 16-16-7.175781-16-16-16zm0 0"/><path d="m408 368c-30.871094 0-56-25.121094-56-56s25.128906-56 56-56 56 25.121094 56 56-25.128906 56-56 56zm0-72c-8.824219 0-16 7.175781-16 16s7.175781 16 16 16 16-7.175781 16-16-7.175781-16-16-16zm0 0"/><path d="m312 368c-30.871094 0-56-25.121094-56-56s25.128906-56 56-56 56 25.121094 56 56-25.128906 56-56 56zm0-72c-8.824219 0-16 7.175781-16 16s7.175781 16 16 16 16-7.175781 16-16-7.175781-16-16-16zm0 0"/></g><path d="m104 336c-13.230469 0-24-10.769531-24-24s10.769531-24 24-24 24 10.769531 24 24-10.769531 24-24 24zm0-32c-4.414062 0-8 3.59375-8 8s3.585938 8 8 8 8-3.59375 8-8-3.585938-8-8-8zm0 0"/><path d="m408 336c-13.230469 0-24-10.769531-24-24s10.769531-24 24-24 24 10.769531 24 24-10.769531 24-24 24zm0-32c-4.414062 0-8 3.59375-8 8s3.585938 8 8 8 8-3.59375 8-8-3.585938-8-8-8zm0 0"/><path d="m312 336c-13.230469 0-24-10.769531-24-24s10.769531-24 24-24 24 10.769531 24 24-10.769531 24-24 24zm0-32c-4.414062 0-8 3.59375-8 8s3.585938 8 8 8 8-3.59375 8-8-3.585938-8-8-8zm0 0"/></g></defs><g fi:class="KUsePattern"><pattern id="pattern_L1_0" width="350" height="350" patternUnits="userSpaceOnUse"><use xlink:href="#L1_0" x="-350" y="-350"/><use xlink:href="#L1_0" x="0" y="-350"/><use xlink:href="#L1_0" x="350" y="-350"/><use xlink:href="#L1_0" x="-350" y="0"/><use xlink:href="#L1_0" x="0" y="0"/><use xlink:href="#L1_0" x="350" y="0"/><use xlink:href="#L1_0" x="-350" y="350"/><use xlink:href="#L1_0" x="0" y="350"/><use xlink:href="#L1_0" x="350" y="350"/></pattern><rect x="0" y="0" width="100%" height="100%" fill="url(#pattern_L1_0)"/></g><g fi:class="KUsePattern" opacity="0.67"><pattern id="pattern_L1_1" width="350" height="350" patternUnits="userSpaceOnUse"><use xlink:href="#L1_1" x="-350" y="-350"/><use xlink:href="#L1_1" x="0" y="-350"/><use xlink:href="#L1_1" x="350" y="-350"/><use xlink:href="#L1_1" x="-350" y="0"/><use xlink:href="#L1_1" x="0" y="0"/><use xlink:href="#L1_1" x="350" y="0"/><use xlink:href="#L1_1" x="-350" y="350"/><use xlink:href="#L1_1" x="0" y="350"/><use xlink:href="#L1_1" x="350" y="350"/></pattern><rect x="0" y="0" width="100%" height="100%" fill="url(#pattern_L1_1)"/></g><g fi:class="KUsePattern"><pattern id="pattern_L1_2" width="350" height="350" patternUnits="userSpaceOnUse"><use xlink:href="#L1_2" x="-350" y="-350"/><use xlink:href="#L1_2" x="0" y="-350"/><use xlink:href="#L1_2" x="350" y="-350"/><use xlink:href="#L1_2" x="-350" y="0"/><use xlink:href="#L1_2" x="0" y="0"/><use xlink:href="#L1_2" x="350" y="0"/><use xlink:href="#L1_2" x="-350" y="350"/><use xlink:href="#L1_2" x="0" y="350"/><use xlink:href="#L1_2" x="350" y="350"/></pattern><rect x="0" y="0" width="100%" height="100%" fill="url(#pattern_L1_2)"/></g><g fi:class="KUsePattern"><pattern id="pattern_L1_3" width="350" height="350" patternUnits="userSpaceOnUse"><use xlink:href="#L1_3" x="-350" y="-350"/><use xlink:href="#L1_3" x="0" y="-350"/><use xlink:href="#L1_3" x="350" y="-350"/><use xlink:href="#L1_3" x="-350" y="0"/><use xlink:href="#L1_3" x="0" y="0"/><use xlink:href="#L1_3" x="350" y="0"/><use xlink:href="#L1_3" x="-350" y="350"/><use xlink:href="#L1_3" x="0" y="350"/><use xlink:href="#L1_3" x="350" y="350"/></pattern><rect x="0" y="0" width="100%" height="100%" fill="url(#pattern_L1_3)"/></g><g fi:class="KUsePattern" opacity="0.25"><pattern id="pattern_L1_4" width="350" height="350" patternUnits="userSpaceOnUse"><use xlink:href="#L1_4" x="-350" y="-350"/><use xlink:href="#L1_4" x="0" y="-350"/><use xlink:href="#L1_4" x="350" y="-350"/><use xlink:href="#L1_4" x="-350" y="0"/><use xlink:href="#L1_4" x="0" y="0"/><use xlink:href="#L1_4" x="350" y="0"/><use xlink:href="#L1_4" x="-350" y="350"/><use xlink:href="#L1_4" x="0" y="350"/><use xlink:href="#L1_4" x="350" y="350"/></pattern><rect x="0" y="0" width="100%" height="100%" fill="url(#pattern_L1_4)"/></g><g fi:class="KUsePattern"><pattern id="pattern_L1_5" width="350" height="350" patternUnits="userSpaceOnUse"><use xlink:href="#L1_5" x="-350" y="-350"/><use xlink:href="#L1_5" x="0" y="-350"/><use xlink:href="#L1_5" x="350" y="-350"/><use xlink:href="#L1_5" x="-350" y="0"/><use xlink:href="#L1_5" x="0" y="0"/><use xlink:href="#L1_5" x="350" y="0"/><use xlink:href="#L1_5" x="-350" y="350"/><use xlink:href="#L1_5" x="0" y="350"/><use xlink:href="#L1_5" x="350" y="350"/></pattern><rect x="0" y="0" width="100%" height="100%" fill="url(#pattern_L1_5)"/></g><g fi:class="KUsePattern" opacity="0.71"><pattern id="pattern_L1_6" width="350" height="350" patternUnits="userSpaceOnUse"><use xlink:href="#L1_6" x="-350" y="-350"/><use xlink:href="#L1_6" x="0" y="-350"/><use xlink:href="#L1_6" x="350" y="-350"/><use xlink:href="#L1_6" x="-350" y="0"/><use xlink:href="#L1_6" x="0" y="0"/><use xlink:href="#L1_6" x="350" y="0"/><use xlink:href="#L1_6" x="-350" y="350"/><use xlink:href="#L1_6" x="0" y="350"/><use xlink:href="#L1_6" x="350" y="350"/></pattern><rect x="0" y="0" width="100%" height="100%" fill="url(#pattern_L1_6)"/></g><g fi:class="KUsePattern"><pattern id="pattern_L1_7" width="350" height="350" patternUnits="userSpaceOnUse"><use xlink:href="#L1_7" x="-350" y="-350"/><use xlink:href="#L1_7" x="0" y="-350"/><use xlink:href="#L1_7" x="350" y="-350"/><use xlink:href="#L1_7" x="-350" y="0"/><use xlink:href="#L1_7" x="0" y="0"/><use xlink:href="#L1_7" x="350" y="0"/><use xlink:href="#L1_7" x="-350" y="350"/><use xlink:href="#L1_7" x="0" y="350"/><use xlink:href="#L1_7" x="350" y="350"/></pattern><rect x="0" y="0" width="100%" height="100%" fill="url(#pattern_L1_7)"/></g><g fi:class="KUsePattern"><pattern id="pattern_L1_8" width="350" height="350" patternUnits="userSpaceOnUse"><use xlink:href="#L1_8" x="-350" y="-350"/><use xlink:href="#L1_8" x="0" y="-350"/><use xlink:href="#L1_8" x="350" y="-350"/><use xlink:href="#L1_8" x="-350" y="0"/><use xlink:href="#L1_8" x="0" y="0"/><use xlink:href="#L1_8" x="350" y="0"/><use xlink:href="#L1_8" x="-350" y="350"/><use xlink:href="#L1_8" x="0" y="350"/><use xlink:href="#L1_8" x="350" y="350"/></pattern><rect x="0" y="0" width="100%" height="100%" fill="url(#pattern_L1_8)"/></g><g fi:class="KUsePattern" opacity="0.56"><pattern id="pattern_L1_9" width="350" height="350" patternUnits="userSpaceOnUse"><use xlink:href="#L1_9" x="-350" y="-350"/><use xlink:href="#L1_9" x="0" y="-350"/><use xlink:href="#L1_9" x="350" y="-350"/><use xlink:href="#L1_9" x="-350" y="0"/><use xlink:href="#L1_9" x="0" y="0"/><use xlink:href="#L1_9" x="350" y="0"/><use xlink:href="#L1_9" x="-350" y="350"/><use xlink:href="#L1_9" x="0" y="350"/><use xlink:href="#L1_9" x="350" y="350"/></pattern><rect x="0" y="0" width="100%" height="100%" fill="url(#pattern_L1_9)"/></g></svg>